G04*
G04 #@! TF.GenerationSoftware,Altium Limited,Altium Designer,25.2.1 (25)*
G04*
G04 Layer_Color=255*
%FSLAX25Y25*%
%MOIN*%
G70*
G04*
G04 #@! TF.SameCoordinates,93333BF9-B9FA-480E-9F15-3530D08D3613*
G04*
G04*
G04 #@! TF.FilePolarity,Positive*
G04*
G01*
G75*
%ADD18R,0.04758X0.03985*%
%ADD19O,0.02362X0.08661*%
%ADD20R,0.08465X0.12795*%
%ADD21R,0.08465X0.03740*%
G04:AMPARAMS|DCode=22|XSize=62.99mil|YSize=125.98mil|CornerRadius=0mil|HoleSize=0mil|Usage=FLASHONLY|Rotation=315.000|XOffset=0mil|YOffset=0mil|HoleType=Round|Shape=Rectangle|*
%AMROTATEDRECTD22*
4,1,4,-0.06681,-0.02227,0.02227,0.06681,0.06681,0.02227,-0.02227,-0.06681,-0.06681,-0.02227,0.0*
%
%ADD22ROTATEDRECTD22*%

%ADD23R,0.03963X0.05544*%
%ADD24R,0.05800X0.01400*%
%ADD25R,0.04724X0.05709*%
%ADD26R,0.06299X0.12598*%
%ADD27R,0.09055X0.08661*%
%ADD28R,0.04134X0.07087*%
%ADD29R,0.01797X0.03928*%
%ADD30R,0.04724X0.04724*%
%ADD31R,0.02894X0.03394*%
G04:AMPARAMS|DCode=32|XSize=271.65mil|YSize=303.15mil|CornerRadius=1.36mil|HoleSize=0mil|Usage=FLASHONLY|Rotation=180.000|XOffset=0mil|YOffset=0mil|HoleType=Round|Shape=RoundedRectangle|*
%AMROUNDEDRECTD32*
21,1,0.27165,0.30043,0,0,180.0*
21,1,0.26894,0.30315,0,0,180.0*
1,1,0.00272,-0.13447,0.15022*
1,1,0.00272,0.13447,0.15022*
1,1,0.00272,0.13447,-0.15022*
1,1,0.00272,-0.13447,-0.15022*
%
%ADD32ROUNDEDRECTD32*%
G04:AMPARAMS|DCode=33|XSize=9.84mil|YSize=51.18mil|CornerRadius=1.97mil|HoleSize=0mil|Usage=FLASHONLY|Rotation=180.000|XOffset=0mil|YOffset=0mil|HoleType=Round|Shape=RoundedRectangle|*
%AMROUNDEDRECTD33*
21,1,0.00984,0.04724,0,0,180.0*
21,1,0.00591,0.05118,0,0,180.0*
1,1,0.00394,-0.00295,0.02362*
1,1,0.00394,0.00295,0.02362*
1,1,0.00394,0.00295,-0.02362*
1,1,0.00394,-0.00295,-0.02362*
%
%ADD33ROUNDEDRECTD33*%
G04:AMPARAMS|DCode=34|XSize=9.84mil|YSize=51.18mil|CornerRadius=1.97mil|HoleSize=0mil|Usage=FLASHONLY|Rotation=270.000|XOffset=0mil|YOffset=0mil|HoleType=Round|Shape=RoundedRectangle|*
%AMROUNDEDRECTD34*
21,1,0.00984,0.04724,0,0,270.0*
21,1,0.00591,0.05118,0,0,270.0*
1,1,0.00394,-0.02362,-0.00295*
1,1,0.00394,-0.02362,0.00295*
1,1,0.00394,0.02362,0.00295*
1,1,0.00394,0.02362,-0.00295*
%
%ADD34ROUNDEDRECTD34*%
%ADD35R,0.06693X0.03740*%
%ADD36R,0.02362X0.02953*%
%ADD37R,0.03740X0.06693*%
%ADD38R,0.04724X0.06890*%
%ADD39R,0.04921X0.07087*%
G04:AMPARAMS|DCode=40|XSize=25.59mil|YSize=64.96mil|CornerRadius=1.92mil|HoleSize=0mil|Usage=FLASHONLY|Rotation=180.000|XOffset=0mil|YOffset=0mil|HoleType=Round|Shape=RoundedRectangle|*
%AMROUNDEDRECTD40*
21,1,0.02559,0.06112,0,0,180.0*
21,1,0.02175,0.06496,0,0,180.0*
1,1,0.00384,-0.01088,0.03056*
1,1,0.00384,0.01088,0.03056*
1,1,0.00384,0.01088,-0.03056*
1,1,0.00384,-0.01088,-0.03056*
%
%ADD40ROUNDEDRECTD40*%
%ADD41R,0.03985X0.04758*%
%ADD42R,0.03543X0.06102*%
%ADD43R,0.03740X0.06693*%
%ADD44R,0.02953X0.03543*%
%ADD45R,0.03740X0.05709*%
G04:AMPARAMS|DCode=46|XSize=25.59mil|YSize=64.96mil|CornerRadius=1.92mil|HoleSize=0mil|Usage=FLASHONLY|Rotation=90.000|XOffset=0mil|YOffset=0mil|HoleType=Round|Shape=RoundedRectangle|*
%AMROUNDEDRECTD46*
21,1,0.02559,0.06112,0,0,90.0*
21,1,0.02175,0.06496,0,0,90.0*
1,1,0.00384,0.03056,0.01088*
1,1,0.00384,0.03056,-0.01088*
1,1,0.00384,-0.03056,-0.01088*
1,1,0.00384,-0.03056,0.01088*
%
%ADD46ROUNDEDRECTD46*%
G04:AMPARAMS|DCode=47|XSize=37.4mil|YSize=66.93mil|CornerRadius=0mil|HoleSize=0mil|Usage=FLASHONLY|Rotation=315.000|XOffset=0mil|YOffset=0mil|HoleType=Round|Shape=Rectangle|*
%AMROTATEDRECTD47*
4,1,4,-0.03689,-0.01044,0.01044,0.03689,0.03689,0.01044,-0.01044,-0.03689,-0.03689,-0.01044,0.0*
%
%ADD47ROTATEDRECTD47*%

%ADD48R,0.12828X0.04550*%
%ADD49R,0.04331X0.05315*%
%ADD50R,0.03568X0.03563*%
%ADD51R,0.03563X0.03568*%
%ADD52R,0.02648X0.02816*%
%ADD53R,0.02816X0.02648*%
%ADD54R,0.04182X0.04560*%
%ADD55R,0.03765X0.04749*%
%ADD56R,0.06905X0.07111*%
%ADD57R,0.04134X0.04134*%
%ADD58R,0.05339X0.07316*%
G04:AMPARAMS|DCode=59|XSize=43.31mil|YSize=23.62mil|CornerRadius=2.01mil|HoleSize=0mil|Usage=FLASHONLY|Rotation=0.000|XOffset=0mil|YOffset=0mil|HoleType=Round|Shape=RoundedRectangle|*
%AMROUNDEDRECTD59*
21,1,0.04331,0.01961,0,0,0.0*
21,1,0.03929,0.02362,0,0,0.0*
1,1,0.00402,0.01965,-0.00980*
1,1,0.00402,-0.01965,-0.00980*
1,1,0.00402,-0.01965,0.00980*
1,1,0.00402,0.01965,0.00980*
%
%ADD59ROUNDEDRECTD59*%
G04:AMPARAMS|DCode=60|XSize=55.12mil|YSize=177.17mil|CornerRadius=13.78mil|HoleSize=0mil|Usage=FLASHONLY|Rotation=270.000|XOffset=0mil|YOffset=0mil|HoleType=Round|Shape=RoundedRectangle|*
%AMROUNDEDRECTD60*
21,1,0.05512,0.14961,0,0,270.0*
21,1,0.02756,0.17717,0,0,270.0*
1,1,0.02756,-0.07480,-0.01378*
1,1,0.02756,-0.07480,0.01378*
1,1,0.02756,0.07480,0.01378*
1,1,0.02756,0.07480,-0.01378*
%
%ADD60ROUNDEDRECTD60*%
%ADD61R,0.17717X0.05512*%
%ADD62R,0.03740X0.05315*%
%ADD63R,0.10261X0.06704*%
%ADD64R,0.01772X0.05807*%
%ADD65R,0.02254X0.02423*%
%ADD66R,0.03150X0.03740*%
%ADD67R,0.05733X0.05426*%
%ADD68R,0.05315X0.03937*%
%ADD69R,0.13500X0.09500*%
%ADD70R,0.04331X0.06693*%
%ADD71R,0.04921X0.05709*%
%ADD101C,0.06181*%
%ADD102R,0.06181X0.06181*%
%ADD105R,0.06063X0.06063*%
%ADD106C,0.06063*%
%ADD124C,0.08268*%
G04:AMPARAMS|DCode=125|XSize=82.68mil|YSize=82.68mil|CornerRadius=20.67mil|HoleSize=0mil|Usage=FLASHONLY|Rotation=180.000|XOffset=0mil|YOffset=0mil|HoleType=Round|Shape=RoundedRectangle|*
%AMROUNDEDRECTD125*
21,1,0.08268,0.04134,0,0,180.0*
21,1,0.04134,0.08268,0,0,180.0*
1,1,0.04134,-0.02067,0.02067*
1,1,0.04134,0.02067,0.02067*
1,1,0.04134,0.02067,-0.02067*
1,1,0.04134,-0.02067,-0.02067*
%
%ADD125ROUNDEDRECTD125*%
%ADD126C,0.07874*%
%ADD127R,0.05492X0.05492*%
%ADD128C,0.05492*%
%ADD129C,0.05906*%
%ADD130C,0.07480*%
D18*
X156000Y55000D02*
D03*
X162314D02*
D03*
X125343Y17000D02*
D03*
X131657D02*
D03*
X89343Y175000D02*
D03*
X95657D02*
D03*
X105000Y95000D02*
D03*
X98686D02*
D03*
X180000Y142500D02*
D03*
X173686D02*
D03*
X69843Y107000D02*
D03*
X76157D02*
D03*
D19*
X179500Y26551D02*
D03*
X184500D02*
D03*
X189500D02*
D03*
X194500D02*
D03*
X179500Y45449D02*
D03*
X184500D02*
D03*
X189500D02*
D03*
X194500D02*
D03*
D20*
X231500Y272500D02*
D03*
D21*
X208665Y263445D02*
D03*
Y272500D02*
D03*
Y281555D02*
D03*
D22*
X200748Y199652D02*
D03*
X182652Y217748D02*
D03*
D23*
X173844Y279500D02*
D03*
X166357D02*
D03*
D24*
X162831Y140059D02*
D03*
Y137500D02*
D03*
Y134941D02*
D03*
Y132382D02*
D03*
Y129823D02*
D03*
Y127264D02*
D03*
Y124705D02*
D03*
Y122146D02*
D03*
X139831D02*
D03*
Y124705D02*
D03*
Y127264D02*
D03*
Y129823D02*
D03*
Y132382D02*
D03*
Y134941D02*
D03*
Y137500D02*
D03*
Y140059D02*
D03*
D25*
X146263Y279400D02*
D03*
X154137D02*
D03*
D26*
X126905Y100000D02*
D03*
X152495D02*
D03*
D27*
X266329Y248433D02*
D03*
Y213000D02*
D03*
X280108D02*
D03*
Y248433D02*
D03*
D28*
X305020Y48000D02*
D03*
X294980D02*
D03*
X316976D02*
D03*
X327016D02*
D03*
D29*
X27677Y295000D02*
D03*
X25118D02*
D03*
X22559D02*
D03*
X20000D02*
D03*
Y284572D02*
D03*
X22559D02*
D03*
X25118D02*
D03*
X27677D02*
D03*
X28839Y254786D02*
D03*
X26280D02*
D03*
X23720D02*
D03*
X21161D02*
D03*
Y265214D02*
D03*
X23720D02*
D03*
X26280D02*
D03*
X28839D02*
D03*
D30*
X220768Y237500D02*
D03*
X212500D02*
D03*
D31*
X199923Y235000D02*
D03*
X195077D02*
D03*
D32*
X252401Y133747D02*
D03*
D33*
X271101Y107566D02*
D03*
X269133D02*
D03*
X267164D02*
D03*
X265196D02*
D03*
X263227D02*
D03*
X261259D02*
D03*
X259290D02*
D03*
X257322D02*
D03*
X255353D02*
D03*
X253385D02*
D03*
X251416D02*
D03*
X249448D02*
D03*
X247479D02*
D03*
X245511D02*
D03*
X243542D02*
D03*
X241574D02*
D03*
X239605D02*
D03*
X237637D02*
D03*
X235668D02*
D03*
X233700D02*
D03*
Y159928D02*
D03*
X235668D02*
D03*
X237637D02*
D03*
X239605D02*
D03*
X241574D02*
D03*
X243542D02*
D03*
X245511D02*
D03*
X247479D02*
D03*
X249448D02*
D03*
X251416D02*
D03*
X253385D02*
D03*
X255353D02*
D03*
X257322D02*
D03*
X259290D02*
D03*
X261259D02*
D03*
X263227D02*
D03*
X265196D02*
D03*
X267164D02*
D03*
X269133D02*
D03*
X271101D02*
D03*
D34*
X226220Y115046D02*
D03*
Y117015D02*
D03*
Y118983D02*
D03*
Y120952D02*
D03*
Y122920D02*
D03*
Y124889D02*
D03*
Y126857D02*
D03*
Y128826D02*
D03*
Y130794D02*
D03*
Y132763D02*
D03*
Y134731D02*
D03*
Y136700D02*
D03*
Y138668D02*
D03*
Y140637D02*
D03*
Y142605D02*
D03*
Y144574D02*
D03*
Y146542D02*
D03*
Y148511D02*
D03*
Y150479D02*
D03*
Y152448D02*
D03*
X278582D02*
D03*
Y150479D02*
D03*
Y148511D02*
D03*
Y146542D02*
D03*
Y144574D02*
D03*
Y142605D02*
D03*
Y140637D02*
D03*
Y138668D02*
D03*
Y136700D02*
D03*
Y134731D02*
D03*
Y132763D02*
D03*
Y130794D02*
D03*
Y128826D02*
D03*
Y126857D02*
D03*
Y124889D02*
D03*
Y122920D02*
D03*
Y120952D02*
D03*
Y118983D02*
D03*
Y117015D02*
D03*
Y115046D02*
D03*
D35*
X7600Y292912D02*
D03*
Y281888D02*
D03*
D36*
X230000Y72165D02*
D03*
Y67835D02*
D03*
D37*
X98512Y154000D02*
D03*
X87488D02*
D03*
X66988Y230000D02*
D03*
X78012D02*
D03*
D38*
X100118Y164072D02*
D03*
X89882D02*
D03*
X97500Y107500D02*
D03*
X107736D02*
D03*
D39*
X78504Y137500D02*
D03*
X66496D02*
D03*
Y157500D02*
D03*
X78504D02*
D03*
D40*
X35000Y123878D02*
D03*
X40000D02*
D03*
X45000D02*
D03*
X50000D02*
D03*
X35000Y146122D02*
D03*
X40000D02*
D03*
X45000D02*
D03*
X50000D02*
D03*
X95000Y121378D02*
D03*
X100000D02*
D03*
X105000D02*
D03*
X110000D02*
D03*
X95000Y143622D02*
D03*
X100000D02*
D03*
X105000D02*
D03*
X110000D02*
D03*
X291500Y7878D02*
D03*
X296500D02*
D03*
X301500D02*
D03*
X306500D02*
D03*
X311500D02*
D03*
X316500D02*
D03*
X321500D02*
D03*
X326500D02*
D03*
X291500Y30122D02*
D03*
X296500D02*
D03*
X301500D02*
D03*
X306500D02*
D03*
X311500D02*
D03*
X316500D02*
D03*
X321500D02*
D03*
X326500D02*
D03*
D41*
X163000Y105843D02*
D03*
Y112157D02*
D03*
D42*
X77716Y212500D02*
D03*
X67283D02*
D03*
X77716Y190000D02*
D03*
X67283D02*
D03*
X78216Y118000D02*
D03*
X67783D02*
D03*
D43*
X100512Y212500D02*
D03*
X89488D02*
D03*
X66988Y180000D02*
D03*
X78012D02*
D03*
D44*
X120000Y227500D02*
D03*
X124724D02*
D03*
D45*
X118661Y237500D02*
D03*
X126339D02*
D03*
D46*
X53622Y202500D02*
D03*
Y207500D02*
D03*
Y212500D02*
D03*
Y217500D02*
D03*
X31378Y202500D02*
D03*
Y207500D02*
D03*
Y212500D02*
D03*
Y217500D02*
D03*
D47*
X18897Y228603D02*
D03*
X11103Y236397D02*
D03*
D48*
X70000Y268529D02*
D03*
Y246472D02*
D03*
X97500D02*
D03*
Y268529D02*
D03*
D49*
X72244Y168000D02*
D03*
X77756D02*
D03*
X42244Y160000D02*
D03*
X47756D02*
D03*
X209256Y251500D02*
D03*
X203744D02*
D03*
X72244Y127000D02*
D03*
X77756D02*
D03*
D50*
X237500Y172771D02*
D03*
Y177500D02*
D03*
X249000Y90136D02*
D03*
Y94864D02*
D03*
X261000Y90636D02*
D03*
Y95364D02*
D03*
X228000Y90000D02*
D03*
Y94729D02*
D03*
X237500Y90136D02*
D03*
Y94864D02*
D03*
X248000Y174364D02*
D03*
Y169635D02*
D03*
X205000Y62500D02*
D03*
Y67229D02*
D03*
X227500Y50271D02*
D03*
Y55000D02*
D03*
D51*
X291636Y118000D02*
D03*
X296364D02*
D03*
X207771Y140000D02*
D03*
X212500D02*
D03*
X208636Y131000D02*
D03*
X213364D02*
D03*
X298364D02*
D03*
X293636D02*
D03*
X313364Y139000D02*
D03*
X308636D02*
D03*
X296364Y108000D02*
D03*
X291636D02*
D03*
D52*
X260000Y181116D02*
D03*
Y184884D02*
D03*
X265000Y170116D02*
D03*
Y173884D02*
D03*
X257000Y170116D02*
D03*
Y173884D02*
D03*
X251000Y181000D02*
D03*
Y184768D02*
D03*
X273000Y170232D02*
D03*
Y174000D02*
D03*
X268000Y181116D02*
D03*
Y184884D02*
D03*
D53*
X289116Y141000D02*
D03*
X292884D02*
D03*
X308116Y148000D02*
D03*
X311884D02*
D03*
X292232Y149000D02*
D03*
X296000D02*
D03*
X308116Y157000D02*
D03*
X311884D02*
D03*
X293116Y161000D02*
D03*
X296884D02*
D03*
X293232Y169000D02*
D03*
X297000D02*
D03*
D54*
X302000Y213000D02*
D03*
Y219512D02*
D03*
D55*
X309429Y125000D02*
D03*
X317500D02*
D03*
X242035Y196000D02*
D03*
X233965D02*
D03*
X236929Y56000D02*
D03*
X245000D02*
D03*
X235965Y34000D02*
D03*
X244035D02*
D03*
D56*
X244870Y283500D02*
D03*
X254130D02*
D03*
D57*
X280000Y266500D02*
D03*
Y271815D02*
D03*
X265000Y265125D02*
D03*
Y270440D02*
D03*
D58*
X92492Y16000D02*
D03*
X104508D02*
D03*
D59*
X76630Y50980D02*
D03*
Y47240D02*
D03*
Y43500D02*
D03*
X66000Y50980D02*
D03*
Y47240D02*
D03*
Y43500D02*
D03*
D60*
X45276Y63342D02*
D03*
D61*
Y43657D02*
D03*
D62*
X69095Y62500D02*
D03*
X75000D02*
D03*
D63*
X128558Y44000D02*
D03*
Y35728D02*
D03*
D64*
X255323Y33433D02*
D03*
X257882D02*
D03*
X260441D02*
D03*
X263000D02*
D03*
X265559D02*
D03*
X268118D02*
D03*
X270677D02*
D03*
Y56567D02*
D03*
X268118D02*
D03*
X265559D02*
D03*
X263000D02*
D03*
X260441D02*
D03*
X257882D02*
D03*
X255323D02*
D03*
D65*
X217500Y68313D02*
D03*
Y71687D02*
D03*
D66*
X276315Y199190D02*
D03*
X271000D02*
D03*
D67*
X64000Y26484D02*
D03*
Y32500D02*
D03*
D68*
X281000Y69087D02*
D03*
Y62000D02*
D03*
D69*
X102500Y52000D02*
D03*
Y75000D02*
D03*
D70*
X92291Y29500D02*
D03*
X103709D02*
D03*
D71*
X102693Y40000D02*
D03*
X96000D02*
D03*
D101*
X178500Y65000D02*
D03*
Y75000D02*
D03*
Y85000D02*
D03*
Y95000D02*
D03*
Y105000D02*
D03*
D102*
Y115000D02*
D03*
D105*
X292205Y198858D02*
D03*
D106*
X317795D02*
D03*
X292205Y181142D02*
D03*
X317795D02*
D03*
D124*
X294110Y334150D02*
D03*
D125*
X307890D02*
D03*
D126*
X75800Y333500D02*
D03*
X62020D02*
D03*
X48241D02*
D03*
X34461D02*
D03*
X272139Y333600D02*
D03*
X258359D02*
D03*
X244580D02*
D03*
X230800D02*
D03*
X208859Y334000D02*
D03*
X195080D02*
D03*
X181300D02*
D03*
X167520D02*
D03*
X138261Y333800D02*
D03*
X124482D02*
D03*
X110702D02*
D03*
X96923D02*
D03*
D127*
X136752Y257933D02*
D03*
D128*
Y250059D02*
D03*
Y242185D02*
D03*
Y234311D02*
D03*
Y226437D02*
D03*
Y218563D02*
D03*
Y210689D02*
D03*
Y202815D02*
D03*
Y194941D02*
D03*
Y187067D02*
D03*
Y179193D02*
D03*
Y171319D02*
D03*
Y163445D02*
D03*
X152500Y253996D02*
D03*
Y246122D02*
D03*
Y238248D02*
D03*
Y230374D02*
D03*
Y222500D02*
D03*
Y214626D02*
D03*
Y206752D02*
D03*
Y198878D02*
D03*
Y191004D02*
D03*
Y183130D02*
D03*
Y175256D02*
D03*
Y167382D02*
D03*
D129*
X157900Y10700D02*
D03*
X205600Y80900D02*
D03*
X253100Y262000D02*
D03*
D130*
X25000Y78303D02*
D03*
Y28697D02*
D03*
M02*
