G04*
G04 #@! TF.GenerationSoftware,Altium Limited,Altium Designer,25.2.1 (25)*
G04*
G04 Layer_Physical_Order=2*
G04 Layer_Color=36540*
%FSLAX25Y25*%
%MOIN*%
G70*
G04*
G04 #@! TF.SameCoordinates,93333BF9-B9FA-480E-9F15-3530D08D3613*
G04*
G04*
G04 #@! TF.FilePolarity,Positive*
G04*
G01*
G75*
%ADD101C,0.06181*%
%ADD102R,0.06181X0.06181*%
%ADD105R,0.06063X0.06063*%
%ADD106C,0.06063*%
%ADD108C,0.03200*%
%ADD110C,0.02400*%
%ADD113C,0.04000*%
%ADD124C,0.08268*%
G04:AMPARAMS|DCode=125|XSize=82.68mil|YSize=82.68mil|CornerRadius=20.67mil|HoleSize=0mil|Usage=FLASHONLY|Rotation=180.000|XOffset=0mil|YOffset=0mil|HoleType=Round|Shape=RoundedRectangle|*
%AMROUNDEDRECTD125*
21,1,0.08268,0.04134,0,0,180.0*
21,1,0.04134,0.08268,0,0,180.0*
1,1,0.04134,-0.02067,0.02067*
1,1,0.04134,0.02067,0.02067*
1,1,0.04134,0.02067,-0.02067*
1,1,0.04134,-0.02067,-0.02067*
%
%ADD125ROUNDEDRECTD125*%
%ADD126C,0.07874*%
%ADD127R,0.05492X0.05492*%
%ADD128C,0.05492*%
%ADD129C,0.05906*%
%ADD130C,0.07480*%
%ADD131C,0.03000*%
%ADD132C,0.03600*%
%ADD133C,0.01600*%
%ADD134C,0.02000*%
%ADD135C,0.01968*%
%ADD136C,0.05000*%
G36*
X369311Y348079D02*
Y3689D01*
X369538Y3462D01*
X369347Y3000D01*
X17958D01*
X17860Y3490D01*
X17958Y3531D01*
X19153Y4330D01*
X20170Y5347D01*
X20969Y6542D01*
X21520Y7871D01*
X21800Y9281D01*
Y9500D01*
X7200D01*
Y9281D01*
X7480Y7871D01*
X8031Y6542D01*
X8830Y5347D01*
X9847Y4330D01*
X11042Y3531D01*
X11140Y3490D01*
X11042Y3000D01*
X2000D01*
Y348000D01*
X368957Y348433D01*
X369311Y348079D01*
D02*
G37*
%LPC*%
G36*
X152738Y347100D02*
X151862D01*
X151054Y346765D01*
X150435Y346146D01*
X150100Y345338D01*
Y344462D01*
X150435Y343654D01*
X151054Y343035D01*
X151862Y342700D01*
X152738D01*
X153546Y343035D01*
X154165Y343654D01*
X154500Y344462D01*
Y345338D01*
X154165Y346146D01*
X153546Y346765D01*
X152738Y347100D01*
D02*
G37*
G36*
X294786Y339283D02*
X294610D01*
Y334650D01*
X299244D01*
Y334825D01*
X298894Y336131D01*
X298218Y337302D01*
X297263Y338258D01*
X296092Y338934D01*
X294786Y339283D01*
D02*
G37*
G36*
X293610D02*
X293434D01*
X292129Y338934D01*
X290958Y338258D01*
X290002Y337302D01*
X289326Y336131D01*
X288976Y334825D01*
Y334650D01*
X293610D01*
Y339283D01*
D02*
G37*
G36*
X209509Y338937D02*
X208209D01*
X206953Y338601D01*
X205828Y337951D01*
X204908Y337031D01*
X204258Y335906D01*
X203922Y334650D01*
Y333350D01*
X204258Y332094D01*
X204908Y330969D01*
X205828Y330049D01*
X206953Y329399D01*
X208209Y329063D01*
X209509D01*
X210765Y329399D01*
X211890Y330049D01*
X212810Y330969D01*
X213460Y332094D01*
X213796Y333350D01*
Y334650D01*
X213460Y335906D01*
X212810Y337031D01*
X211890Y337951D01*
X210765Y338601D01*
X209509Y338937D01*
D02*
G37*
G36*
X195729D02*
X194430D01*
X193174Y338601D01*
X192048Y337951D01*
X191129Y337031D01*
X190479Y335906D01*
X190143Y334650D01*
Y333350D01*
X190479Y332094D01*
X191129Y330969D01*
X192048Y330049D01*
X193174Y329399D01*
X194430Y329063D01*
X195729D01*
X196985Y329399D01*
X198111Y330049D01*
X199030Y330969D01*
X199680Y332094D01*
X200016Y333350D01*
Y334650D01*
X199680Y335906D01*
X199030Y337031D01*
X198111Y337951D01*
X196985Y338601D01*
X195729Y338937D01*
D02*
G37*
G36*
X181950D02*
X180650D01*
X179394Y338601D01*
X178269Y337951D01*
X177349Y337031D01*
X176699Y335906D01*
X176363Y334650D01*
Y333350D01*
X176699Y332094D01*
X177349Y330969D01*
X178269Y330049D01*
X179394Y329399D01*
X180650Y329063D01*
X181950D01*
X183206Y329399D01*
X184331Y330049D01*
X185251Y330969D01*
X185901Y332094D01*
X186237Y333350D01*
Y334650D01*
X185901Y335906D01*
X185251Y337031D01*
X184331Y337951D01*
X183206Y338601D01*
X181950Y338937D01*
D02*
G37*
G36*
X168170D02*
X166870D01*
X165615Y338601D01*
X164489Y337951D01*
X163570Y337031D01*
X162920Y335906D01*
X162583Y334650D01*
Y333350D01*
X162920Y332094D01*
X163570Y330969D01*
X164489Y330049D01*
X165615Y329399D01*
X166870Y329063D01*
X168170D01*
X169426Y329399D01*
X170552Y330049D01*
X171471Y330969D01*
X172121Y332094D01*
X172458Y333350D01*
Y334650D01*
X172121Y335906D01*
X171471Y337031D01*
X170552Y337951D01*
X169426Y338601D01*
X168170Y338937D01*
D02*
G37*
G36*
X299244Y333650D02*
X294610D01*
Y329016D01*
X294786D01*
X296092Y329365D01*
X297263Y330041D01*
X298218Y330997D01*
X298894Y332168D01*
X299244Y333474D01*
Y333650D01*
D02*
G37*
G36*
X293610D02*
X288976D01*
Y333474D01*
X289326Y332168D01*
X290002Y330997D01*
X290958Y330041D01*
X292129Y329365D01*
X293434Y329016D01*
X293610D01*
Y333650D01*
D02*
G37*
G36*
X309957Y339310D02*
X305823D01*
X305022Y339205D01*
X304276Y338895D01*
X303636Y338404D01*
X303144Y337763D01*
X302835Y337017D01*
X302729Y336216D01*
Y332083D01*
X302835Y331282D01*
X303144Y330536D01*
X303636Y329895D01*
X304276Y329404D01*
X305022Y329095D01*
X305823Y328989D01*
X309957D01*
X310757Y329095D01*
X311503Y329404D01*
X312144Y329895D01*
X312636Y330536D01*
X312945Y331282D01*
X313050Y332083D01*
Y336216D01*
X312945Y337017D01*
X312636Y337763D01*
X312144Y338404D01*
X311503Y338895D01*
X310757Y339205D01*
X309957Y339310D01*
D02*
G37*
G36*
X138911Y338737D02*
X137611D01*
X136356Y338401D01*
X135230Y337751D01*
X134311Y336831D01*
X133661Y335706D01*
X133324Y334450D01*
Y333150D01*
X133661Y331894D01*
X134311Y330769D01*
X135230Y329849D01*
X136356Y329199D01*
X137611Y328863D01*
X138911D01*
X140167Y329199D01*
X141293Y329849D01*
X142212Y330769D01*
X142862Y331894D01*
X143198Y333150D01*
Y334450D01*
X142862Y335706D01*
X142212Y336831D01*
X141293Y337751D01*
X140167Y338401D01*
X138911Y338737D01*
D02*
G37*
G36*
X125132D02*
X123832D01*
X122576Y338401D01*
X121450Y337751D01*
X120531Y336831D01*
X119881Y335706D01*
X119545Y334450D01*
Y333150D01*
X119881Y331894D01*
X120531Y330769D01*
X121450Y329849D01*
X122576Y329199D01*
X123832Y328863D01*
X125132D01*
X126387Y329199D01*
X127513Y329849D01*
X128432Y330769D01*
X129082Y331894D01*
X129419Y333150D01*
Y334450D01*
X129082Y335706D01*
X128432Y336831D01*
X127513Y337751D01*
X126387Y338401D01*
X125132Y338737D01*
D02*
G37*
G36*
X111352D02*
X110052D01*
X108797Y338401D01*
X107671Y337751D01*
X106752Y336831D01*
X106102Y335706D01*
X105765Y334450D01*
Y333150D01*
X106102Y331894D01*
X106752Y330769D01*
X107671Y329849D01*
X108797Y329199D01*
X110052Y328863D01*
X111352D01*
X112608Y329199D01*
X113733Y329849D01*
X114653Y330769D01*
X115303Y331894D01*
X115639Y333150D01*
Y334450D01*
X115303Y335706D01*
X114653Y336831D01*
X113733Y337751D01*
X112608Y338401D01*
X111352Y338737D01*
D02*
G37*
G36*
X97573D02*
X96273D01*
X95017Y338401D01*
X93891Y337751D01*
X92972Y336831D01*
X92322Y335706D01*
X91986Y334450D01*
Y333150D01*
X92322Y331894D01*
X92972Y330769D01*
X93891Y329849D01*
X95017Y329199D01*
X96273Y328863D01*
X97573D01*
X98828Y329199D01*
X99954Y329849D01*
X100873Y330769D01*
X101523Y331894D01*
X101860Y333150D01*
Y334450D01*
X101523Y335706D01*
X100873Y336831D01*
X99954Y337751D01*
X98828Y338401D01*
X97573Y338737D01*
D02*
G37*
G36*
X272789Y338537D02*
X271489D01*
X270233Y338201D01*
X269107Y337551D01*
X268188Y336631D01*
X267538Y335506D01*
X267202Y334250D01*
Y332950D01*
X267538Y331694D01*
X268188Y330569D01*
X269107Y329649D01*
X270233Y328999D01*
X271489Y328663D01*
X272789D01*
X274044Y328999D01*
X275170Y329649D01*
X276089Y330569D01*
X276739Y331694D01*
X277076Y332950D01*
Y334250D01*
X276739Y335506D01*
X276089Y336631D01*
X275170Y337551D01*
X274044Y338201D01*
X272789Y338537D01*
D02*
G37*
G36*
X259009D02*
X257709D01*
X256453Y338201D01*
X255328Y337551D01*
X254409Y336631D01*
X253759Y335506D01*
X253422Y334250D01*
Y332950D01*
X253759Y331694D01*
X254409Y330569D01*
X255328Y329649D01*
X256453Y328999D01*
X257709Y328663D01*
X259009D01*
X260265Y328999D01*
X261390Y329649D01*
X262310Y330569D01*
X262960Y331694D01*
X263296Y332950D01*
Y334250D01*
X262960Y335506D01*
X262310Y336631D01*
X261390Y337551D01*
X260265Y338201D01*
X259009Y338537D01*
D02*
G37*
G36*
X245230D02*
X243930D01*
X242674Y338201D01*
X241548Y337551D01*
X240629Y336631D01*
X239979Y335506D01*
X239643Y334250D01*
Y332950D01*
X239979Y331694D01*
X240629Y330569D01*
X241548Y329649D01*
X242674Y328999D01*
X243930Y328663D01*
X245230D01*
X246485Y328999D01*
X247611Y329649D01*
X248530Y330569D01*
X249180Y331694D01*
X249517Y332950D01*
Y334250D01*
X249180Y335506D01*
X248530Y336631D01*
X247611Y337551D01*
X246485Y338201D01*
X245230Y338537D01*
D02*
G37*
G36*
X231450D02*
X230150D01*
X228894Y338201D01*
X227769Y337551D01*
X226849Y336631D01*
X226199Y335506D01*
X225863Y334250D01*
Y332950D01*
X226199Y331694D01*
X226849Y330569D01*
X227769Y329649D01*
X228894Y328999D01*
X230150Y328663D01*
X231450D01*
X232706Y328999D01*
X233831Y329649D01*
X234751Y330569D01*
X235401Y331694D01*
X235737Y332950D01*
Y334250D01*
X235401Y335506D01*
X234751Y336631D01*
X233831Y337551D01*
X232706Y338201D01*
X231450Y338537D01*
D02*
G37*
G36*
X76450Y338437D02*
X75150D01*
X73894Y338101D01*
X72769Y337451D01*
X71849Y336531D01*
X71199Y335406D01*
X70863Y334150D01*
Y332850D01*
X71199Y331594D01*
X71849Y330469D01*
X72769Y329549D01*
X73894Y328899D01*
X75150Y328563D01*
X76450D01*
X77706Y328899D01*
X78831Y329549D01*
X79751Y330469D01*
X80401Y331594D01*
X80737Y332850D01*
Y334150D01*
X80401Y335406D01*
X79751Y336531D01*
X78831Y337451D01*
X77706Y338101D01*
X76450Y338437D01*
D02*
G37*
G36*
X62670D02*
X61370D01*
X60115Y338101D01*
X58989Y337451D01*
X58070Y336531D01*
X57420Y335406D01*
X57083Y334150D01*
Y332850D01*
X57420Y331594D01*
X58070Y330469D01*
X58989Y329549D01*
X60115Y328899D01*
X61370Y328563D01*
X62670D01*
X63926Y328899D01*
X65052Y329549D01*
X65971Y330469D01*
X66621Y331594D01*
X66957Y332850D01*
Y334150D01*
X66621Y335406D01*
X65971Y336531D01*
X65052Y337451D01*
X63926Y338101D01*
X62670Y338437D01*
D02*
G37*
G36*
X48891D02*
X47591D01*
X46335Y338101D01*
X45210Y337451D01*
X44290Y336531D01*
X43640Y335406D01*
X43304Y334150D01*
Y332850D01*
X43640Y331594D01*
X44290Y330469D01*
X45210Y329549D01*
X46335Y328899D01*
X47591Y328563D01*
X48891D01*
X50147Y328899D01*
X51272Y329549D01*
X52192Y330469D01*
X52842Y331594D01*
X53178Y332850D01*
Y334150D01*
X52842Y335406D01*
X52192Y336531D01*
X51272Y337451D01*
X50147Y338101D01*
X48891Y338437D01*
D02*
G37*
G36*
X35111D02*
X33812D01*
X32556Y338101D01*
X31430Y337451D01*
X30511Y336531D01*
X29861Y335406D01*
X29524Y334150D01*
Y332850D01*
X29861Y331594D01*
X30511Y330469D01*
X31430Y329549D01*
X32556Y328899D01*
X33812Y328563D01*
X35111D01*
X36367Y328899D01*
X37493Y329549D01*
X38412Y330469D01*
X39062Y331594D01*
X39398Y332850D01*
Y334150D01*
X39062Y335406D01*
X38412Y336531D01*
X37493Y337451D01*
X36367Y338101D01*
X35111Y338437D01*
D02*
G37*
G36*
X299500Y314174D02*
Y312500D01*
X301174D01*
X300865Y313246D01*
X300246Y313865D01*
X299500Y314174D01*
D02*
G37*
G36*
X298500D02*
X297754Y313865D01*
X297135Y313246D01*
X296826Y312500D01*
X298500D01*
Y314174D01*
D02*
G37*
G36*
X272438Y315200D02*
X271562D01*
X270754Y314865D01*
X270135Y314246D01*
X269800Y313438D01*
Y312562D01*
X270135Y311754D01*
X270754Y311135D01*
X271562Y310800D01*
X272438D01*
X273246Y311135D01*
X273865Y311754D01*
X274200Y312562D01*
Y313438D01*
X273865Y314246D01*
X273246Y314865D01*
X272438Y315200D01*
D02*
G37*
G36*
X301174Y311500D02*
X299500D01*
Y309826D01*
X300246Y310135D01*
X300865Y310754D01*
X301174Y311500D01*
D02*
G37*
G36*
X298500D02*
X296826D01*
X297135Y310754D01*
X297754Y310135D01*
X298500Y309826D01*
Y311500D01*
D02*
G37*
G36*
X260438Y312200D02*
X259562D01*
X258754Y311865D01*
X258135Y311246D01*
X257800Y310438D01*
Y309562D01*
X258135Y308754D01*
X258754Y308135D01*
X259562Y307800D01*
X260438D01*
X261246Y308135D01*
X261865Y308754D01*
X262200Y309562D01*
Y310438D01*
X261865Y311246D01*
X261246Y311865D01*
X260438Y312200D01*
D02*
G37*
G36*
X180838Y311400D02*
X179962D01*
X179154Y311065D01*
X178535Y310446D01*
X178200Y309638D01*
Y308762D01*
X178535Y307954D01*
X179154Y307335D01*
X179962Y307000D01*
X180838D01*
X181646Y307335D01*
X182265Y307954D01*
X182600Y308762D01*
Y309638D01*
X182265Y310446D01*
X181646Y311065D01*
X180838Y311400D01*
D02*
G37*
G36*
X167238Y310900D02*
X166362D01*
X165554Y310565D01*
X164935Y309946D01*
X164600Y309138D01*
Y308262D01*
X164935Y307454D01*
X165554Y306835D01*
X166362Y306500D01*
X167238D01*
X168046Y306835D01*
X168665Y307454D01*
X169000Y308262D01*
Y309138D01*
X168665Y309946D01*
X168046Y310565D01*
X167238Y310900D01*
D02*
G37*
G36*
X197438Y310000D02*
X196562D01*
X195754Y309665D01*
X195135Y309046D01*
X194800Y308238D01*
Y307362D01*
X195135Y306554D01*
X195754Y305935D01*
X196562Y305600D01*
X197438D01*
X198246Y305935D01*
X198865Y306554D01*
X199200Y307362D01*
Y308238D01*
X198865Y309046D01*
X198246Y309665D01*
X197438Y310000D01*
D02*
G37*
G36*
X210838Y309781D02*
X209962D01*
X209154Y309446D01*
X208535Y308827D01*
X208200Y308018D01*
Y307143D01*
X208535Y306334D01*
X209154Y305715D01*
X209962Y305381D01*
X210838D01*
X211646Y305715D01*
X212265Y306334D01*
X212600Y307143D01*
Y308018D01*
X212265Y308827D01*
X211646Y309446D01*
X210838Y309781D01*
D02*
G37*
G36*
X245438Y308200D02*
X244562D01*
X243754Y307865D01*
X243135Y307246D01*
X242800Y306438D01*
Y305562D01*
X243135Y304754D01*
X243754Y304135D01*
X244562Y303800D01*
X245438D01*
X246246Y304135D01*
X246865Y304754D01*
X247200Y305562D01*
Y306438D01*
X246865Y307246D01*
X246246Y307865D01*
X245438Y308200D01*
D02*
G37*
G36*
X231438Y304200D02*
X230562D01*
X229754Y303865D01*
X229135Y303246D01*
X228800Y302438D01*
Y301562D01*
X229135Y300754D01*
X229754Y300135D01*
X230562Y299800D01*
X231438D01*
X232246Y300135D01*
X232865Y300754D01*
X233200Y301562D01*
Y302438D01*
X232865Y303246D01*
X232246Y303865D01*
X231438Y304200D01*
D02*
G37*
G36*
X35000Y292074D02*
Y290400D01*
X36674D01*
X36365Y291146D01*
X35746Y291765D01*
X35000Y292074D01*
D02*
G37*
G36*
X34000D02*
X33254Y291765D01*
X32635Y291146D01*
X32326Y290400D01*
X34000D01*
Y292074D01*
D02*
G37*
G36*
X108595Y295200D02*
X107805D01*
X107042Y294996D01*
X106358Y294601D01*
X105799Y294042D01*
X105404Y293358D01*
X105200Y292595D01*
Y291805D01*
X105404Y291042D01*
X105799Y290358D01*
X106358Y289799D01*
X107042Y289404D01*
X107805Y289200D01*
X108595D01*
X109358Y289404D01*
X110042Y289799D01*
X110601Y290358D01*
X110996Y291042D01*
X111200Y291805D01*
Y292595D01*
X110996Y293358D01*
X110601Y294042D01*
X110042Y294601D01*
X109358Y294996D01*
X108595Y295200D01*
D02*
G37*
G36*
X36674Y289400D02*
X35000D01*
Y287726D01*
X35746Y288035D01*
X36365Y288654D01*
X36674Y289400D01*
D02*
G37*
G36*
X34000D02*
X32326D01*
X32635Y288654D01*
X33254Y288035D01*
X34000Y287726D01*
Y289400D01*
D02*
G37*
G36*
X57795Y293100D02*
X57005D01*
X56242Y292896D01*
X55558Y292501D01*
X54999Y291942D01*
X54604Y291258D01*
X54400Y290495D01*
Y289705D01*
X54604Y288942D01*
X54999Y288258D01*
X55558Y287699D01*
X56242Y287304D01*
X57005Y287100D01*
X57795D01*
X58558Y287304D01*
X59242Y287699D01*
X59801Y288258D01*
X60196Y288942D01*
X60400Y289705D01*
Y290495D01*
X60196Y291258D01*
X59801Y291942D01*
X59242Y292501D01*
X58558Y292896D01*
X57795Y293100D01*
D02*
G37*
G36*
X265625Y287574D02*
Y285900D01*
X267299D01*
X266990Y286646D01*
X266371Y287265D01*
X265625Y287574D01*
D02*
G37*
G36*
X264625D02*
X263879Y287265D01*
X263260Y286646D01*
X262951Y285900D01*
X264625D01*
Y287574D01*
D02*
G37*
G36*
X91595Y290400D02*
X90805D01*
X90042Y290196D01*
X89358Y289801D01*
X88799Y289242D01*
X88404Y288558D01*
X88200Y287795D01*
Y287005D01*
X88404Y286242D01*
X88799Y285558D01*
X89358Y284999D01*
X90042Y284604D01*
X90805Y284400D01*
X91595D01*
X92358Y284604D01*
X93042Y284999D01*
X93601Y285558D01*
X93996Y286242D01*
X94200Y287005D01*
Y287795D01*
X93996Y288558D01*
X93601Y289242D01*
X93042Y289801D01*
X92358Y290196D01*
X91595Y290400D01*
D02*
G37*
G36*
X267299Y284900D02*
X265625D01*
Y283226D01*
X266371Y283535D01*
X266990Y284154D01*
X267299Y284900D01*
D02*
G37*
G36*
X264625D02*
X262951D01*
X263260Y284154D01*
X263879Y283535D01*
X264625Y283226D01*
Y284900D01*
D02*
G37*
G36*
X280500Y282174D02*
Y280500D01*
X282174D01*
X281865Y281246D01*
X281246Y281865D01*
X280500Y282174D01*
D02*
G37*
G36*
X279500D02*
X278754Y281865D01*
X278135Y281246D01*
X277826Y280500D01*
X279500D01*
Y282174D01*
D02*
G37*
G36*
X265625D02*
Y280500D01*
X267299D01*
X266990Y281246D01*
X266371Y281865D01*
X265625Y282174D01*
D02*
G37*
G36*
X264625D02*
X263879Y281865D01*
X263260Y281246D01*
X262951Y280500D01*
X264625D01*
Y282174D01*
D02*
G37*
G36*
X359919Y284800D02*
X359700D01*
Y278000D01*
X366500D01*
Y278219D01*
X366219Y279629D01*
X365669Y280958D01*
X364870Y282154D01*
X363854Y283170D01*
X362658Y283969D01*
X361329Y284520D01*
X359919Y284800D01*
D02*
G37*
G36*
X358700D02*
X358481D01*
X357071Y284520D01*
X355742Y283969D01*
X354546Y283170D01*
X353530Y282154D01*
X352731Y280958D01*
X352181Y279629D01*
X351900Y278219D01*
Y278000D01*
X358700D01*
Y284800D01*
D02*
G37*
G36*
X200901Y279573D02*
Y277899D01*
X202575D01*
X202266Y278645D01*
X201647Y279264D01*
X200901Y279573D01*
D02*
G37*
G36*
X199901D02*
X199155Y279264D01*
X198536Y278645D01*
X198227Y277899D01*
X199901D01*
Y279573D01*
D02*
G37*
G36*
X282174Y279500D02*
X280500D01*
Y277826D01*
X281246Y278135D01*
X281865Y278754D01*
X282174Y279500D01*
D02*
G37*
G36*
X279500D02*
X277826D01*
X278135Y278754D01*
X278754Y278135D01*
X279500Y277826D01*
Y279500D01*
D02*
G37*
G36*
X267299D02*
X265625D01*
Y277826D01*
X266371Y278135D01*
X266990Y278754D01*
X267299Y279500D01*
D02*
G37*
G36*
X264625D02*
X262951D01*
X263260Y278754D01*
X263879Y278135D01*
X264625Y277826D01*
Y279500D01*
D02*
G37*
G36*
X130438Y282200D02*
X129562D01*
X128754Y281865D01*
X128135Y281246D01*
X127800Y280438D01*
Y279562D01*
X128135Y278754D01*
X128754Y278135D01*
X129562Y277800D01*
X130438D01*
X131246Y278135D01*
X131865Y278754D01*
X132200Y279562D01*
Y280438D01*
X131865Y281246D01*
X131246Y281865D01*
X130438Y282200D01*
D02*
G37*
G36*
X8300Y277174D02*
Y275500D01*
X9974D01*
X9665Y276246D01*
X9046Y276865D01*
X8300Y277174D01*
D02*
G37*
G36*
X7300D02*
X6554Y276865D01*
X5935Y276246D01*
X5626Y275500D01*
X7300D01*
Y277174D01*
D02*
G37*
G36*
X202575Y276899D02*
X200901D01*
Y275224D01*
X201647Y275534D01*
X202266Y276152D01*
X202575Y276899D01*
D02*
G37*
G36*
X199901D02*
X198227D01*
X198536Y276152D01*
X199155Y275534D01*
X199901Y275224D01*
Y276899D01*
D02*
G37*
G36*
X70395Y280500D02*
X69605D01*
X68842Y280296D01*
X68158Y279901D01*
X67599Y279342D01*
X67204Y278658D01*
X67000Y277895D01*
Y277105D01*
X67204Y276342D01*
X67599Y275658D01*
X68158Y275099D01*
X68842Y274704D01*
X69605Y274500D01*
X70395D01*
X71158Y274704D01*
X71842Y275099D01*
X72401Y275658D01*
X72796Y276342D01*
X73000Y277105D01*
Y277895D01*
X72796Y278658D01*
X72401Y279342D01*
X71842Y279901D01*
X71158Y280296D01*
X70395Y280500D01*
D02*
G37*
G36*
X30500Y275174D02*
Y273500D01*
X32174D01*
X31865Y274246D01*
X31246Y274865D01*
X30500Y275174D01*
D02*
G37*
G36*
X29500D02*
X28754Y274865D01*
X28135Y274246D01*
X27826Y273500D01*
X29500D01*
Y275174D01*
D02*
G37*
G36*
X9974Y274500D02*
X8300D01*
Y272826D01*
X9046Y273135D01*
X9665Y273754D01*
X9974Y274500D01*
D02*
G37*
G36*
X7300D02*
X5626D01*
X5935Y273754D01*
X6554Y273135D01*
X7300Y272826D01*
Y274500D01*
D02*
G37*
G36*
X20342Y277600D02*
X19658D01*
X18996Y277423D01*
X18404Y277080D01*
X17920Y276596D01*
X17577Y276004D01*
X17400Y275342D01*
Y274658D01*
X17577Y273996D01*
X17920Y273404D01*
X18404Y272920D01*
X18996Y272577D01*
X19658Y272400D01*
X20342D01*
X21004Y272577D01*
X21596Y272920D01*
X22081Y273404D01*
X22423Y273996D01*
X22600Y274658D01*
Y275342D01*
X22423Y276004D01*
X22081Y276596D01*
X21596Y277080D01*
X21004Y277423D01*
X20342Y277600D01*
D02*
G37*
G36*
X175200Y272774D02*
Y271100D01*
X176874D01*
X176565Y271846D01*
X175946Y272465D01*
X175200Y272774D01*
D02*
G37*
G36*
X174200D02*
X173454Y272465D01*
X172835Y271846D01*
X172526Y271100D01*
X174200D01*
Y272774D01*
D02*
G37*
G36*
X32174Y272500D02*
X30500D01*
Y270826D01*
X31246Y271135D01*
X31865Y271754D01*
X32174Y272500D01*
D02*
G37*
G36*
X29500D02*
X27826D01*
X28135Y271754D01*
X28754Y271135D01*
X29500Y270826D01*
Y272500D01*
D02*
G37*
G36*
X366500Y277000D02*
X359700D01*
Y270200D01*
X359919D01*
X361329Y270480D01*
X362658Y271031D01*
X363854Y271830D01*
X364870Y272847D01*
X365669Y274042D01*
X366219Y275371D01*
X366500Y276781D01*
Y277000D01*
D02*
G37*
G36*
X358700D02*
X351900D01*
Y276781D01*
X352181Y275371D01*
X352731Y274042D01*
X353530Y272847D01*
X354546Y271830D01*
X355742Y271031D01*
X357071Y270480D01*
X358481Y270200D01*
X358700D01*
Y277000D01*
D02*
G37*
G36*
X151461Y275600D02*
X150539D01*
X149649Y275361D01*
X148851Y274901D01*
X148199Y274249D01*
X147739Y273451D01*
X147500Y272561D01*
Y271639D01*
X147739Y270749D01*
X148199Y269951D01*
X148851Y269299D01*
X149649Y268839D01*
X150539Y268600D01*
X151461D01*
X152351Y268839D01*
X153149Y269299D01*
X153801Y269951D01*
X154262Y270749D01*
X154500Y271639D01*
Y272561D01*
X154262Y273451D01*
X153801Y274249D01*
X153149Y274901D01*
X152351Y275361D01*
X151461Y275600D01*
D02*
G37*
G36*
X176874Y270100D02*
X175200D01*
Y268426D01*
X175946Y268735D01*
X176565Y269354D01*
X176874Y270100D01*
D02*
G37*
G36*
X174200D02*
X172526D01*
X172835Y269354D01*
X173454Y268735D01*
X174200Y268426D01*
Y270100D01*
D02*
G37*
G36*
X127961Y268500D02*
X127039D01*
X126149Y268262D01*
X125351Y267801D01*
X124699Y267149D01*
X124239Y266351D01*
X124000Y265461D01*
Y264539D01*
X124239Y263649D01*
X124699Y262851D01*
X125351Y262199D01*
X126149Y261738D01*
X127039Y261500D01*
X127961D01*
X128851Y261738D01*
X129649Y262199D01*
X130301Y262851D01*
X130762Y263649D01*
X131000Y264539D01*
Y265461D01*
X130762Y266351D01*
X130301Y267149D01*
X129649Y267801D01*
X128851Y268262D01*
X127961Y268500D01*
D02*
G37*
G36*
X253620Y265953D02*
X252580D01*
X251574Y265683D01*
X250673Y265163D01*
X249937Y264427D01*
X249417Y263526D01*
X249147Y262520D01*
Y261480D01*
X249417Y260474D01*
X249937Y259573D01*
X250673Y258837D01*
X251574Y258317D01*
X252580Y258047D01*
X253620D01*
X254626Y258317D01*
X255527Y258837D01*
X256263Y259573D01*
X256783Y260474D01*
X257053Y261480D01*
Y262520D01*
X256783Y263526D01*
X256263Y264427D01*
X255527Y265163D01*
X254626Y265683D01*
X253620Y265953D01*
D02*
G37*
G36*
X15342Y262600D02*
X14658D01*
X13996Y262423D01*
X13404Y262081D01*
X12920Y261596D01*
X12577Y261004D01*
X12400Y260342D01*
Y259658D01*
X12577Y258996D01*
X12920Y258404D01*
X13404Y257920D01*
X13996Y257577D01*
X14658Y257400D01*
X15342D01*
X16004Y257577D01*
X16596Y257920D01*
X17081Y258404D01*
X17423Y258996D01*
X17600Y259658D01*
Y260342D01*
X17423Y261004D01*
X17081Y261596D01*
X16596Y262081D01*
X16004Y262423D01*
X15342Y262600D01*
D02*
G37*
G36*
X187395Y261500D02*
X186605D01*
X185842Y261296D01*
X185158Y260901D01*
X184599Y260342D01*
X184204Y259658D01*
X184000Y258895D01*
Y258105D01*
X184204Y257342D01*
X184599Y256658D01*
X185158Y256099D01*
X185842Y255704D01*
X186605Y255500D01*
X187395D01*
X188158Y255704D01*
X188842Y256099D01*
X189401Y256658D01*
X189796Y257342D01*
X190000Y258105D01*
Y258895D01*
X189796Y259658D01*
X189401Y260342D01*
X188842Y260901D01*
X188158Y261296D01*
X187395Y261500D01*
D02*
G37*
G36*
X140498Y261679D02*
X133006D01*
Y254813D01*
X132506Y254605D01*
X132246Y254865D01*
X131500Y255174D01*
Y253000D01*
Y250826D01*
X132246Y251135D01*
X132696Y251585D01*
X132822Y251711D01*
X133226Y251521D01*
X133233Y251401D01*
X133210Y251313D01*
X133008Y250559D01*
X136752D01*
X140496D01*
X140243Y251505D01*
X139750Y252359D01*
X139052Y253057D01*
X138198Y253550D01*
X137686Y253687D01*
X137752Y254187D01*
X140498D01*
Y261679D01*
D02*
G37*
G36*
X130500Y255174D02*
X129754Y254865D01*
X129135Y254246D01*
X128826Y253500D01*
X130500D01*
Y255174D01*
D02*
G37*
G36*
Y252500D02*
X128826D01*
X129135Y251754D01*
X129754Y251135D01*
X130500Y250826D01*
Y252500D01*
D02*
G37*
G36*
X239395Y252000D02*
X238605D01*
X237842Y251796D01*
X237158Y251401D01*
X236599Y250842D01*
X236204Y250158D01*
X236000Y249395D01*
Y248605D01*
X236204Y247842D01*
X236599Y247158D01*
X237158Y246599D01*
X237842Y246204D01*
X238605Y246000D01*
X239395D01*
X240158Y246204D01*
X240842Y246599D01*
X241401Y247158D01*
X241796Y247842D01*
X242000Y248605D01*
Y249395D01*
X241796Y250158D01*
X241401Y250842D01*
X240842Y251401D01*
X240158Y251796D01*
X239395Y252000D01*
D02*
G37*
G36*
X161000Y248372D02*
Y245900D01*
X163472D01*
X163296Y246558D01*
X162901Y247242D01*
X162342Y247801D01*
X161658Y248196D01*
X161000Y248372D01*
D02*
G37*
G36*
X160000D02*
X159342Y248196D01*
X158658Y247801D01*
X158099Y247242D01*
X157704Y246558D01*
X157528Y245900D01*
X160000D01*
Y248372D01*
D02*
G37*
G36*
X204500Y246174D02*
Y244500D01*
X206174D01*
X205865Y245246D01*
X205246Y245865D01*
X204500Y246174D01*
D02*
G37*
G36*
X203500D02*
X202754Y245865D01*
X202135Y245246D01*
X201826Y244500D01*
X203500D01*
Y246174D01*
D02*
G37*
G36*
X163472Y244900D02*
X161000D01*
Y242428D01*
X161658Y242604D01*
X162342Y242999D01*
X162901Y243558D01*
X163296Y244242D01*
X163472Y244900D01*
D02*
G37*
G36*
X160000D02*
X157528D01*
X157704Y244242D01*
X158099Y243558D01*
X158658Y242999D01*
X159342Y242604D01*
X160000Y242428D01*
Y244900D01*
D02*
G37*
G36*
X206174Y243500D02*
X204500D01*
Y241826D01*
X205246Y242135D01*
X205865Y242754D01*
X206174Y243500D01*
D02*
G37*
G36*
X203500D02*
X201826D01*
X202135Y242754D01*
X202754Y242135D01*
X203500Y241826D01*
Y243500D01*
D02*
G37*
G36*
X190500Y242174D02*
Y240500D01*
X192174D01*
X191865Y241246D01*
X191246Y241865D01*
X190500Y242174D01*
D02*
G37*
G36*
X189500D02*
X188754Y241865D01*
X188135Y241246D01*
X187826Y240500D01*
X189500D01*
Y242174D01*
D02*
G37*
G36*
X152993Y257742D02*
X152007D01*
X151054Y257487D01*
X150200Y256994D01*
X149502Y256296D01*
X149009Y255442D01*
X148754Y254489D01*
Y253503D01*
X149009Y252550D01*
X149502Y251696D01*
X150200Y250998D01*
X151054Y250505D01*
X151753Y250318D01*
Y249800D01*
X151054Y249613D01*
X150200Y249120D01*
X149502Y248422D01*
X149009Y247568D01*
X148754Y246615D01*
Y245629D01*
X149009Y244676D01*
X149502Y243822D01*
X150200Y243125D01*
X151054Y242631D01*
X151753Y242444D01*
Y241926D01*
X151054Y241739D01*
X150200Y241246D01*
X149502Y240548D01*
X149009Y239694D01*
X148756Y238748D01*
X152500D01*
X156244D01*
X155991Y239694D01*
X155498Y240548D01*
X154800Y241246D01*
X153946Y241739D01*
X153246Y241926D01*
Y242444D01*
X153946Y242631D01*
X154800Y243125D01*
X155498Y243822D01*
X155991Y244676D01*
X156246Y245629D01*
Y246615D01*
X155991Y247568D01*
X155498Y248422D01*
X154800Y249120D01*
X153946Y249613D01*
X153246Y249800D01*
Y250318D01*
X153946Y250505D01*
X154800Y250998D01*
X155498Y251696D01*
X155991Y252550D01*
X156246Y253503D01*
Y254489D01*
X155991Y255442D01*
X155498Y256296D01*
X154800Y256994D01*
X153946Y257487D01*
X152993Y257742D01*
D02*
G37*
G36*
X192174Y239500D02*
X190500D01*
Y237826D01*
X191246Y238135D01*
X191865Y238754D01*
X192174Y239500D01*
D02*
G37*
G36*
X189500D02*
X187826D01*
X188135Y238754D01*
X188754Y238135D01*
X189500Y237826D01*
Y239500D01*
D02*
G37*
G36*
X42895Y243000D02*
X42105D01*
X41342Y242796D01*
X40658Y242401D01*
X40099Y241842D01*
X39704Y241158D01*
X39500Y240395D01*
Y239605D01*
X39704Y238842D01*
X40099Y238158D01*
X40658Y237599D01*
X41342Y237204D01*
X42105Y237000D01*
X42895D01*
X43658Y237204D01*
X44342Y237599D01*
X44901Y238158D01*
X45296Y238842D01*
X45500Y239605D01*
Y240395D01*
X45296Y241158D01*
X44901Y241842D01*
X44342Y242401D01*
X43658Y242796D01*
X42895Y243000D01*
D02*
G37*
G36*
X86500Y231174D02*
Y229500D01*
X88174D01*
X87865Y230246D01*
X87246Y230865D01*
X86500Y231174D01*
D02*
G37*
G36*
X85500D02*
X84754Y230865D01*
X84135Y230246D01*
X83826Y229500D01*
X85500D01*
Y231174D01*
D02*
G37*
G36*
X88174Y228500D02*
X86500D01*
Y226826D01*
X87246Y227135D01*
X87865Y227754D01*
X88174Y228500D01*
D02*
G37*
G36*
X85500D02*
X83826D01*
X84135Y227754D01*
X84754Y227135D01*
X85500Y226826D01*
Y228500D01*
D02*
G37*
G36*
X130500Y227174D02*
Y225500D01*
X132174D01*
X131865Y226246D01*
X131246Y226865D01*
X130500Y227174D01*
D02*
G37*
G36*
X129500D02*
X128754Y226865D01*
X128135Y226246D01*
X127826Y225500D01*
X129500D01*
Y227174D01*
D02*
G37*
G36*
X23500Y225174D02*
Y223500D01*
X25174D01*
X24865Y224246D01*
X24246Y224865D01*
X23500Y225174D01*
D02*
G37*
G36*
X22500D02*
X21754Y224865D01*
X21135Y224246D01*
X20826Y223500D01*
X22500D01*
Y225174D01*
D02*
G37*
G36*
X132174Y224500D02*
X130500D01*
Y222826D01*
X131246Y223135D01*
X131865Y223754D01*
X132174Y224500D01*
D02*
G37*
G36*
X129500D02*
X127826D01*
X128135Y223754D01*
X128754Y223135D01*
X129500Y222826D01*
Y224500D01*
D02*
G37*
G36*
X176738Y226300D02*
X175862D01*
X175054Y225965D01*
X174435Y225346D01*
X174100Y224538D01*
Y223662D01*
X174435Y222854D01*
X175054Y222235D01*
X175862Y221900D01*
X176738D01*
X177546Y222235D01*
X178165Y222854D01*
X178500Y223662D01*
Y224538D01*
X178165Y225346D01*
X177546Y225965D01*
X176738Y226300D01*
D02*
G37*
G36*
X25174Y222500D02*
X23500D01*
Y220826D01*
X24246Y221135D01*
X24865Y221754D01*
X25174Y222500D01*
D02*
G37*
G36*
X22500D02*
X20826D01*
X21135Y221754D01*
X21754Y221135D01*
X22500Y220826D01*
Y222500D01*
D02*
G37*
G36*
X45395Y220500D02*
X44605D01*
X43842Y220296D01*
X43158Y219901D01*
X42599Y219342D01*
X42204Y218658D01*
X42000Y217895D01*
Y217105D01*
X42204Y216342D01*
X42599Y215658D01*
X43158Y215099D01*
X43842Y214704D01*
X44605Y214500D01*
X45395D01*
X46158Y214704D01*
X46842Y215099D01*
X47401Y215658D01*
X47796Y216342D01*
X48000Y217105D01*
Y217895D01*
X47796Y218658D01*
X47401Y219342D01*
X46842Y219901D01*
X46158Y220296D01*
X45395Y220500D01*
D02*
G37*
G36*
X318000Y212174D02*
Y210500D01*
X319674D01*
X319365Y211246D01*
X318746Y211865D01*
X318000Y212174D01*
D02*
G37*
G36*
X317000D02*
X316254Y211865D01*
X315635Y211246D01*
X315326Y210500D01*
X317000D01*
Y212174D01*
D02*
G37*
G36*
X319674Y209500D02*
X318000D01*
Y207826D01*
X318746Y208135D01*
X319365Y208754D01*
X319674Y209500D01*
D02*
G37*
G36*
X317000D02*
X315326D01*
X315635Y208754D01*
X316254Y208135D01*
X317000Y207826D01*
Y209500D01*
D02*
G37*
G36*
X156244Y237748D02*
X152500D01*
X148756D01*
X149009Y236802D01*
X149502Y235948D01*
X150200Y235250D01*
X151054Y234757D01*
X151753Y234570D01*
Y234052D01*
X151054Y233865D01*
X150200Y233372D01*
X149502Y232674D01*
X149009Y231820D01*
X148754Y230867D01*
Y229881D01*
X149009Y228928D01*
X149502Y228074D01*
X150200Y227376D01*
X151054Y226883D01*
X151753Y226696D01*
Y226178D01*
X151054Y225991D01*
X150200Y225498D01*
X149502Y224800D01*
X149009Y223946D01*
X148754Y222993D01*
Y222007D01*
X149009Y221054D01*
X149502Y220200D01*
X150200Y219502D01*
X151054Y219009D01*
X151753Y218822D01*
Y218304D01*
X151054Y218117D01*
X150200Y217624D01*
X149502Y216926D01*
X149009Y216072D01*
X148754Y215119D01*
Y214133D01*
X149009Y213180D01*
X149502Y212326D01*
X150200Y211628D01*
X151054Y211135D01*
X151753Y210948D01*
Y210430D01*
X151054Y210243D01*
X150200Y209750D01*
X149502Y209052D01*
X149009Y208198D01*
X148756Y207252D01*
X152500D01*
X156244D01*
X155991Y208198D01*
X155498Y209052D01*
X154800Y209750D01*
X153946Y210243D01*
X153246Y210430D01*
Y210948D01*
X153946Y211135D01*
X154800Y211628D01*
X155498Y212326D01*
X155991Y213180D01*
X156246Y214133D01*
Y215119D01*
X155991Y216072D01*
X155498Y216926D01*
X154800Y217624D01*
X153946Y218117D01*
X153246Y218304D01*
Y218822D01*
X153946Y219009D01*
X154800Y219502D01*
X155498Y220200D01*
X155991Y221054D01*
X156246Y222007D01*
Y222993D01*
X155991Y223946D01*
X155498Y224800D01*
X154800Y225498D01*
X153946Y225991D01*
X153246Y226178D01*
Y226696D01*
X153946Y226883D01*
X154800Y227376D01*
X155498Y228074D01*
X155991Y228928D01*
X156246Y229881D01*
Y230867D01*
X155991Y231820D01*
X155498Y232674D01*
X154800Y233372D01*
X153946Y233865D01*
X153246Y234052D01*
Y234570D01*
X153946Y234757D01*
X154800Y235250D01*
X155498Y235948D01*
X155991Y236802D01*
X156244Y237748D01*
D02*
G37*
G36*
X17895Y213000D02*
X17105D01*
X16342Y212796D01*
X15658Y212401D01*
X15099Y211842D01*
X14704Y211158D01*
X14500Y210395D01*
Y209605D01*
X14704Y208842D01*
X15099Y208158D01*
X15658Y207599D01*
X16342Y207204D01*
X17105Y207000D01*
X17895D01*
X18658Y207204D01*
X19342Y207599D01*
X19901Y208158D01*
X20296Y208842D01*
X20500Y209605D01*
Y210395D01*
X20296Y211158D01*
X19901Y211842D01*
X19342Y212401D01*
X18658Y212796D01*
X17895Y213000D01*
D02*
G37*
G36*
X243000Y207174D02*
Y205500D01*
X244674D01*
X244365Y206246D01*
X243746Y206865D01*
X243000Y207174D01*
D02*
G37*
G36*
X242000D02*
X241254Y206865D01*
X240635Y206246D01*
X240326Y205500D01*
X242000D01*
Y207174D01*
D02*
G37*
G36*
X244674Y204500D02*
X243000D01*
Y202826D01*
X243746Y203135D01*
X244365Y203754D01*
X244674Y204500D01*
D02*
G37*
G36*
X242000D02*
X240326D01*
X240635Y203754D01*
X241254Y203135D01*
X242000Y202826D01*
Y204500D01*
D02*
G37*
G36*
X145400Y204072D02*
Y201600D01*
X147872D01*
X147696Y202258D01*
X147301Y202942D01*
X146742Y203501D01*
X146058Y203896D01*
X145400Y204072D01*
D02*
G37*
G36*
X144400D02*
X143742Y203896D01*
X143058Y203501D01*
X142499Y202942D01*
X142104Y202258D01*
X141928Y201600D01*
X144400D01*
Y204072D01*
D02*
G37*
G36*
X98500Y203174D02*
Y201500D01*
X100174D01*
X99865Y202246D01*
X99246Y202865D01*
X98500Y203174D01*
D02*
G37*
G36*
X97500D02*
X96754Y202865D01*
X96135Y202246D01*
X95826Y201500D01*
X97500D01*
Y203174D01*
D02*
G37*
G36*
X318326Y202890D02*
X318295D01*
Y199358D01*
X321827D01*
Y199389D01*
X321552Y200414D01*
X321021Y201334D01*
X320271Y202084D01*
X319351Y202615D01*
X318326Y202890D01*
D02*
G37*
G36*
X317295D02*
X317265D01*
X316239Y202615D01*
X315320Y202084D01*
X314569Y201334D01*
X314038Y200414D01*
X313764Y199389D01*
Y199358D01*
X317295D01*
Y202890D01*
D02*
G37*
G36*
X100174Y200500D02*
X98500D01*
Y198826D01*
X99246Y199135D01*
X99865Y199754D01*
X100174Y200500D01*
D02*
G37*
G36*
X97500D02*
X95826D01*
X96135Y199754D01*
X96754Y199135D01*
X97500Y198826D01*
Y200500D01*
D02*
G37*
G36*
X147872Y200600D02*
X145400D01*
Y198128D01*
X146058Y198304D01*
X146742Y198699D01*
X147301Y199258D01*
X147696Y199942D01*
X147872Y200600D01*
D02*
G37*
G36*
X144400D02*
X141928D01*
X142104Y199942D01*
X142499Y199258D01*
X143058Y198699D01*
X143742Y198304D01*
X144400Y198128D01*
Y200600D01*
D02*
G37*
G36*
X30500Y198174D02*
Y196500D01*
X32174D01*
X31865Y197246D01*
X31246Y197865D01*
X30500Y198174D01*
D02*
G37*
G36*
X29500D02*
X28754Y197865D01*
X28135Y197246D01*
X27826Y196500D01*
X29500D01*
Y198174D01*
D02*
G37*
G36*
X321827Y198358D02*
X318295D01*
Y194827D01*
X318326D01*
X319351Y195101D01*
X320271Y195632D01*
X321021Y196383D01*
X321552Y197302D01*
X321827Y198328D01*
Y198358D01*
D02*
G37*
G36*
X317295D02*
X313764D01*
Y198328D01*
X314038Y197302D01*
X314569Y196383D01*
X315320Y195632D01*
X316239Y195101D01*
X317265Y194827D01*
X317295D01*
Y198358D01*
D02*
G37*
G36*
X296236Y202890D02*
X288173D01*
Y194827D01*
X296236D01*
Y202890D01*
D02*
G37*
G36*
X32174Y195500D02*
X30500D01*
Y193826D01*
X31246Y194135D01*
X31865Y194754D01*
X32174Y195500D01*
D02*
G37*
G36*
X29500D02*
X27826D01*
X28135Y194754D01*
X28754Y194135D01*
X29500Y193826D01*
Y195500D01*
D02*
G37*
G36*
X128895Y198000D02*
X128105D01*
X127342Y197796D01*
X126658Y197401D01*
X126099Y196842D01*
X125704Y196158D01*
X125500Y195395D01*
Y194605D01*
X125704Y193842D01*
X126099Y193158D01*
X126658Y192599D01*
X127342Y192204D01*
X128105Y192000D01*
X128895D01*
X129658Y192204D01*
X130342Y192599D01*
X130901Y193158D01*
X131296Y193842D01*
X131500Y194605D01*
Y195395D01*
X131296Y196158D01*
X130901Y196842D01*
X130342Y197401D01*
X129658Y197796D01*
X128895Y198000D01*
D02*
G37*
G36*
X268500Y193174D02*
Y191500D01*
X270174D01*
X269865Y192246D01*
X269246Y192865D01*
X268500Y193174D01*
D02*
G37*
G36*
X267500D02*
X266754Y192865D01*
X266135Y192246D01*
X265826Y191500D01*
X267500D01*
Y193174D01*
D02*
G37*
G36*
X260500D02*
Y191500D01*
X262174D01*
X261865Y192246D01*
X261246Y192865D01*
X260500Y193174D01*
D02*
G37*
G36*
X259500D02*
X258754Y192865D01*
X258135Y192246D01*
X257826Y191500D01*
X259500D01*
Y193174D01*
D02*
G37*
G36*
X251500D02*
Y191500D01*
X253174D01*
X252865Y192246D01*
X252246Y192865D01*
X251500Y193174D01*
D02*
G37*
G36*
X250500D02*
X249754Y192865D01*
X249135Y192246D01*
X248826Y191500D01*
X250500D01*
Y193174D01*
D02*
G37*
G36*
X206438Y194300D02*
X205562D01*
X204754Y193965D01*
X204135Y193346D01*
X203800Y192538D01*
Y191662D01*
X204135Y190854D01*
X204754Y190235D01*
X205562Y189900D01*
X206438D01*
X207246Y190235D01*
X207865Y190854D01*
X208200Y191662D01*
Y192538D01*
X207865Y193346D01*
X207246Y193965D01*
X206438Y194300D01*
D02*
G37*
G36*
X270174Y190500D02*
X268500D01*
Y188826D01*
X269246Y189135D01*
X269865Y189754D01*
X270174Y190500D01*
D02*
G37*
G36*
X267500D02*
X265826D01*
X266135Y189754D01*
X266754Y189135D01*
X267500Y188826D01*
Y190500D01*
D02*
G37*
G36*
X262174D02*
X260500D01*
Y188826D01*
X261246Y189135D01*
X261865Y189754D01*
X262174Y190500D01*
D02*
G37*
G36*
X259500D02*
X257826D01*
X258135Y189754D01*
X258754Y189135D01*
X259500Y188826D01*
Y190500D01*
D02*
G37*
G36*
X253174D02*
X251500D01*
Y188826D01*
X252246Y189135D01*
X252865Y189754D01*
X253174Y190500D01*
D02*
G37*
G36*
X250500D02*
X248826D01*
X249135Y189754D01*
X249754Y189135D01*
X250500Y188826D01*
Y190500D01*
D02*
G37*
G36*
X105395Y193000D02*
X104605D01*
X103842Y192796D01*
X103158Y192401D01*
X102599Y191842D01*
X102204Y191158D01*
X102000Y190395D01*
Y189605D01*
X102204Y188842D01*
X102599Y188158D01*
X103158Y187599D01*
X103842Y187204D01*
X104605Y187000D01*
X105395D01*
X106158Y187204D01*
X106842Y187599D01*
X107401Y188158D01*
X107796Y188842D01*
X108000Y189605D01*
Y190395D01*
X107796Y191158D01*
X107401Y191842D01*
X106842Y192401D01*
X106158Y192796D01*
X105395Y193000D01*
D02*
G37*
G36*
X281238Y189200D02*
X280362D01*
X279554Y188865D01*
X278935Y188246D01*
X278600Y187438D01*
Y186562D01*
X278935Y185754D01*
X279554Y185135D01*
X280362Y184800D01*
X281238D01*
X282046Y185135D01*
X282665Y185754D01*
X283000Y186562D01*
Y187438D01*
X282665Y188246D01*
X282046Y188865D01*
X281238Y189200D01*
D02*
G37*
G36*
X210838Y189100D02*
X209962D01*
X209154Y188765D01*
X208535Y188146D01*
X208200Y187338D01*
Y186462D01*
X208535Y185654D01*
X209154Y185035D01*
X209962Y184700D01*
X210838D01*
X211646Y185035D01*
X212265Y185654D01*
X212600Y186462D01*
Y187338D01*
X212265Y188146D01*
X211646Y188765D01*
X210838Y189100D01*
D02*
G37*
G36*
X201642Y189800D02*
X200958D01*
X200296Y189623D01*
X199704Y189280D01*
X199220Y188796D01*
X198877Y188204D01*
X198700Y187542D01*
Y186858D01*
X198877Y186196D01*
X199220Y185604D01*
X199704Y185119D01*
X200296Y184777D01*
X200958Y184600D01*
X201642D01*
X202304Y184777D01*
X202896Y185119D01*
X203380Y185604D01*
X203723Y186196D01*
X203900Y186858D01*
Y187542D01*
X203723Y188204D01*
X203380Y188796D01*
X202896Y189280D01*
X202304Y189623D01*
X201642Y189800D01*
D02*
G37*
G36*
X238000Y185945D02*
Y184271D01*
X239674D01*
X239365Y185017D01*
X238746Y185636D01*
X238000Y185945D01*
D02*
G37*
G36*
X237000D02*
X236254Y185636D01*
X235635Y185017D01*
X235326Y184271D01*
X237000D01*
Y185945D01*
D02*
G37*
G36*
X95500Y184174D02*
Y182500D01*
X97174D01*
X96865Y183246D01*
X96246Y183865D01*
X95500Y184174D01*
D02*
G37*
G36*
X94500D02*
X93754Y183865D01*
X93135Y183246D01*
X92826Y182500D01*
X94500D01*
Y184174D01*
D02*
G37*
G36*
X184063Y186444D02*
X183187D01*
X182379Y186109D01*
X181760Y185490D01*
X181425Y184681D01*
Y183806D01*
X181760Y182998D01*
X182379Y182379D01*
X183187Y182044D01*
X184063D01*
X184871Y182379D01*
X185490Y182998D01*
X185825Y183806D01*
Y184681D01*
X185490Y185490D01*
X184871Y186109D01*
X184063Y186444D01*
D02*
G37*
G36*
X239674Y183271D02*
X238000D01*
Y181597D01*
X238746Y181906D01*
X239365Y182525D01*
X239674Y183271D01*
D02*
G37*
G36*
X237000D02*
X235326D01*
X235635Y182525D01*
X236254Y181906D01*
X237000Y181597D01*
Y183271D01*
D02*
G37*
G36*
X245500Y183174D02*
Y181500D01*
X247174D01*
X246865Y182246D01*
X246246Y182865D01*
X245500Y183174D01*
D02*
G37*
G36*
X244500D02*
X243754Y182865D01*
X243135Y182246D01*
X242826Y181500D01*
X244500D01*
Y183174D01*
D02*
G37*
G36*
X274500Y182174D02*
Y180500D01*
X276174D01*
X275865Y181246D01*
X275246Y181865D01*
X274500Y182174D01*
D02*
G37*
G36*
X273500D02*
X272754Y181865D01*
X272135Y181246D01*
X271826Y180500D01*
X273500D01*
Y182174D01*
D02*
G37*
G36*
X97174Y181500D02*
X95500D01*
Y179826D01*
X96246Y180135D01*
X96865Y180754D01*
X97174Y181500D01*
D02*
G37*
G36*
X94500D02*
X92826D01*
X93135Y180754D01*
X93754Y180135D01*
X94500Y179826D01*
Y181500D01*
D02*
G37*
G36*
X189438Y184200D02*
X188562D01*
X187754Y183865D01*
X187135Y183246D01*
X186800Y182438D01*
Y181562D01*
X187135Y180754D01*
X187754Y180135D01*
X188562Y179800D01*
X189438D01*
X190246Y180135D01*
X190865Y180754D01*
X191200Y181562D01*
Y182438D01*
X190865Y183246D01*
X190246Y183865D01*
X189438Y184200D01*
D02*
G37*
G36*
X217938Y184000D02*
X217062D01*
X216254Y183665D01*
X215635Y183046D01*
X215300Y182238D01*
Y181362D01*
X215635Y180554D01*
X216254Y179935D01*
X217062Y179600D01*
X217938D01*
X218746Y179935D01*
X219365Y180554D01*
X219700Y181362D01*
Y182238D01*
X219365Y183046D01*
X218746Y183665D01*
X217938Y184000D01*
D02*
G37*
G36*
X58500Y181174D02*
Y179500D01*
X60174D01*
X59865Y180246D01*
X59246Y180865D01*
X58500Y181174D01*
D02*
G37*
G36*
X57500D02*
X56754Y180865D01*
X56135Y180246D01*
X55826Y179500D01*
X57500D01*
Y181174D01*
D02*
G37*
G36*
X177438Y183300D02*
X176562D01*
X175754Y182965D01*
X175135Y182346D01*
X174800Y181538D01*
Y180662D01*
X175135Y179854D01*
X175754Y179235D01*
X176562Y178900D01*
X177438D01*
X178246Y179235D01*
X178865Y179854D01*
X179200Y180662D01*
Y181538D01*
X178865Y182346D01*
X178246Y182965D01*
X177438Y183300D01*
D02*
G37*
G36*
X247174Y180500D02*
X245500D01*
Y178826D01*
X246246Y179135D01*
X246865Y179754D01*
X247174Y180500D01*
D02*
G37*
G36*
X244500D02*
X242826D01*
X243135Y179754D01*
X243754Y179135D01*
X244500Y178826D01*
Y180500D01*
D02*
G37*
G36*
X276174Y179500D02*
X274500D01*
Y177826D01*
X275246Y178135D01*
X275865Y178754D01*
X276174Y179500D01*
D02*
G37*
G36*
X273500D02*
X271826D01*
X272135Y178754D01*
X272754Y178135D01*
X273500Y177826D01*
Y179500D01*
D02*
G37*
G36*
X318326Y185173D02*
X317265D01*
X316239Y184898D01*
X315320Y184368D01*
X314569Y183617D01*
X314038Y182698D01*
X313764Y181673D01*
Y180611D01*
X314038Y179586D01*
X314569Y178666D01*
X315320Y177916D01*
X316239Y177385D01*
X317265Y177110D01*
X318326D01*
X319351Y177385D01*
X320271Y177916D01*
X321021Y178666D01*
X321552Y179586D01*
X321827Y180611D01*
Y181673D01*
X321552Y182698D01*
X321021Y183617D01*
X320271Y184368D01*
X319351Y184898D01*
X318326Y185173D01*
D02*
G37*
G36*
X292736D02*
X291674D01*
X290649Y184898D01*
X289729Y184368D01*
X288979Y183617D01*
X288448Y182698D01*
X288173Y181673D01*
Y180611D01*
X288448Y179586D01*
X288979Y178666D01*
X289729Y177916D01*
X290649Y177385D01*
X291674Y177110D01*
X292736D01*
X293761Y177385D01*
X294680Y177916D01*
X295431Y178666D01*
X295961Y179586D01*
X296236Y180611D01*
Y181673D01*
X295961Y182698D01*
X295431Y183617D01*
X294680Y184368D01*
X293761Y184898D01*
X292736Y185173D01*
D02*
G37*
G36*
X25395Y183000D02*
X24605D01*
X23842Y182796D01*
X23158Y182401D01*
X22599Y181842D01*
X22204Y181158D01*
X22000Y180395D01*
Y179605D01*
X22204Y178842D01*
X22599Y178158D01*
X23158Y177599D01*
X23842Y177204D01*
X24605Y177000D01*
X25395D01*
X26158Y177204D01*
X26842Y177599D01*
X27401Y178158D01*
X27796Y178842D01*
X28000Y179605D01*
Y180395D01*
X27796Y181158D01*
X27401Y181842D01*
X26842Y182401D01*
X26158Y182796D01*
X25395Y183000D01*
D02*
G37*
G36*
X60174Y178500D02*
X58500D01*
Y176826D01*
X59246Y177135D01*
X59865Y177754D01*
X60174Y178500D01*
D02*
G37*
G36*
X57500D02*
X55826D01*
X56135Y177754D01*
X56754Y177135D01*
X57500Y176826D01*
Y178500D01*
D02*
G37*
G36*
X225338Y177075D02*
X224462D01*
X223654Y176740D01*
X223035Y176121D01*
X222884Y175758D01*
X222343D01*
X222265Y175946D01*
X221646Y176565D01*
X220838Y176900D01*
X219962D01*
X219154Y176565D01*
X218535Y175946D01*
X218200Y175138D01*
Y174262D01*
X218535Y173454D01*
X219154Y172835D01*
X219962Y172500D01*
X220838D01*
X221646Y172835D01*
X222265Y173454D01*
X222416Y173817D01*
X222957D01*
X223035Y173629D01*
X223654Y173010D01*
X224462Y172675D01*
X225338D01*
X226146Y173010D01*
X226765Y173629D01*
X227100Y174437D01*
Y175313D01*
X226765Y176121D01*
X226146Y176740D01*
X225338Y177075D01*
D02*
G37*
G36*
X120461Y178500D02*
X119539D01*
X118649Y178261D01*
X117851Y177801D01*
X117199Y177149D01*
X116738Y176351D01*
X116500Y175461D01*
Y174539D01*
X116738Y173649D01*
X117199Y172851D01*
X117851Y172199D01*
X118649Y171739D01*
X119539Y171500D01*
X120461D01*
X121351Y171739D01*
X122149Y172199D01*
X122801Y172851D01*
X123261Y173649D01*
X123500Y174539D01*
Y175461D01*
X123261Y176351D01*
X122801Y177149D01*
X122149Y177801D01*
X121351Y178261D01*
X120461Y178500D01*
D02*
G37*
G36*
X303500Y172174D02*
Y170500D01*
X305174D01*
X304865Y171246D01*
X304246Y171865D01*
X303500Y172174D01*
D02*
G37*
G36*
X302500D02*
X301754Y171865D01*
X301135Y171246D01*
X300826Y170500D01*
X302500D01*
Y172174D01*
D02*
G37*
G36*
X63500D02*
Y170500D01*
X65174D01*
X64865Y171246D01*
X64246Y171865D01*
X63500Y172174D01*
D02*
G37*
G36*
X62500D02*
X61754Y171865D01*
X61135Y171246D01*
X60826Y170500D01*
X62500D01*
Y172174D01*
D02*
G37*
G36*
X65174Y169500D02*
X63500D01*
Y167826D01*
X64246Y168135D01*
X64865Y168754D01*
X65174Y169500D01*
D02*
G37*
G36*
X62500D02*
X60826D01*
X61135Y168754D01*
X61754Y168135D01*
X62500Y167826D01*
Y169500D01*
D02*
G37*
G36*
X305174D02*
X303500D01*
Y167826D01*
X304246Y168135D01*
X304865Y168754D01*
X305174Y169500D01*
D02*
G37*
G36*
X302500D02*
X300826D01*
X301135Y168754D01*
X301754Y168135D01*
X302500Y167826D01*
Y169500D01*
D02*
G37*
G36*
X217938Y169700D02*
X217062D01*
X216254Y169365D01*
X215635Y168746D01*
X215300Y167938D01*
Y167062D01*
X215635Y166254D01*
X216254Y165635D01*
X217062Y165300D01*
X217938D01*
X218746Y165635D01*
X219365Y166254D01*
X219700Y167062D01*
Y167938D01*
X219365Y168746D01*
X218746Y169365D01*
X217938Y169700D01*
D02*
G37*
G36*
X317895Y170500D02*
X317105D01*
X316342Y170296D01*
X315658Y169901D01*
X315099Y169342D01*
X314704Y168658D01*
X314500Y167895D01*
Y167105D01*
X314704Y166342D01*
X315099Y165658D01*
X315658Y165099D01*
X316342Y164704D01*
X317105Y164500D01*
X317895D01*
X318658Y164704D01*
X319342Y165099D01*
X319901Y165658D01*
X320296Y166342D01*
X320500Y167105D01*
Y167895D01*
X320296Y168658D01*
X319901Y169342D01*
X319342Y169901D01*
X318658Y170296D01*
X317895Y170500D01*
D02*
G37*
G36*
X84500Y166174D02*
Y164500D01*
X86174D01*
X85865Y165246D01*
X85246Y165865D01*
X84500Y166174D01*
D02*
G37*
G36*
X83500D02*
X82754Y165865D01*
X82135Y165246D01*
X81826Y164500D01*
X83500D01*
Y166174D01*
D02*
G37*
G36*
X240638Y168700D02*
X239762D01*
X238954Y168365D01*
X238335Y167746D01*
X238000Y166938D01*
Y166062D01*
X238335Y165254D01*
X238954Y164635D01*
X239762Y164300D01*
X240638D01*
X241446Y164635D01*
X242065Y165254D01*
X242400Y166062D01*
Y166938D01*
X242065Y167746D01*
X241446Y168365D01*
X240638Y168700D01*
D02*
G37*
G36*
X156244Y206252D02*
X152500D01*
X148756D01*
X149009Y205306D01*
X149502Y204452D01*
X150200Y203754D01*
X151054Y203261D01*
X151753Y203074D01*
Y202556D01*
X151054Y202369D01*
X150200Y201875D01*
X149502Y201178D01*
X149009Y200324D01*
X148754Y199371D01*
Y198385D01*
X149009Y197432D01*
X149502Y196578D01*
X150200Y195880D01*
X151054Y195387D01*
X151753Y195200D01*
Y194682D01*
X151054Y194495D01*
X150200Y194001D01*
X149502Y193304D01*
X149009Y192450D01*
X148754Y191497D01*
Y190511D01*
X149009Y189558D01*
X149502Y188704D01*
X150200Y188006D01*
X151054Y187513D01*
X151753Y187326D01*
Y186808D01*
X151054Y186621D01*
X150200Y186127D01*
X149502Y185430D01*
X149009Y184576D01*
X148754Y183623D01*
Y182637D01*
X149009Y181684D01*
X149502Y180830D01*
X150200Y180132D01*
X151054Y179639D01*
X151753Y179452D01*
Y178934D01*
X151054Y178747D01*
X150200Y178253D01*
X149502Y177556D01*
X149009Y176702D01*
X148754Y175749D01*
Y174763D01*
X149009Y173810D01*
X149502Y172956D01*
X150200Y172258D01*
X151054Y171765D01*
X151753Y171578D01*
Y171060D01*
X151054Y170873D01*
X150200Y170379D01*
X149502Y169682D01*
X149009Y168828D01*
X148754Y167875D01*
Y166889D01*
X149009Y165936D01*
X149502Y165082D01*
X150200Y164384D01*
X151054Y163891D01*
X152007Y163636D01*
X152993D01*
X153946Y163891D01*
X154800Y164384D01*
X155498Y165082D01*
X155991Y165936D01*
X156246Y166889D01*
Y167875D01*
X155991Y168828D01*
X155498Y169682D01*
X154800Y170379D01*
X153946Y170873D01*
X153246Y171060D01*
Y171578D01*
X153946Y171765D01*
X154800Y172258D01*
X155498Y172956D01*
X155991Y173810D01*
X156246Y174763D01*
Y175749D01*
X155991Y176702D01*
X155498Y177556D01*
X154800Y178253D01*
X153946Y178747D01*
X153246Y178934D01*
Y179452D01*
X153946Y179639D01*
X154800Y180132D01*
X155498Y180830D01*
X155991Y181684D01*
X156246Y182637D01*
Y183623D01*
X155991Y184576D01*
X155498Y185430D01*
X154800Y186127D01*
X153946Y186621D01*
X153246Y186808D01*
Y187326D01*
X153946Y187513D01*
X154800Y188006D01*
X155498Y188704D01*
X155991Y189558D01*
X156246Y190511D01*
Y191497D01*
X155991Y192450D01*
X155498Y193304D01*
X154800Y194001D01*
X153946Y194495D01*
X153246Y194682D01*
Y195200D01*
X153946Y195387D01*
X154800Y195880D01*
X155498Y196578D01*
X155991Y197432D01*
X156246Y198385D01*
Y199371D01*
X155991Y200324D01*
X155498Y201178D01*
X154800Y201875D01*
X153946Y202369D01*
X153246Y202556D01*
Y203074D01*
X153946Y203261D01*
X154800Y203754D01*
X155498Y204452D01*
X155991Y205306D01*
X156244Y206252D01*
D02*
G37*
G36*
X303500Y165174D02*
Y163500D01*
X305174D01*
X304865Y164246D01*
X304246Y164865D01*
X303500Y165174D01*
D02*
G37*
G36*
X302500D02*
X301754Y164865D01*
X301135Y164246D01*
X300826Y163500D01*
X302500D01*
Y165174D01*
D02*
G37*
G36*
X15219Y169800D02*
X15000D01*
Y163000D01*
X21800D01*
Y163219D01*
X21520Y164629D01*
X20969Y165958D01*
X20170Y167154D01*
X19153Y168170D01*
X17958Y168969D01*
X16629Y169519D01*
X15219Y169800D01*
D02*
G37*
G36*
X14000D02*
X13781D01*
X12371Y169519D01*
X11042Y168969D01*
X9847Y168170D01*
X8830Y167154D01*
X8031Y165958D01*
X7480Y164629D01*
X7200Y163219D01*
Y163000D01*
X14000D01*
Y169800D01*
D02*
G37*
G36*
X203438Y167200D02*
X202562D01*
X201754Y166865D01*
X201135Y166246D01*
X200800Y165438D01*
Y164562D01*
X201135Y163754D01*
X201754Y163135D01*
X202562Y162800D01*
X203438D01*
X204246Y163135D01*
X204865Y163754D01*
X205200Y164562D01*
Y165438D01*
X204865Y166246D01*
X204246Y166865D01*
X203438Y167200D01*
D02*
G37*
G36*
X274500Y163241D02*
Y162000D01*
X275741D01*
X275526Y162520D01*
X275020Y163026D01*
X274500Y163241D01*
D02*
G37*
G36*
X273500D02*
X272980Y163026D01*
X272474Y162520D01*
X272259Y162000D01*
X273500D01*
Y163241D01*
D02*
G37*
G36*
X86174Y163500D02*
X84500D01*
Y161826D01*
X85246Y162135D01*
X85865Y162754D01*
X86174Y163500D01*
D02*
G37*
G36*
X83500D02*
X81826D01*
X82135Y162754D01*
X82754Y162135D01*
X83500Y161826D01*
Y163500D01*
D02*
G37*
G36*
X305174Y162500D02*
X303500D01*
Y160826D01*
X304246Y161135D01*
X304865Y161754D01*
X305174Y162500D01*
D02*
G37*
G36*
X302500D02*
X300826D01*
X301135Y161754D01*
X301754Y161135D01*
X302500Y160826D01*
Y162500D01*
D02*
G37*
G36*
X35500Y162174D02*
Y160500D01*
X37174D01*
X36865Y161246D01*
X36246Y161865D01*
X35500Y162174D01*
D02*
G37*
G36*
X34500D02*
X33754Y161865D01*
X33135Y161246D01*
X32826Y160500D01*
X34500D01*
Y162174D01*
D02*
G37*
G36*
X186538Y164600D02*
X185662D01*
X184854Y164265D01*
X184235Y163646D01*
X183900Y162838D01*
Y161962D01*
X184235Y161154D01*
X184854Y160535D01*
X185662Y160200D01*
X186538D01*
X187346Y160535D01*
X187965Y161154D01*
X188300Y161962D01*
Y162838D01*
X187965Y163646D01*
X187346Y164265D01*
X186538Y164600D01*
D02*
G37*
G36*
X275741Y161000D02*
X274500D01*
Y159759D01*
X275020Y159974D01*
X275526Y160480D01*
X275741Y161000D01*
D02*
G37*
G36*
X273500D02*
X272259D01*
X272474Y160480D01*
X272980Y159974D01*
X273500Y159759D01*
Y161000D01*
D02*
G37*
G36*
X140496Y249559D02*
X136752D01*
X133008D01*
X133261Y248613D01*
X133754Y247759D01*
X134452Y247061D01*
X135306Y246568D01*
X136005Y246381D01*
Y245863D01*
X135306Y245676D01*
X134452Y245183D01*
X133754Y244485D01*
X133261Y243631D01*
X133006Y242678D01*
Y241692D01*
X133261Y240739D01*
X133754Y239885D01*
X134452Y239187D01*
X135306Y238694D01*
X136005Y238507D01*
Y237989D01*
X135306Y237802D01*
X134452Y237309D01*
X133754Y236611D01*
X133261Y235757D01*
X133006Y234804D01*
Y233818D01*
X133261Y232865D01*
X133754Y232011D01*
X134452Y231313D01*
X135306Y230820D01*
X136005Y230633D01*
Y230115D01*
X135306Y229928D01*
X134452Y229435D01*
X133754Y228737D01*
X133261Y227883D01*
X133006Y226930D01*
Y225944D01*
X133261Y224991D01*
X133754Y224137D01*
X134452Y223439D01*
X135306Y222946D01*
X136005Y222759D01*
Y222241D01*
X135306Y222054D01*
X134452Y221561D01*
X133754Y220863D01*
X133261Y220009D01*
X133006Y219056D01*
Y218070D01*
X133261Y217117D01*
X133754Y216263D01*
X134452Y215565D01*
X135306Y215072D01*
X136005Y214885D01*
Y214367D01*
X135306Y214180D01*
X134452Y213687D01*
X133754Y212989D01*
X133261Y212135D01*
X133006Y211182D01*
Y210196D01*
X133261Y209243D01*
X133754Y208389D01*
X134452Y207691D01*
X135306Y207198D01*
X136005Y207011D01*
Y206493D01*
X135306Y206306D01*
X134452Y205813D01*
X133754Y205115D01*
X133261Y204261D01*
X133006Y203308D01*
Y202322D01*
X133261Y201369D01*
X133754Y200515D01*
X134452Y199817D01*
X135306Y199324D01*
X136005Y199137D01*
Y198619D01*
X135306Y198432D01*
X134452Y197939D01*
X133754Y197241D01*
X133261Y196387D01*
X133006Y195434D01*
Y194448D01*
X133261Y193495D01*
X133754Y192641D01*
X134452Y191943D01*
X135306Y191450D01*
X136005Y191263D01*
Y190745D01*
X135306Y190558D01*
X134452Y190065D01*
X133754Y189367D01*
X133261Y188513D01*
X133006Y187560D01*
Y186574D01*
X133261Y185621D01*
X133754Y184767D01*
X134452Y184069D01*
X135306Y183576D01*
X136005Y183389D01*
Y182871D01*
X135306Y182684D01*
X134452Y182191D01*
X133754Y181493D01*
X133261Y180639D01*
X133006Y179686D01*
Y178700D01*
X133261Y177747D01*
X133754Y176893D01*
X134452Y176195D01*
X135306Y175702D01*
X136005Y175515D01*
Y174997D01*
X135306Y174810D01*
X134452Y174317D01*
X133754Y173619D01*
X133261Y172765D01*
X133006Y171812D01*
Y170826D01*
X133261Y169873D01*
X133754Y169019D01*
X134452Y168321D01*
X135306Y167828D01*
X136005Y167641D01*
Y167123D01*
X135306Y166936D01*
X134452Y166443D01*
X133754Y165745D01*
X133261Y164891D01*
X133006Y163938D01*
Y162952D01*
X133261Y161999D01*
X133754Y161145D01*
X134452Y160447D01*
X135306Y159954D01*
X136259Y159699D01*
X137245D01*
X138198Y159954D01*
X139052Y160447D01*
X139750Y161145D01*
X140243Y161999D01*
X140498Y162952D01*
Y163938D01*
X140243Y164891D01*
X139750Y165745D01*
X139052Y166443D01*
X138198Y166936D01*
X137498Y167123D01*
Y167641D01*
X138198Y167828D01*
X139052Y168321D01*
X139750Y169019D01*
X140243Y169873D01*
X140498Y170826D01*
Y171812D01*
X140243Y172765D01*
X139750Y173619D01*
X139052Y174317D01*
X138198Y174810D01*
X137498Y174997D01*
Y175515D01*
X138198Y175702D01*
X139052Y176195D01*
X139750Y176893D01*
X140243Y177747D01*
X140498Y178700D01*
Y179686D01*
X140243Y180639D01*
X139750Y181493D01*
X139052Y182191D01*
X138198Y182684D01*
X137498Y182871D01*
Y183389D01*
X138198Y183576D01*
X139052Y184069D01*
X139750Y184767D01*
X140243Y185621D01*
X140498Y186574D01*
Y187560D01*
X140243Y188513D01*
X139750Y189367D01*
X139052Y190065D01*
X138198Y190558D01*
X137498Y190745D01*
Y191263D01*
X138198Y191450D01*
X139052Y191943D01*
X139750Y192641D01*
X140243Y193495D01*
X140498Y194448D01*
Y195434D01*
X140243Y196387D01*
X139750Y197241D01*
X139052Y197939D01*
X138198Y198432D01*
X137498Y198619D01*
Y199137D01*
X138198Y199324D01*
X139052Y199817D01*
X139750Y200515D01*
X140243Y201369D01*
X140498Y202322D01*
Y203308D01*
X140243Y204261D01*
X139750Y205115D01*
X139052Y205813D01*
X138198Y206306D01*
X137498Y206493D01*
Y207011D01*
X138198Y207198D01*
X139052Y207691D01*
X139750Y208389D01*
X140243Y209243D01*
X140498Y210196D01*
Y211182D01*
X140243Y212135D01*
X139750Y212989D01*
X139052Y213687D01*
X138198Y214180D01*
X137498Y214367D01*
Y214885D01*
X138198Y215072D01*
X139052Y215565D01*
X139750Y216263D01*
X140243Y217117D01*
X140498Y218070D01*
Y219056D01*
X140243Y220009D01*
X139750Y220863D01*
X139052Y221561D01*
X138198Y222054D01*
X137498Y222241D01*
Y222759D01*
X138198Y222946D01*
X139052Y223439D01*
X139750Y224137D01*
X140243Y224991D01*
X140498Y225944D01*
Y226930D01*
X140243Y227883D01*
X139750Y228737D01*
X139052Y229435D01*
X138198Y229928D01*
X137498Y230115D01*
Y230633D01*
X138198Y230820D01*
X139052Y231313D01*
X139750Y232011D01*
X140243Y232865D01*
X140498Y233818D01*
Y234804D01*
X140243Y235757D01*
X139750Y236611D01*
X139052Y237309D01*
X138198Y237802D01*
X137498Y237989D01*
Y238507D01*
X138198Y238694D01*
X139052Y239187D01*
X139750Y239885D01*
X140243Y240739D01*
X140498Y241692D01*
Y242678D01*
X140243Y243631D01*
X139750Y244485D01*
X139052Y245183D01*
X138198Y245676D01*
X137498Y245863D01*
Y246381D01*
X138198Y246568D01*
X139052Y247061D01*
X139750Y247759D01*
X140243Y248613D01*
X140496Y249559D01*
D02*
G37*
G36*
X221725Y160366D02*
Y159125D01*
X222966D01*
X222751Y159645D01*
X222245Y160151D01*
X221725Y160366D01*
D02*
G37*
G36*
X220725D02*
X220205Y160151D01*
X219699Y159645D01*
X219484Y159125D01*
X220725D01*
Y160366D01*
D02*
G37*
G36*
X227938Y169700D02*
X227062D01*
X226254Y169365D01*
X225635Y168746D01*
X225300Y167938D01*
Y167062D01*
X225635Y166254D01*
X226254Y165635D01*
X226780Y165417D01*
Y164876D01*
X226754Y164865D01*
X226135Y164246D01*
X225800Y163438D01*
Y162562D01*
X226135Y161754D01*
X226754Y161135D01*
X227562Y160800D01*
X228267D01*
X228635Y160382D01*
X228600Y160298D01*
Y159502D01*
X228905Y158767D01*
X229467Y158204D01*
X230202Y157900D01*
X230998D01*
X231733Y158204D01*
X232295Y158767D01*
X232600Y159502D01*
Y160298D01*
X232295Y161033D01*
X231733Y161595D01*
X230998Y161900D01*
X230467D01*
X230118Y162365D01*
X230200Y162562D01*
Y163438D01*
X229865Y164246D01*
X229246Y164865D01*
X228720Y165083D01*
Y165624D01*
X228746Y165635D01*
X229365Y166254D01*
X229700Y167062D01*
Y167938D01*
X229365Y168746D01*
X228746Y169365D01*
X227938Y169700D01*
D02*
G37*
G36*
X209638Y162300D02*
X208762D01*
X207954Y161965D01*
X207335Y161346D01*
X207000Y160538D01*
Y159662D01*
X207335Y158854D01*
X207954Y158235D01*
X208762Y157900D01*
X209638D01*
X210446Y158235D01*
X211065Y158854D01*
X211400Y159662D01*
Y160538D01*
X211065Y161346D01*
X210446Y161965D01*
X209638Y162300D01*
D02*
G37*
G36*
X37174Y159500D02*
X35500D01*
Y157826D01*
X36246Y158135D01*
X36865Y158754D01*
X37174Y159500D01*
D02*
G37*
G36*
X34500D02*
X32826D01*
X33135Y158754D01*
X33754Y158135D01*
X34500Y157826D01*
Y159500D01*
D02*
G37*
G36*
X203438Y162200D02*
X202562D01*
X201754Y161865D01*
X201135Y161246D01*
X200800Y160438D01*
Y159562D01*
X201135Y158754D01*
X201754Y158135D01*
X202562Y157800D01*
X203438D01*
X204246Y158135D01*
X204865Y158754D01*
X205200Y159562D01*
Y160438D01*
X204865Y161246D01*
X204246Y161865D01*
X203438Y162200D01*
D02*
G37*
G36*
X317500Y159174D02*
Y157500D01*
X319174D01*
X318865Y158246D01*
X318246Y158865D01*
X317500Y159174D01*
D02*
G37*
G36*
X316500D02*
X315754Y158865D01*
X315135Y158246D01*
X314826Y157500D01*
X316500D01*
Y159174D01*
D02*
G37*
G36*
X149138Y161400D02*
X148262D01*
X147454Y161065D01*
X146835Y160446D01*
X146500Y159638D01*
Y158762D01*
X146835Y157954D01*
X147454Y157335D01*
X148262Y157000D01*
X149138D01*
X149946Y157335D01*
X150565Y157954D01*
X150900Y158762D01*
Y159638D01*
X150565Y160446D01*
X149946Y161065D01*
X149138Y161400D01*
D02*
G37*
G36*
X222966Y158125D02*
X221725D01*
Y156884D01*
X222245Y157099D01*
X222751Y157605D01*
X222966Y158125D01*
D02*
G37*
G36*
X220725D02*
X219484D01*
X219699Y157605D01*
X220205Y157099D01*
X220725Y156884D01*
Y158125D01*
D02*
G37*
G36*
X285342Y161600D02*
X284658D01*
X283996Y161423D01*
X283404Y161081D01*
X282920Y160596D01*
X282577Y160004D01*
X282400Y159342D01*
Y158658D01*
X282577Y157996D01*
X282920Y157404D01*
X283404Y156920D01*
X283996Y156577D01*
X284658Y156400D01*
X285342D01*
X286004Y156577D01*
X286596Y156920D01*
X287081Y157404D01*
X287423Y157996D01*
X287600Y158658D01*
Y159342D01*
X287423Y160004D01*
X287081Y160596D01*
X286596Y161081D01*
X286004Y161423D01*
X285342Y161600D01*
D02*
G37*
G36*
X265400Y156941D02*
Y155700D01*
X266641D01*
X266426Y156220D01*
X265920Y156726D01*
X265400Y156941D01*
D02*
G37*
G36*
X264400D02*
X263880Y156726D01*
X263374Y156220D01*
X263159Y155700D01*
X264400D01*
Y156941D01*
D02*
G37*
G36*
X21800Y162000D02*
X15000D01*
Y155200D01*
X15219D01*
X16629Y155481D01*
X17958Y156031D01*
X19153Y156830D01*
X20170Y157846D01*
X20969Y159042D01*
X21520Y160371D01*
X21800Y161781D01*
Y162000D01*
D02*
G37*
G36*
X14000D02*
X7200D01*
Y161781D01*
X7480Y160371D01*
X8031Y159042D01*
X8830Y157846D01*
X9847Y156830D01*
X11042Y156031D01*
X12371Y155481D01*
X13781Y155200D01*
X14000D01*
Y162000D01*
D02*
G37*
G36*
X319174Y156500D02*
X317500D01*
Y154826D01*
X318246Y155135D01*
X318865Y155754D01*
X319174Y156500D01*
D02*
G37*
G36*
X316500D02*
X314826D01*
X315135Y155754D01*
X315754Y155135D01*
X316500Y154826D01*
Y156500D01*
D02*
G37*
G36*
X266641Y154700D02*
X265400D01*
Y153459D01*
X265920Y153674D01*
X266426Y154180D01*
X266641Y154700D01*
D02*
G37*
G36*
X264400D02*
X263159D01*
X263374Y154180D01*
X263880Y153674D01*
X264400Y153459D01*
Y154700D01*
D02*
G37*
G36*
X253458Y157000D02*
X252742D01*
X252080Y156726D01*
X251574Y156220D01*
X251300Y155558D01*
Y154842D01*
X251574Y154180D01*
X252080Y153674D01*
X252742Y153400D01*
X253458D01*
X254120Y153674D01*
X254626Y154180D01*
X254900Y154842D01*
Y155558D01*
X254626Y156220D01*
X254120Y156726D01*
X253458Y157000D01*
D02*
G37*
G36*
X242658Y156900D02*
X241942D01*
X241280Y156626D01*
X240774Y156120D01*
X240500Y155458D01*
Y154742D01*
X240774Y154080D01*
X241280Y153574D01*
X241942Y153300D01*
X242658D01*
X243320Y153574D01*
X243826Y154080D01*
X244100Y154742D01*
Y155458D01*
X243826Y156120D01*
X243320Y156626D01*
X242658Y156900D01*
D02*
G37*
G36*
X302500Y154174D02*
Y152500D01*
X304174D01*
X303865Y153246D01*
X303246Y153865D01*
X302500Y154174D01*
D02*
G37*
G36*
X301500D02*
X300754Y153865D01*
X300135Y153246D01*
X299826Y152500D01*
X301500D01*
Y154174D01*
D02*
G37*
G36*
X232638Y154600D02*
X231762D01*
X230954Y154265D01*
X230335Y153646D01*
X230000Y152838D01*
Y151962D01*
X230335Y151154D01*
X230954Y150535D01*
X231762Y150200D01*
X232638D01*
X233446Y150535D01*
X234065Y151154D01*
X234400Y151962D01*
Y152838D01*
X234065Y153646D01*
X233446Y154265D01*
X232638Y154600D01*
D02*
G37*
G36*
X304174Y151500D02*
X302500D01*
Y149826D01*
X303246Y150135D01*
X303865Y150754D01*
X304174Y151500D01*
D02*
G37*
G36*
X301500D02*
X299826D01*
X300135Y150754D01*
X300754Y150135D01*
X301500Y149826D01*
Y151500D01*
D02*
G37*
G36*
X210038Y154200D02*
X209162D01*
X208354Y153865D01*
X207735Y153246D01*
X207400Y152438D01*
Y151562D01*
X207735Y150754D01*
X208354Y150135D01*
X209162Y149800D01*
X210038D01*
X210846Y150135D01*
X211465Y150754D01*
X211800Y151562D01*
Y152438D01*
X211465Y153246D01*
X210846Y153865D01*
X210038Y154200D01*
D02*
G37*
G36*
X247838Y153700D02*
X246962D01*
X246154Y153365D01*
X245535Y152746D01*
X245200Y151938D01*
Y151062D01*
X245535Y150254D01*
X246154Y149635D01*
X246962Y149300D01*
X247838D01*
X248646Y149635D01*
X249265Y150254D01*
X249600Y151062D01*
Y151938D01*
X249265Y152746D01*
X248646Y153365D01*
X247838Y153700D01*
D02*
G37*
G36*
X317500Y150174D02*
Y148500D01*
X319174D01*
X318865Y149246D01*
X318246Y149865D01*
X317500Y150174D01*
D02*
G37*
G36*
X316500D02*
X315754Y149865D01*
X315135Y149246D01*
X314826Y148500D01*
X316500D01*
Y150174D01*
D02*
G37*
G36*
X263622Y148723D02*
X262833D01*
X262103Y148421D01*
X261545Y147863D01*
X261333Y147350D01*
X260791D01*
X260579Y147863D01*
X260021Y148421D01*
X259291Y148723D01*
X258502D01*
X257773Y148421D01*
X257214Y147863D01*
X257002Y147350D01*
X256461D01*
X256248Y147863D01*
X255690Y148421D01*
X254961Y148723D01*
X254171D01*
X253442Y148421D01*
X252884Y147863D01*
X252671Y147350D01*
X252130D01*
X251917Y147863D01*
X251359Y148421D01*
X250630Y148723D01*
X249840D01*
X249111Y148421D01*
X248553Y147863D01*
X248341Y147350D01*
X247799D01*
X247587Y147863D01*
X247028Y148421D01*
X246299Y148723D01*
X245510D01*
X244780Y148421D01*
X244222Y147863D01*
X244010Y147350D01*
X243469D01*
X243256Y147863D01*
X242698Y148421D01*
X241968Y148723D01*
X241179D01*
X240450Y148421D01*
X239892Y147863D01*
X239590Y147134D01*
Y146344D01*
X239892Y145615D01*
X240450Y145057D01*
X240963Y144844D01*
Y144303D01*
X240450Y144091D01*
X239892Y143532D01*
X239590Y142803D01*
Y142014D01*
X239892Y141285D01*
X240450Y140726D01*
X240963Y140514D01*
Y139972D01*
X240450Y139760D01*
X239892Y139202D01*
X239590Y138472D01*
Y137683D01*
X239892Y136954D01*
X240450Y136396D01*
X240963Y136183D01*
Y135642D01*
X240450Y135429D01*
X239892Y134871D01*
X239590Y134142D01*
Y133352D01*
X239892Y132623D01*
X240450Y132065D01*
X240963Y131852D01*
Y131311D01*
X240450Y131098D01*
X239892Y130540D01*
X239590Y129811D01*
Y129022D01*
X239892Y128292D01*
X240450Y127734D01*
X240963Y127522D01*
Y126980D01*
X240450Y126768D01*
X239892Y126210D01*
X239590Y125480D01*
Y124691D01*
X239892Y123962D01*
X240450Y123404D01*
X240963Y123191D01*
Y122650D01*
X240450Y122437D01*
X239892Y121879D01*
X239590Y121150D01*
Y120360D01*
X239892Y119631D01*
X240450Y119073D01*
X241179Y118771D01*
X241968D01*
X242698Y119073D01*
X243256Y119631D01*
X243469Y120144D01*
X244010D01*
X244222Y119631D01*
X244780Y119073D01*
X245510Y118771D01*
X246299D01*
X247028Y119073D01*
X247587Y119631D01*
X247799Y120144D01*
X248341D01*
X248553Y119631D01*
X249111Y119073D01*
X249840Y118771D01*
X250630D01*
X251359Y119073D01*
X251917Y119631D01*
X252130Y120144D01*
X252671D01*
X252884Y119631D01*
X253442Y119073D01*
X254171Y118771D01*
X254961D01*
X255690Y119073D01*
X256248Y119631D01*
X256461Y120144D01*
X257002D01*
X257214Y119631D01*
X257773Y119073D01*
X258502Y118771D01*
X259291D01*
X260021Y119073D01*
X260579Y119631D01*
X260791Y120144D01*
X261333D01*
X261545Y119631D01*
X262103Y119073D01*
X262833Y118771D01*
X263622D01*
X264351Y119073D01*
X264910Y119631D01*
X265212Y120360D01*
Y121150D01*
X264910Y121879D01*
X264351Y122437D01*
X263838Y122650D01*
Y123191D01*
X264351Y123404D01*
X264910Y123962D01*
X265212Y124691D01*
Y125480D01*
X264910Y126210D01*
X264351Y126768D01*
X263838Y126980D01*
Y127522D01*
X264351Y127734D01*
X264910Y128292D01*
X265212Y129022D01*
Y129811D01*
X264910Y130540D01*
X264351Y131098D01*
X263838Y131311D01*
Y131852D01*
X264351Y132065D01*
X264910Y132623D01*
X265212Y133352D01*
Y134142D01*
X264910Y134871D01*
X264351Y135429D01*
X263838Y135642D01*
Y136183D01*
X264351Y136396D01*
X264910Y136954D01*
X265212Y137683D01*
Y138472D01*
X264910Y139202D01*
X264351Y139760D01*
X263838Y139972D01*
Y140514D01*
X264351Y140726D01*
X264910Y141285D01*
X265212Y142014D01*
Y142803D01*
X264910Y143532D01*
X264351Y144091D01*
X263838Y144303D01*
Y144844D01*
X264351Y145057D01*
X264910Y145615D01*
X265212Y146344D01*
Y147134D01*
X264910Y147863D01*
X264351Y148421D01*
X263622Y148723D01*
D02*
G37*
G36*
X319174Y147500D02*
X317500D01*
Y145826D01*
X318246Y146135D01*
X318865Y146754D01*
X319174Y147500D01*
D02*
G37*
G36*
X316500D02*
X314826D01*
X315135Y146754D01*
X315754Y146135D01*
X316500Y145826D01*
Y147500D01*
D02*
G37*
G36*
X190500Y147174D02*
Y145500D01*
X192174D01*
X191865Y146246D01*
X191246Y146865D01*
X190500Y147174D01*
D02*
G37*
G36*
X189500D02*
X188754Y146865D01*
X188135Y146246D01*
X187826Y145500D01*
X189500D01*
Y147174D01*
D02*
G37*
G36*
X214038Y148700D02*
X213162D01*
X212354Y148365D01*
X211735Y147746D01*
X211400Y146938D01*
Y146062D01*
X211735Y145254D01*
X212354Y144635D01*
X213162Y144300D01*
X214038D01*
X214846Y144635D01*
X215465Y145254D01*
X215800Y146062D01*
Y146938D01*
X215465Y147746D01*
X214846Y148365D01*
X214038Y148700D01*
D02*
G37*
G36*
X192174Y144500D02*
X190500D01*
Y142826D01*
X191246Y143135D01*
X191865Y143754D01*
X192174Y144500D01*
D02*
G37*
G36*
X189500D02*
X187826D01*
X188135Y143754D01*
X188754Y143135D01*
X189500Y142826D01*
Y144500D01*
D02*
G37*
G36*
X153238Y147000D02*
X152362D01*
X151554Y146665D01*
X150935Y146046D01*
X150600Y145238D01*
Y144362D01*
X150935Y143554D01*
X151554Y142935D01*
X152362Y142600D01*
X153238D01*
X154046Y142935D01*
X154665Y143554D01*
X155000Y144362D01*
Y145238D01*
X154665Y146046D01*
X154046Y146665D01*
X153238Y147000D01*
D02*
G37*
G36*
X218938Y150100D02*
X218062D01*
X217254Y149765D01*
X216635Y149146D01*
X216300Y148338D01*
Y147462D01*
X216635Y146654D01*
X217254Y146035D01*
X217369Y145987D01*
X217486Y145397D01*
X217135Y145046D01*
X216800Y144238D01*
Y143362D01*
X217135Y142554D01*
X217754Y141935D01*
X218562Y141600D01*
X219438D01*
X220246Y141935D01*
X220865Y142554D01*
X221200Y143362D01*
Y144238D01*
X220865Y145046D01*
X220246Y145665D01*
X220131Y145713D01*
X220014Y146302D01*
X220365Y146654D01*
X220700Y147462D01*
Y148338D01*
X220365Y149146D01*
X219746Y149765D01*
X218938Y150100D01*
D02*
G37*
G36*
X319500Y143174D02*
Y141500D01*
X321174D01*
X320865Y142246D01*
X320246Y142865D01*
X319500Y143174D01*
D02*
G37*
G36*
X318500D02*
X317754Y142865D01*
X317135Y142246D01*
X316826Y141500D01*
X318500D01*
Y143174D01*
D02*
G37*
G36*
X300500Y142174D02*
Y140500D01*
X302174D01*
X301865Y141246D01*
X301246Y141865D01*
X300500Y142174D01*
D02*
G37*
G36*
X299500D02*
X298754Y141865D01*
X298135Y141246D01*
X297826Y140500D01*
X299500D01*
Y142174D01*
D02*
G37*
G36*
X133000D02*
Y140500D01*
X134674D01*
X134365Y141246D01*
X133746Y141865D01*
X133000Y142174D01*
D02*
G37*
G36*
X132000D02*
X131254Y141865D01*
X130635Y141246D01*
X130326Y140500D01*
X132000D01*
Y142174D01*
D02*
G37*
G36*
X321174Y140500D02*
X319500D01*
Y138826D01*
X320246Y139135D01*
X320865Y139754D01*
X321174Y140500D01*
D02*
G37*
G36*
X318500D02*
X316826D01*
X317135Y139754D01*
X317754Y139135D01*
X318500Y138826D01*
Y140500D01*
D02*
G37*
G36*
X285300Y139941D02*
Y138700D01*
X286541D01*
X286326Y139220D01*
X285820Y139726D01*
X285300Y139941D01*
D02*
G37*
G36*
X284300D02*
X283780Y139726D01*
X283274Y139220D01*
X283059Y138700D01*
X284300D01*
Y139941D01*
D02*
G37*
G36*
X174500Y140174D02*
Y138500D01*
X176174D01*
X175865Y139246D01*
X175246Y139865D01*
X174500Y140174D01*
D02*
G37*
G36*
X173500D02*
X172754Y139865D01*
X172135Y139246D01*
X171826Y138500D01*
X173500D01*
Y140174D01*
D02*
G37*
G36*
X198538Y142600D02*
X197662D01*
X196854Y142265D01*
X196235Y141646D01*
X195900Y140838D01*
Y139962D01*
X196235Y139154D01*
X196854Y138535D01*
X197662Y138200D01*
X198538D01*
X199346Y138535D01*
X199965Y139154D01*
X200300Y139962D01*
Y140838D01*
X199965Y141646D01*
X199346Y142265D01*
X198538Y142600D01*
D02*
G37*
G36*
X203000Y139674D02*
Y138000D01*
X204674D01*
X204365Y138746D01*
X203746Y139365D01*
X203000Y139674D01*
D02*
G37*
G36*
X202000D02*
X201254Y139365D01*
X200635Y138746D01*
X200326Y138000D01*
X202000D01*
Y139674D01*
D02*
G37*
G36*
X302174Y139500D02*
X300500D01*
Y137826D01*
X301246Y138135D01*
X301865Y138754D01*
X302174Y139500D01*
D02*
G37*
G36*
X299500D02*
X297826D01*
X298135Y138754D01*
X298754Y138135D01*
X299500Y137826D01*
Y139500D01*
D02*
G37*
G36*
X134674D02*
X133000D01*
Y137826D01*
X133746Y138135D01*
X134365Y138754D01*
X134674Y139500D01*
D02*
G37*
G36*
X132000D02*
X130326D01*
X130635Y138754D01*
X131254Y138135D01*
X132000Y137826D01*
Y139500D01*
D02*
G37*
G36*
X286541Y137700D02*
X285300D01*
Y136459D01*
X285820Y136674D01*
X286326Y137180D01*
X286541Y137700D01*
D02*
G37*
G36*
X284300D02*
X283059D01*
X283274Y137180D01*
X283780Y136674D01*
X284300Y136459D01*
Y137700D01*
D02*
G37*
G36*
X176174Y137500D02*
X174500D01*
Y135826D01*
X175246Y136135D01*
X175865Y136754D01*
X176174Y137500D01*
D02*
G37*
G36*
X173500D02*
X171826D01*
X172135Y136754D01*
X172754Y136135D01*
X173500Y135826D01*
Y137500D01*
D02*
G37*
G36*
X233000Y137174D02*
Y135500D01*
X234674D01*
X234365Y136246D01*
X233746Y136865D01*
X233000Y137174D01*
D02*
G37*
G36*
X232000D02*
X231254Y136865D01*
X230635Y136246D01*
X230326Y135500D01*
X232000D01*
Y137174D01*
D02*
G37*
G36*
X204674Y137000D02*
X203000D01*
Y135326D01*
X203746Y135635D01*
X204365Y136254D01*
X204674Y137000D01*
D02*
G37*
G36*
X202000D02*
X200326D01*
X200635Y136254D01*
X201254Y135635D01*
X202000Y135326D01*
Y137000D01*
D02*
G37*
G36*
X102938Y138700D02*
X102062D01*
X101254Y138365D01*
X100635Y137746D01*
X100300Y136938D01*
Y136062D01*
X100635Y135254D01*
X101254Y134635D01*
X102062Y134300D01*
X102938D01*
X103746Y134635D01*
X104365Y135254D01*
X104700Y136062D01*
Y136938D01*
X104365Y137746D01*
X103746Y138365D01*
X102938Y138700D01*
D02*
G37*
G36*
X306500Y134674D02*
Y133000D01*
X308174D01*
X307865Y133746D01*
X307246Y134365D01*
X306500Y134674D01*
D02*
G37*
G36*
X305500D02*
X304754Y134365D01*
X304135Y133746D01*
X303826Y133000D01*
X305500D01*
Y134674D01*
D02*
G37*
G36*
X203000D02*
Y133000D01*
X204674D01*
X204365Y133746D01*
X203746Y134365D01*
X203000Y134674D01*
D02*
G37*
G36*
X202000D02*
X201254Y134365D01*
X200635Y133746D01*
X200326Y133000D01*
X202000D01*
Y134674D01*
D02*
G37*
G36*
X234674Y134500D02*
X233000D01*
Y132826D01*
X233746Y133135D01*
X234365Y133754D01*
X234674Y134500D01*
D02*
G37*
G36*
X232000D02*
X230326D01*
X230635Y133754D01*
X231254Y133135D01*
X232000Y132826D01*
Y134500D01*
D02*
G37*
G36*
X320696Y137886D02*
X319906D01*
X319143Y137681D01*
X318459Y137286D01*
X317901Y136728D01*
X317506Y136044D01*
X317301Y135281D01*
Y134491D01*
X317506Y133728D01*
X317901Y133044D01*
X318459Y132485D01*
X319143Y132090D01*
X319906Y131886D01*
X320696D01*
X321459Y132090D01*
X322143Y132485D01*
X322702Y133044D01*
X323097Y133728D01*
X323301Y134491D01*
Y135281D01*
X323097Y136044D01*
X322702Y136728D01*
X322143Y137286D01*
X321459Y137681D01*
X320696Y137886D01*
D02*
G37*
G36*
X155438Y135900D02*
X154562D01*
X153754Y135565D01*
X153135Y134946D01*
X152800Y134138D01*
Y133262D01*
X153135Y132454D01*
X153754Y131835D01*
X154562Y131500D01*
X155438D01*
X156246Y131835D01*
X156865Y132454D01*
X157200Y133262D01*
Y134138D01*
X156865Y134946D01*
X156246Y135565D01*
X155438Y135900D01*
D02*
G37*
G36*
X132500Y133174D02*
Y131500D01*
X134174D01*
X133865Y132246D01*
X133246Y132865D01*
X132500Y133174D01*
D02*
G37*
G36*
X131500D02*
X130754Y132865D01*
X130135Y132246D01*
X129826Y131500D01*
X131500D01*
Y133174D01*
D02*
G37*
G36*
X308174Y132000D02*
X306500D01*
Y130326D01*
X307246Y130635D01*
X307865Y131254D01*
X308174Y132000D01*
D02*
G37*
G36*
X305500D02*
X303826D01*
X304135Y131254D01*
X304754Y130635D01*
X305500Y130326D01*
Y132000D01*
D02*
G37*
G36*
X204674D02*
X203000D01*
Y130326D01*
X203746Y130635D01*
X204365Y131254D01*
X204674Y132000D01*
D02*
G37*
G36*
X202000D02*
X200326D01*
X200635Y131254D01*
X201254Y130635D01*
X202000Y130326D01*
Y132000D01*
D02*
G37*
G36*
X134174Y130500D02*
X132500D01*
Y128826D01*
X133246Y129135D01*
X133865Y129754D01*
X134174Y130500D01*
D02*
G37*
G36*
X131500D02*
X129826D01*
X130135Y129754D01*
X130754Y129135D01*
X131500Y128826D01*
Y130500D01*
D02*
G37*
G36*
X287938Y133200D02*
X287062D01*
X286254Y132865D01*
X285635Y132246D01*
X285300Y131438D01*
Y130562D01*
X285635Y129754D01*
X286254Y129135D01*
X287062Y128800D01*
X287938D01*
X288746Y129135D01*
X289365Y129754D01*
X289700Y130562D01*
Y131438D01*
X289365Y132246D01*
X288746Y132865D01*
X287938Y133200D01*
D02*
G37*
G36*
X120500Y129674D02*
Y128000D01*
X122174D01*
X121865Y128746D01*
X121246Y129365D01*
X120500Y129674D01*
D02*
G37*
G36*
X119500D02*
X118754Y129365D01*
X118135Y128746D01*
X117826Y128000D01*
X119500D01*
Y129674D01*
D02*
G37*
G36*
X85500D02*
Y128000D01*
X87174D01*
X86865Y128746D01*
X86246Y129365D01*
X85500Y129674D01*
D02*
G37*
G36*
X84500D02*
X83754Y129365D01*
X83135Y128746D01*
X82826Y128000D01*
X84500D01*
Y129674D01*
D02*
G37*
G36*
X235438Y132200D02*
X234562D01*
X233754Y131865D01*
X233135Y131246D01*
X232800Y130438D01*
Y129562D01*
X233135Y128754D01*
X233754Y128135D01*
X234562Y127800D01*
X235438D01*
X236246Y128135D01*
X236865Y128754D01*
X237200Y129562D01*
Y130438D01*
X236865Y131246D01*
X236246Y131865D01*
X235438Y132200D01*
D02*
G37*
G36*
X220038Y132100D02*
X219162D01*
X218354Y131765D01*
X217735Y131146D01*
X217400Y130338D01*
Y129462D01*
X217735Y128654D01*
X218354Y128035D01*
X219162Y127700D01*
X220038D01*
X220846Y128035D01*
X221465Y128654D01*
X221800Y129462D01*
Y130338D01*
X221465Y131146D01*
X220846Y131765D01*
X220038Y132100D01*
D02*
G37*
G36*
X326500Y127174D02*
Y125500D01*
X328174D01*
X327865Y126246D01*
X327246Y126865D01*
X326500Y127174D01*
D02*
G37*
G36*
X325500D02*
X324754Y126865D01*
X324135Y126246D01*
X323826Y125500D01*
X325500D01*
Y127174D01*
D02*
G37*
G36*
X122174Y127000D02*
X120500D01*
Y125326D01*
X121246Y125635D01*
X121865Y126254D01*
X122174Y127000D01*
D02*
G37*
G36*
X119500D02*
X117826D01*
X118135Y126254D01*
X118754Y125635D01*
X119500Y125326D01*
Y127000D01*
D02*
G37*
G36*
X87174D02*
X85500D01*
Y125326D01*
X86246Y125635D01*
X86865Y126254D01*
X87174Y127000D01*
D02*
G37*
G36*
X84500D02*
X82826D01*
X83135Y126254D01*
X83754Y125635D01*
X84500Y125326D01*
Y127000D01*
D02*
G37*
G36*
X211438Y127700D02*
X210562D01*
X209754Y127365D01*
X209135Y126746D01*
X208800Y125938D01*
Y125062D01*
X209135Y124254D01*
X209754Y123635D01*
X210562Y123300D01*
X211438D01*
X212246Y123635D01*
X212865Y124254D01*
X213200Y125062D01*
Y125938D01*
X212865Y126746D01*
X212246Y127365D01*
X211438Y127700D01*
D02*
G37*
G36*
X328174Y124500D02*
X326500D01*
Y122826D01*
X327246Y123135D01*
X327865Y123754D01*
X328174Y124500D01*
D02*
G37*
G36*
X325500D02*
X323826D01*
X324135Y123754D01*
X324754Y123135D01*
X325500Y122826D01*
Y124500D01*
D02*
G37*
G36*
X270625Y127112D02*
X269750D01*
X268941Y126777D01*
X268322Y126158D01*
X267987Y125350D01*
Y124474D01*
X268322Y123666D01*
X268941Y123047D01*
X269750Y122712D01*
X270625D01*
X271434Y123047D01*
X272053Y123666D01*
X272388Y124474D01*
Y125350D01*
X272053Y126158D01*
X271434Y126777D01*
X270625Y127112D01*
D02*
G37*
G36*
X191038Y126600D02*
X190162D01*
X189354Y126265D01*
X188735Y125646D01*
X188400Y124838D01*
Y123962D01*
X188735Y123154D01*
X189354Y122535D01*
X190162Y122200D01*
X191038D01*
X191846Y122535D01*
X192465Y123154D01*
X192800Y123962D01*
Y124838D01*
X192465Y125646D01*
X191846Y126265D01*
X191038Y126600D01*
D02*
G37*
G36*
X133000Y122174D02*
Y120500D01*
X134674D01*
X134365Y121246D01*
X133746Y121865D01*
X133000Y122174D01*
D02*
G37*
G36*
X132000D02*
X131254Y121865D01*
X130635Y121246D01*
X130326Y120500D01*
X132000D01*
Y122174D01*
D02*
G37*
G36*
X283066Y120370D02*
X282547Y120155D01*
X282040Y119649D01*
X281825Y119129D01*
X283066D01*
Y120370D01*
D02*
G37*
G36*
X134674Y119500D02*
X133000D01*
Y117826D01*
X133746Y118135D01*
X134365Y118754D01*
X134674Y119500D01*
D02*
G37*
G36*
X132000D02*
X130326D01*
X130635Y118754D01*
X131254Y118135D01*
X132000Y117826D01*
Y119500D01*
D02*
G37*
G36*
X270471Y122200D02*
X269596D01*
X268787Y121865D01*
X268168Y121246D01*
X267833Y120438D01*
Y119562D01*
X268168Y118754D01*
X268787Y118135D01*
X269596Y117800D01*
X270471D01*
X271279Y118135D01*
X271898Y118754D01*
X272233Y119562D01*
Y120438D01*
X271898Y121246D01*
X271279Y121865D01*
X270471Y122200D01*
D02*
G37*
G36*
X283066Y118129D02*
X281825D01*
X282040Y117610D01*
X282547Y117103D01*
X283066Y116888D01*
Y118129D01*
D02*
G37*
G36*
X303500Y118174D02*
Y116500D01*
X305174D01*
X304865Y117246D01*
X304246Y117865D01*
X303500Y118174D01*
D02*
G37*
G36*
X302500D02*
X301754Y117865D01*
X301135Y117246D01*
X300826Y116500D01*
X302500D01*
Y118174D01*
D02*
G37*
G36*
X50500Y117174D02*
Y115500D01*
X52174D01*
X51865Y116246D01*
X51246Y116865D01*
X50500Y117174D01*
D02*
G37*
G36*
X49500D02*
X48754Y116865D01*
X48135Y116246D01*
X47826Y115500D01*
X49500D01*
Y117174D01*
D02*
G37*
G36*
X284066Y120370D02*
Y118629D01*
Y116888D01*
X284586Y117103D01*
X284800Y117317D01*
X285300Y117110D01*
Y117062D01*
X285635Y116254D01*
X286254Y115635D01*
X287062Y115300D01*
X287938D01*
X288746Y115635D01*
X289365Y116254D01*
X289700Y117062D01*
Y117938D01*
X289365Y118746D01*
X288746Y119365D01*
X287938Y119700D01*
X287062D01*
X286254Y119365D01*
X285866Y118977D01*
X285714Y118980D01*
X285308Y119127D01*
X285092Y119649D01*
X284586Y120155D01*
X284066Y120370D01*
D02*
G37*
G36*
X305174Y115500D02*
X303500D01*
Y113826D01*
X304246Y114135D01*
X304865Y114754D01*
X305174Y115500D01*
D02*
G37*
G36*
X302500D02*
X300826D01*
X301135Y114754D01*
X301754Y114135D01*
X302500Y113826D01*
Y115500D01*
D02*
G37*
G36*
X52174Y114500D02*
X50500D01*
Y112826D01*
X51246Y113135D01*
X51865Y113754D01*
X52174Y114500D01*
D02*
G37*
G36*
X49500D02*
X47826D01*
X48135Y113754D01*
X48754Y113135D01*
X49500Y112826D01*
Y114500D01*
D02*
G37*
G36*
X197438Y117200D02*
X196562D01*
X195754Y116865D01*
X195135Y116246D01*
X194800Y115438D01*
Y114562D01*
X195135Y113754D01*
X195754Y113135D01*
X196562Y112800D01*
X197438D01*
X198246Y113135D01*
X198865Y113754D01*
X199200Y114562D01*
Y115438D01*
X198865Y116246D01*
X198246Y116865D01*
X197438Y117200D01*
D02*
G37*
G36*
X216038Y125075D02*
X215162D01*
X214354Y124740D01*
X213735Y124121D01*
X213400Y123313D01*
Y122437D01*
X213735Y121629D01*
X214354Y121010D01*
X214631Y120895D01*
X214663Y120834D01*
X214710Y120321D01*
X214235Y119846D01*
X213900Y119038D01*
Y118162D01*
X214235Y117354D01*
X214854Y116735D01*
X215305Y116548D01*
X215422Y115958D01*
X215110Y115646D01*
X214775Y114838D01*
Y113962D01*
X215110Y113154D01*
X215729Y112535D01*
X216537Y112200D01*
X217413D01*
X218221Y112535D01*
X218840Y113154D01*
X219175Y113962D01*
Y114838D01*
X218840Y115646D01*
X218221Y116265D01*
X217770Y116452D01*
X217653Y117042D01*
X217965Y117354D01*
X218300Y118162D01*
Y119038D01*
X217965Y119846D01*
X217346Y120465D01*
X217069Y120580D01*
X217037Y120641D01*
X216990Y121154D01*
X217465Y121629D01*
X217800Y122437D01*
Y123313D01*
X217465Y124121D01*
X216846Y124740D01*
X216038Y125075D01*
D02*
G37*
G36*
X263738Y117900D02*
X262862D01*
X262054Y117565D01*
X261435Y116946D01*
X261100Y116138D01*
Y115262D01*
X261435Y114454D01*
X262054Y113835D01*
X262862Y113500D01*
X263738D01*
X264000Y113609D01*
X264500Y113275D01*
Y112762D01*
X264835Y111954D01*
X265454Y111335D01*
X266262Y111000D01*
X267138D01*
X267946Y111335D01*
X268565Y111954D01*
X268900Y112762D01*
Y113638D01*
X268565Y114446D01*
X267946Y115065D01*
X267138Y115400D01*
X266262D01*
X266000Y115291D01*
X265500Y115625D01*
Y116138D01*
X265165Y116946D01*
X264546Y117565D01*
X263738Y117900D01*
D02*
G37*
G36*
X182591Y119091D02*
X174409D01*
Y110909D01*
X182591D01*
Y119091D01*
D02*
G37*
G36*
X252538Y114890D02*
X251662D01*
X250854Y114555D01*
X250235Y113936D01*
X249900Y113127D01*
Y112252D01*
X250235Y111443D01*
X250854Y110825D01*
X251662Y110490D01*
X252538D01*
X253346Y110825D01*
X253965Y111443D01*
X254300Y112252D01*
Y113127D01*
X253965Y113936D01*
X253346Y114555D01*
X252538Y114890D01*
D02*
G37*
G36*
X247038D02*
X246162D01*
X245354Y114555D01*
X244735Y113936D01*
X244400Y113127D01*
Y112252D01*
X244735Y111443D01*
X245354Y110825D01*
X246162Y110490D01*
X247038D01*
X247846Y110825D01*
X248465Y111443D01*
X248800Y112252D01*
Y113127D01*
X248465Y113936D01*
X247846Y114555D01*
X247038Y114890D01*
D02*
G37*
G36*
X239138D02*
X238262D01*
X237454Y114555D01*
X236835Y113936D01*
X236500Y113127D01*
Y112252D01*
X236835Y111443D01*
X237454Y110825D01*
X238262Y110490D01*
X239138D01*
X239946Y110825D01*
X240565Y111443D01*
X240900Y112252D01*
Y113127D01*
X240565Y113936D01*
X239946Y114555D01*
X239138Y114890D01*
D02*
G37*
G36*
X280438Y114000D02*
X279562D01*
X278754Y113665D01*
X278135Y113046D01*
X277800Y112238D01*
Y111362D01*
X278135Y110554D01*
X278754Y109935D01*
X279562Y109600D01*
X280438D01*
X281246Y109935D01*
X281865Y110554D01*
X282200Y111362D01*
Y112238D01*
X281865Y113046D01*
X281246Y113665D01*
X280438Y114000D01*
D02*
G37*
G36*
X303600Y110874D02*
Y109200D01*
X305274D01*
X304965Y109946D01*
X304346Y110565D01*
X303600Y110874D01*
D02*
G37*
G36*
X302600D02*
X301854Y110565D01*
X301235Y109946D01*
X300926Y109200D01*
X302600D01*
Y110874D01*
D02*
G37*
G36*
X305274Y108200D02*
X303600D01*
Y106526D01*
X304346Y106835D01*
X304965Y107454D01*
X305274Y108200D01*
D02*
G37*
G36*
X302600D02*
X300926D01*
X301235Y107454D01*
X301854Y106835D01*
X302600Y106526D01*
Y108200D01*
D02*
G37*
G36*
X286838Y109875D02*
X285962D01*
X285154Y109540D01*
X284535Y108921D01*
X284200Y108113D01*
Y107237D01*
X284535Y106429D01*
X285154Y105810D01*
X285962Y105475D01*
X286838D01*
X287646Y105810D01*
X288265Y106429D01*
X288600Y107237D01*
Y108113D01*
X288265Y108921D01*
X287646Y109540D01*
X286838Y109875D01*
D02*
G37*
G36*
X274538Y109700D02*
X273662D01*
X272854Y109365D01*
X272235Y108746D01*
X271900Y107938D01*
Y107062D01*
X272235Y106254D01*
X272854Y105635D01*
X273662Y105300D01*
X274538D01*
X275346Y105635D01*
X275965Y106254D01*
X276300Y107062D01*
Y107938D01*
X275965Y108746D01*
X275346Y109365D01*
X274538Y109700D01*
D02*
G37*
G36*
X221938D02*
X221062D01*
X220254Y109365D01*
X219635Y108746D01*
X219300Y107938D01*
Y107062D01*
X219635Y106254D01*
X220254Y105635D01*
X221062Y105300D01*
X221938D01*
X222746Y105635D01*
X223365Y106254D01*
X223700Y107062D01*
Y107938D01*
X223365Y108746D01*
X222746Y109365D01*
X221938Y109700D01*
D02*
G37*
G36*
X239500Y104241D02*
Y103000D01*
X240741D01*
X240526Y103520D01*
X240020Y104026D01*
X239500Y104241D01*
D02*
G37*
G36*
X238500D02*
X237980Y104026D01*
X237474Y103520D01*
X237259Y103000D01*
X238500D01*
Y104241D01*
D02*
G37*
G36*
X258500Y103741D02*
Y102500D01*
X259741D01*
X259526Y103020D01*
X259020Y103526D01*
X258500Y103741D01*
D02*
G37*
G36*
X257500D02*
X256980Y103526D01*
X256474Y103020D01*
X256259Y102500D01*
X257500D01*
Y103741D01*
D02*
G37*
G36*
X179039Y109091D02*
X177962D01*
X176921Y108812D01*
X175988Y108273D01*
X175227Y107512D01*
X174688Y106579D01*
X174409Y105538D01*
Y104462D01*
X174688Y103421D01*
X175227Y102488D01*
X175988Y101727D01*
X176921Y101188D01*
X177962Y100909D01*
X179039D01*
X180079Y101188D01*
X181012Y101727D01*
X181773Y102488D01*
X182312Y103421D01*
X182591Y104462D01*
Y105538D01*
X182312Y106579D01*
X181773Y107512D01*
X181012Y108273D01*
X180079Y108812D01*
X179039Y109091D01*
D02*
G37*
G36*
X252700Y102141D02*
Y100900D01*
X253941D01*
X253726Y101420D01*
X253220Y101926D01*
X252700Y102141D01*
D02*
G37*
G36*
X251700D02*
X251180Y101926D01*
X250674Y101420D01*
X250459Y100900D01*
X251700D01*
Y102141D01*
D02*
G37*
G36*
X240741Y102000D02*
X239500D01*
Y100759D01*
X240020Y100974D01*
X240526Y101480D01*
X240741Y102000D01*
D02*
G37*
G36*
X238500D02*
X237259D01*
X237474Y101480D01*
X237980Y100974D01*
X238500Y100759D01*
Y102000D01*
D02*
G37*
G36*
X70500Y102174D02*
Y100500D01*
X72174D01*
X71865Y101246D01*
X71246Y101865D01*
X70500Y102174D01*
D02*
G37*
G36*
X69500D02*
X68754Y101865D01*
X68135Y101246D01*
X67826Y100500D01*
X69500D01*
Y102174D01*
D02*
G37*
G36*
X259741Y101500D02*
X258500D01*
Y100259D01*
X259020Y100474D01*
X259526Y100980D01*
X259741Y101500D01*
D02*
G37*
G36*
X257500D02*
X256259D01*
X256474Y100980D01*
X256980Y100474D01*
X257500Y100259D01*
Y101500D01*
D02*
G37*
G36*
X197738Y111700D02*
X196862D01*
X196054Y111365D01*
X195435Y110746D01*
X195100Y109938D01*
Y109062D01*
X195435Y108254D01*
X196054Y107635D01*
X196862Y107300D01*
X197082D01*
X197289Y106800D01*
X196935Y106446D01*
X196600Y105638D01*
Y104762D01*
X196935Y103954D01*
X197554Y103335D01*
X197574Y102785D01*
X197235Y102446D01*
X196900Y101638D01*
Y100762D01*
X197235Y99954D01*
X197854Y99335D01*
X198662Y99000D01*
X199538D01*
X200346Y99335D01*
X200965Y99954D01*
X201300Y100762D01*
Y101638D01*
X200965Y102446D01*
X200346Y103065D01*
X200326Y103615D01*
X200665Y103954D01*
X201000Y104762D01*
Y105638D01*
X200665Y106446D01*
X200046Y107065D01*
X199238Y107400D01*
X199018D01*
X198811Y107900D01*
X199165Y108254D01*
X199500Y109062D01*
Y109938D01*
X199165Y110746D01*
X198546Y111365D01*
X197738Y111700D01*
D02*
G37*
G36*
X253941Y99900D02*
X252700D01*
Y98659D01*
X253220Y98874D01*
X253726Y99380D01*
X253941Y99900D01*
D02*
G37*
G36*
X251700D02*
X250459D01*
X250674Y99380D01*
X251180Y98874D01*
X251700Y98659D01*
Y99900D01*
D02*
G37*
G36*
X72174Y99500D02*
X70500D01*
Y97826D01*
X71246Y98135D01*
X71865Y98754D01*
X72174Y99500D01*
D02*
G37*
G36*
X69500D02*
X67826D01*
X68135Y98754D01*
X68754Y98135D01*
X69500Y97826D01*
Y99500D01*
D02*
G37*
G36*
X247958Y104400D02*
X247242D01*
X246580Y104126D01*
X246074Y103620D01*
X245800Y102958D01*
Y102591D01*
X245447Y102210D01*
X245338Y102200D01*
X244562D01*
X243754Y101865D01*
X243135Y101246D01*
X242800Y100438D01*
Y99562D01*
X243135Y98754D01*
X243754Y98135D01*
X244562Y97800D01*
X245438D01*
X246246Y98135D01*
X246865Y98754D01*
X247200Y99562D01*
Y100338D01*
X247210Y100447D01*
X247591Y100800D01*
X247958D01*
X248620Y101074D01*
X249126Y101580D01*
X249400Y102242D01*
Y102958D01*
X249126Y103620D01*
X248620Y104126D01*
X247958Y104400D01*
D02*
G37*
G36*
X90500Y97174D02*
Y95500D01*
X92174D01*
X91865Y96246D01*
X91246Y96865D01*
X90500Y97174D01*
D02*
G37*
G36*
X89500D02*
X88754Y96865D01*
X88135Y96246D01*
X87826Y95500D01*
X89500D01*
Y97174D01*
D02*
G37*
G36*
X281438Y107400D02*
X280562D01*
X279754Y107065D01*
X279135Y106446D01*
X278800Y105638D01*
Y104762D01*
X279135Y103954D01*
X279754Y103335D01*
X279917Y103267D01*
X279986Y102698D01*
X279535Y102246D01*
X279200Y101438D01*
Y100562D01*
X279516Y99800D01*
X279434Y99572D01*
X279282Y99300D01*
X278862D01*
X278054Y98965D01*
X277435Y98346D01*
X277100Y97538D01*
Y96662D01*
X277435Y95854D01*
X278054Y95235D01*
X278862Y94900D01*
X279738D01*
X280546Y95235D01*
X281165Y95854D01*
X281500Y96662D01*
Y97538D01*
X281184Y98300D01*
X281266Y98527D01*
X281418Y98800D01*
X281838D01*
X282646Y99135D01*
X283265Y99754D01*
X283600Y100562D01*
Y101438D01*
X283265Y102246D01*
X282646Y102865D01*
X282483Y102933D01*
X282414Y103503D01*
X282865Y103954D01*
X283200Y104762D01*
Y105638D01*
X282865Y106446D01*
X282246Y107065D01*
X281438Y107400D01*
D02*
G37*
G36*
X92174Y94500D02*
X90500D01*
Y92826D01*
X91246Y93135D01*
X91865Y93754D01*
X92174Y94500D01*
D02*
G37*
G36*
X89500D02*
X87826D01*
X88135Y93754D01*
X88754Y93135D01*
X89500Y92826D01*
Y94500D01*
D02*
G37*
G36*
X15461Y98500D02*
X14539D01*
X13649Y98261D01*
X12851Y97801D01*
X12199Y97149D01*
X11738Y96351D01*
X11500Y95461D01*
Y94539D01*
X11738Y93649D01*
X12199Y92851D01*
X12851Y92199D01*
X13649Y91738D01*
X14539Y91500D01*
X15461D01*
X16351Y91738D01*
X17149Y92199D01*
X17801Y92851D01*
X18261Y93649D01*
X18500Y94539D01*
Y95461D01*
X18261Y96351D01*
X17801Y97149D01*
X17149Y97801D01*
X16351Y98261D01*
X15461Y98500D01*
D02*
G37*
G36*
X165900Y92974D02*
Y91300D01*
X167574D01*
X167265Y92046D01*
X166646Y92665D01*
X165900Y92974D01*
D02*
G37*
G36*
X164900D02*
X164154Y92665D01*
X163535Y92046D01*
X163226Y91300D01*
X164900D01*
Y92974D01*
D02*
G37*
G36*
X179039Y99090D02*
X177962D01*
X176921Y98812D01*
X175988Y98273D01*
X175227Y97512D01*
X174688Y96579D01*
X174409Y95539D01*
Y94462D01*
X174688Y93421D01*
X175227Y92488D01*
X175988Y91727D01*
X176921Y91188D01*
X177962Y90909D01*
X179039D01*
X180079Y91188D01*
X181012Y91727D01*
X181773Y92488D01*
X182312Y93421D01*
X182591Y94462D01*
Y95539D01*
X182312Y96579D01*
X181773Y97512D01*
X181012Y98273D01*
X180079Y98812D01*
X179039Y99090D01*
D02*
G37*
G36*
X197438Y93900D02*
X196562D01*
X195754Y93565D01*
X195135Y92946D01*
X194800Y92138D01*
Y91262D01*
X195135Y90454D01*
X195754Y89835D01*
X196562Y89500D01*
X197438D01*
X198246Y89835D01*
X198865Y90454D01*
X199200Y91262D01*
Y92138D01*
X198865Y92946D01*
X198246Y93565D01*
X197438Y93900D01*
D02*
G37*
G36*
X167574Y90300D02*
X165900D01*
Y88626D01*
X166646Y88935D01*
X167265Y89554D01*
X167574Y90300D01*
D02*
G37*
G36*
X164900D02*
X163226D01*
X163535Y89554D01*
X164154Y88935D01*
X164900Y88626D01*
Y90300D01*
D02*
G37*
G36*
X249500Y87174D02*
Y85500D01*
X251174D01*
X250865Y86246D01*
X250246Y86865D01*
X249500Y87174D01*
D02*
G37*
G36*
X248500D02*
X247754Y86865D01*
X247135Y86246D01*
X246826Y85500D01*
X248500D01*
Y87174D01*
D02*
G37*
G36*
X238500D02*
Y85500D01*
X240174D01*
X239865Y86246D01*
X239246Y86865D01*
X238500Y87174D01*
D02*
G37*
G36*
X237500D02*
X236754Y86865D01*
X236135Y86246D01*
X235826Y85500D01*
X237500D01*
Y87174D01*
D02*
G37*
G36*
X228500D02*
Y85500D01*
X230174D01*
X229865Y86246D01*
X229246Y86865D01*
X228500Y87174D01*
D02*
G37*
G36*
X227500D02*
X226754Y86865D01*
X226135Y86246D01*
X225826Y85500D01*
X227500D01*
Y87174D01*
D02*
G37*
G36*
X49500Y87499D02*
Y85500D01*
X51499D01*
X51119Y86416D01*
X50416Y87119D01*
X49500Y87499D01*
D02*
G37*
G36*
X48500D02*
X47584Y87119D01*
X46881Y86416D01*
X46501Y85500D01*
X48500D01*
Y87499D01*
D02*
G37*
G36*
X277238Y89600D02*
X276362D01*
X275554Y89265D01*
X274935Y88646D01*
X274600Y87838D01*
Y86962D01*
X274935Y86154D01*
X275554Y85535D01*
X276362Y85200D01*
X277238D01*
X278046Y85535D01*
X278665Y86154D01*
X279000Y86962D01*
Y87838D01*
X278665Y88646D01*
X278046Y89265D01*
X277238Y89600D01*
D02*
G37*
G36*
X262500Y86174D02*
Y84500D01*
X264174D01*
X263865Y85246D01*
X263246Y85865D01*
X262500Y86174D01*
D02*
G37*
G36*
X261500D02*
X260754Y85865D01*
X260135Y85246D01*
X259826Y84500D01*
X261500D01*
Y86174D01*
D02*
G37*
G36*
X77895Y90500D02*
X77105D01*
X76342Y90296D01*
X75658Y89901D01*
X75099Y89342D01*
X74704Y88658D01*
X74500Y87895D01*
Y87105D01*
X74704Y86342D01*
X75099Y85658D01*
X75658Y85099D01*
X76342Y84704D01*
X77105Y84500D01*
X77895D01*
X78658Y84704D01*
X79342Y85099D01*
X79901Y85658D01*
X80296Y86342D01*
X80500Y87105D01*
Y87895D01*
X80296Y88658D01*
X79901Y89342D01*
X79342Y89901D01*
X78658Y90296D01*
X77895Y90500D01*
D02*
G37*
G36*
X61000Y86472D02*
Y84000D01*
X63472D01*
X63296Y84658D01*
X62901Y85342D01*
X62342Y85901D01*
X61658Y86296D01*
X61000Y86472D01*
D02*
G37*
G36*
X60000D02*
X59342Y86296D01*
X58658Y85901D01*
X58099Y85342D01*
X57704Y84658D01*
X57528Y84000D01*
X60000D01*
Y86472D01*
D02*
G37*
G36*
X251174Y84500D02*
X249500D01*
Y82826D01*
X250246Y83135D01*
X250865Y83754D01*
X251174Y84500D01*
D02*
G37*
G36*
X248500D02*
X246826D01*
X247135Y83754D01*
X247754Y83135D01*
X248500Y82826D01*
Y84500D01*
D02*
G37*
G36*
X240174D02*
X238500D01*
Y82826D01*
X239246Y83135D01*
X239865Y83754D01*
X240174Y84500D01*
D02*
G37*
G36*
X237500D02*
X235826D01*
X236135Y83754D01*
X236754Y83135D01*
X237500Y82826D01*
Y84500D01*
D02*
G37*
G36*
X230174D02*
X228500D01*
Y82826D01*
X229246Y83135D01*
X229865Y83754D01*
X230174Y84500D01*
D02*
G37*
G36*
X227500D02*
X225826D01*
X226135Y83754D01*
X226754Y83135D01*
X227500Y82826D01*
Y84500D01*
D02*
G37*
G36*
X51499D02*
X49500D01*
Y82501D01*
X50416Y82881D01*
X51119Y83584D01*
X51499Y84500D01*
D02*
G37*
G36*
X48500D02*
X46501D01*
X46881Y83584D01*
X47584Y82881D01*
X48500Y82501D01*
Y84500D01*
D02*
G37*
G36*
X264174Y83500D02*
X262500D01*
Y81826D01*
X263246Y82135D01*
X263865Y82754D01*
X264174Y83500D01*
D02*
G37*
G36*
X261500D02*
X259826D01*
X260135Y82754D01*
X260754Y82135D01*
X261500Y81826D01*
Y83500D01*
D02*
G37*
G36*
X179039Y89091D02*
X177962D01*
X176921Y88812D01*
X175988Y88273D01*
X175227Y87512D01*
X174688Y86579D01*
X174409Y85539D01*
Y84461D01*
X174688Y83421D01*
X175227Y82488D01*
X175988Y81727D01*
X176921Y81188D01*
X177962Y80910D01*
X179039D01*
X180079Y81188D01*
X181012Y81727D01*
X181773Y82488D01*
X182312Y83421D01*
X182591Y84461D01*
Y85539D01*
X182312Y86579D01*
X181773Y87512D01*
X181012Y88273D01*
X180079Y88812D01*
X179039Y89091D01*
D02*
G37*
G36*
X63472Y83000D02*
X57528D01*
X57704Y82342D01*
X58099Y81658D01*
X58658Y81099D01*
X59055Y80870D01*
X58984Y80334D01*
X58842Y80296D01*
X58158Y79901D01*
X57599Y79342D01*
X57204Y78658D01*
X57028Y78000D01*
X62972D01*
X62796Y78658D01*
X62401Y79342D01*
X61842Y79901D01*
X61445Y80130D01*
X61516Y80666D01*
X61658Y80704D01*
X62342Y81099D01*
X62901Y81658D01*
X63296Y82342D01*
X63472Y83000D01*
D02*
G37*
G36*
X206120Y84853D02*
X205080D01*
X204074Y84583D01*
X203173Y84063D01*
X202437Y83327D01*
X201917Y82426D01*
X201647Y81420D01*
Y80380D01*
X201917Y79374D01*
X202437Y78473D01*
X203173Y77737D01*
X204074Y77217D01*
X205080Y76947D01*
X206120D01*
X207126Y77217D01*
X208027Y77737D01*
X208763Y78473D01*
X209283Y79374D01*
X209553Y80380D01*
Y81420D01*
X209283Y82426D01*
X208763Y83327D01*
X208027Y84063D01*
X207126Y84583D01*
X206120Y84853D01*
D02*
G37*
G36*
X281500Y78174D02*
Y76500D01*
X283174D01*
X282865Y77246D01*
X282246Y77865D01*
X281500Y78174D01*
D02*
G37*
G36*
X280500D02*
X279754Y77865D01*
X279135Y77246D01*
X278826Y76500D01*
X280500D01*
Y78174D01*
D02*
G37*
G36*
X163638Y79800D02*
X162762D01*
X161954Y79465D01*
X161335Y78846D01*
X161000Y78038D01*
Y77162D01*
X161335Y76354D01*
X161954Y75735D01*
X162762Y75400D01*
X163638D01*
X164446Y75735D01*
X165065Y76354D01*
X165400Y77162D01*
Y78038D01*
X165065Y78846D01*
X164446Y79465D01*
X163638Y79800D01*
D02*
G37*
G36*
X62972Y77000D02*
X60500D01*
Y74528D01*
X61158Y74704D01*
X61842Y75099D01*
X62401Y75658D01*
X62796Y76342D01*
X62972Y77000D01*
D02*
G37*
G36*
X59500D02*
X57028D01*
X57204Y76342D01*
X57599Y75658D01*
X58158Y75099D01*
X58842Y74704D01*
X59500Y74528D01*
Y77000D01*
D02*
G37*
G36*
X283174Y75500D02*
X281500D01*
Y73826D01*
X282246Y74135D01*
X282865Y74754D01*
X283174Y75500D01*
D02*
G37*
G36*
X280500D02*
X278826D01*
X279135Y74754D01*
X279754Y74135D01*
X280500Y73826D01*
Y75500D01*
D02*
G37*
G36*
X25624Y83043D02*
X24376D01*
X23170Y82720D01*
X22090Y82096D01*
X21207Y81214D01*
X20583Y80133D01*
X20260Y78927D01*
Y77679D01*
X20583Y76473D01*
X21207Y75393D01*
X22090Y74510D01*
X23170Y73886D01*
X24376Y73563D01*
X25624D01*
X26830Y73886D01*
X27911Y74510D01*
X28793Y75393D01*
X29417Y76473D01*
X29740Y77679D01*
Y78927D01*
X29417Y80133D01*
X28793Y81214D01*
X27911Y82096D01*
X26830Y82720D01*
X25624Y83043D01*
D02*
G37*
G36*
X138895Y78000D02*
X138105D01*
X137342Y77796D01*
X136658Y77401D01*
X136099Y76842D01*
X135704Y76158D01*
X135500Y75395D01*
Y74605D01*
X135704Y73842D01*
X136099Y73158D01*
X136658Y72599D01*
X137342Y72204D01*
X138105Y72000D01*
X138895D01*
X139658Y72204D01*
X140342Y72599D01*
X140901Y73158D01*
X141296Y73842D01*
X141500Y74605D01*
Y75395D01*
X141296Y76158D01*
X140901Y76842D01*
X140342Y77401D01*
X139658Y77796D01*
X138895Y78000D01*
D02*
G37*
G36*
X61000Y73972D02*
Y71500D01*
X63472D01*
X63296Y72158D01*
X62901Y72842D01*
X62342Y73401D01*
X61658Y73796D01*
X61000Y73972D01*
D02*
G37*
G36*
X60000D02*
X59342Y73796D01*
X58658Y73401D01*
X58099Y72842D01*
X57704Y72158D01*
X57528Y71500D01*
X60000D01*
Y73972D01*
D02*
G37*
G36*
X179039Y79090D02*
X177962D01*
X176921Y78812D01*
X175988Y78273D01*
X175227Y77512D01*
X174688Y76579D01*
X174409Y75538D01*
Y74462D01*
X174688Y73421D01*
X175227Y72488D01*
X175988Y71727D01*
X176921Y71188D01*
X177962Y70910D01*
X179039D01*
X180079Y71188D01*
X181012Y71727D01*
X181773Y72488D01*
X182312Y73421D01*
X182591Y74462D01*
Y75538D01*
X182312Y76579D01*
X181773Y77512D01*
X181012Y78273D01*
X180079Y78812D01*
X179039Y79090D01*
D02*
G37*
G36*
X63472Y70500D02*
X61000D01*
Y68028D01*
X61658Y68204D01*
X62342Y68599D01*
X62901Y69158D01*
X63296Y69842D01*
X63472Y70500D01*
D02*
G37*
G36*
X60000D02*
X57528D01*
X57704Y69842D01*
X58099Y69158D01*
X58658Y68599D01*
X59342Y68204D01*
X60000Y68028D01*
Y70500D01*
D02*
G37*
G36*
X233500Y65174D02*
Y63500D01*
X235174D01*
X234865Y64246D01*
X234246Y64865D01*
X233500Y65174D01*
D02*
G37*
G36*
X232500D02*
X231754Y64865D01*
X231135Y64246D01*
X230826Y63500D01*
X232500D01*
Y65174D01*
D02*
G37*
G36*
X179039Y69090D02*
X177962D01*
X176921Y68812D01*
X175988Y68273D01*
X175227Y67512D01*
X174688Y66579D01*
X174409Y65539D01*
Y64461D01*
X174688Y63421D01*
X175227Y62488D01*
X175988Y61727D01*
X176921Y61188D01*
X177962Y60909D01*
X179039D01*
X180079Y61188D01*
X181012Y61727D01*
X181773Y62488D01*
X182312Y63421D01*
X182591Y64461D01*
Y65539D01*
X182312Y66579D01*
X181773Y67512D01*
X181012Y68273D01*
X180079Y68812D01*
X179039Y69090D01*
D02*
G37*
G36*
X235174Y62500D02*
X233500D01*
Y60826D01*
X234246Y61135D01*
X234865Y61754D01*
X235174Y62500D01*
D02*
G37*
G36*
X232500D02*
X230826D01*
X231135Y61754D01*
X231754Y61135D01*
X232500Y60826D01*
Y62500D01*
D02*
G37*
G36*
X205500Y58174D02*
Y56500D01*
X207174D01*
X206865Y57246D01*
X206246Y57865D01*
X205500Y58174D01*
D02*
G37*
G36*
X204500D02*
X203754Y57865D01*
X203135Y57246D01*
X202826Y56500D01*
X204500D01*
Y58174D01*
D02*
G37*
G36*
X65000D02*
Y56500D01*
X66674D01*
X66365Y57246D01*
X65746Y57865D01*
X65000Y58174D01*
D02*
G37*
G36*
X64000D02*
X63254Y57865D01*
X62635Y57246D01*
X62326Y56500D01*
X64000D01*
Y58174D01*
D02*
G37*
G36*
X207174Y55500D02*
X205500D01*
Y53826D01*
X206246Y54135D01*
X206865Y54754D01*
X207174Y55500D01*
D02*
G37*
G36*
X204500D02*
X202826D01*
X203135Y54754D01*
X203754Y54135D01*
X204500Y53826D01*
Y55500D01*
D02*
G37*
G36*
X66674D02*
X65000D01*
Y53826D01*
X65746Y54135D01*
X66365Y54754D01*
X66674Y55500D01*
D02*
G37*
G36*
X64000D02*
X62326D01*
X62635Y54754D01*
X63254Y54135D01*
X64000Y53826D01*
Y55500D01*
D02*
G37*
G36*
X143500Y55174D02*
Y53500D01*
X145174D01*
X144865Y54246D01*
X144246Y54865D01*
X143500Y55174D01*
D02*
G37*
G36*
X142500D02*
X141754Y54865D01*
X141135Y54246D01*
X140826Y53500D01*
X142500D01*
Y55174D01*
D02*
G37*
G36*
X145174Y52500D02*
X143500D01*
Y50826D01*
X144246Y51135D01*
X144865Y51754D01*
X145174Y52500D01*
D02*
G37*
G36*
X142500D02*
X140826D01*
X141135Y51754D01*
X141754Y51135D01*
X142500Y50826D01*
Y52500D01*
D02*
G37*
G36*
X285395Y52000D02*
X284605D01*
X283842Y51796D01*
X283158Y51401D01*
X282599Y50842D01*
X282204Y50158D01*
X282000Y49395D01*
Y48605D01*
X282204Y47842D01*
X282599Y47158D01*
X283158Y46599D01*
X283842Y46204D01*
X284605Y46000D01*
X285395D01*
X286158Y46204D01*
X286842Y46599D01*
X287401Y47158D01*
X287796Y47842D01*
X288000Y48605D01*
Y49395D01*
X287796Y50158D01*
X287401Y50842D01*
X286842Y51401D01*
X286158Y51796D01*
X285395Y52000D01*
D02*
G37*
G36*
X228500Y46174D02*
Y44500D01*
X230174D01*
X229865Y45246D01*
X229246Y45865D01*
X228500Y46174D01*
D02*
G37*
G36*
X227500D02*
X226754Y45865D01*
X226135Y45246D01*
X225826Y44500D01*
X227500D01*
Y46174D01*
D02*
G37*
G36*
X230174Y43500D02*
X228500D01*
Y41826D01*
X229246Y42135D01*
X229865Y42754D01*
X230174Y43500D01*
D02*
G37*
G36*
X227500D02*
X225826D01*
X226135Y42754D01*
X226754Y42135D01*
X227500Y41826D01*
Y43500D01*
D02*
G37*
G36*
X270500Y43174D02*
Y41500D01*
X272174D01*
X271865Y42246D01*
X271246Y42865D01*
X270500Y43174D01*
D02*
G37*
G36*
X269500D02*
X268754Y42865D01*
X268135Y42246D01*
X267826Y41500D01*
X269500D01*
Y43174D01*
D02*
G37*
G36*
X283938Y43700D02*
X283062D01*
X282254Y43365D01*
X281635Y42746D01*
X281300Y41938D01*
Y41062D01*
X281635Y40254D01*
X282254Y39635D01*
X283062Y39300D01*
X283938D01*
X284746Y39635D01*
X285365Y40254D01*
X285700Y41062D01*
Y41938D01*
X285365Y42746D01*
X284746Y43365D01*
X283938Y43700D01*
D02*
G37*
G36*
X272174Y40500D02*
X270500D01*
Y38826D01*
X271246Y39135D01*
X271865Y39754D01*
X272174Y40500D01*
D02*
G37*
G36*
X269500D02*
X267826D01*
X268135Y39754D01*
X268754Y39135D01*
X269500Y38826D01*
Y40500D01*
D02*
G37*
G36*
X306438Y42200D02*
X305562D01*
X304754Y41865D01*
X304135Y41246D01*
X303800Y40438D01*
Y39562D01*
X304135Y38754D01*
X304754Y38135D01*
X305562Y37800D01*
X306438D01*
X307246Y38135D01*
X307865Y38754D01*
X308200Y39562D01*
Y40438D01*
X307865Y41246D01*
X307246Y41865D01*
X306438Y42200D01*
D02*
G37*
G36*
X202500Y39765D02*
Y37500D01*
X204765D01*
X204609Y38081D01*
X204241Y38719D01*
X203719Y39241D01*
X203081Y39609D01*
X202500Y39765D01*
D02*
G37*
G36*
X201500D02*
X200919Y39609D01*
X200281Y39241D01*
X199759Y38719D01*
X199391Y38081D01*
X199235Y37500D01*
X201500D01*
Y39765D01*
D02*
G37*
G36*
X118000Y37174D02*
Y35500D01*
X119674D01*
X119365Y36246D01*
X118746Y36865D01*
X118000Y37174D01*
D02*
G37*
G36*
X117000D02*
X116254Y36865D01*
X115635Y36246D01*
X115326Y35500D01*
X117000D01*
Y37174D01*
D02*
G37*
G36*
X316438Y39200D02*
X315562D01*
X314754Y38865D01*
X314135Y38246D01*
X313800Y37438D01*
Y36562D01*
X314135Y35754D01*
X314754Y35135D01*
X315562Y34800D01*
X316438D01*
X317246Y35135D01*
X317865Y35754D01*
X318200Y36562D01*
Y37438D01*
X317865Y38246D01*
X317246Y38865D01*
X316438Y39200D01*
D02*
G37*
G36*
X286438D02*
X285562D01*
X284754Y38865D01*
X284135Y38246D01*
X283800Y37438D01*
Y36562D01*
X284135Y35754D01*
X284754Y35135D01*
X285562Y34800D01*
X286438D01*
X287246Y35135D01*
X287865Y35754D01*
X288200Y36562D01*
Y37438D01*
X287865Y38246D01*
X287246Y38865D01*
X286438Y39200D01*
D02*
G37*
G36*
X204765Y36500D02*
X202500D01*
Y34235D01*
X203081Y34391D01*
X203719Y34759D01*
X204241Y35281D01*
X204609Y35919D01*
X204765Y36500D01*
D02*
G37*
G36*
X201500D02*
X199235D01*
X199391Y35919D01*
X199759Y35281D01*
X200281Y34759D01*
X200919Y34391D01*
X201500Y34235D01*
Y36500D01*
D02*
G37*
G36*
X226500Y35174D02*
Y33500D01*
X228174D01*
X227865Y34246D01*
X227246Y34865D01*
X226500Y35174D01*
D02*
G37*
G36*
X225500D02*
X224754Y34865D01*
X224135Y34246D01*
X223826Y33500D01*
X225500D01*
Y35174D01*
D02*
G37*
G36*
X119674Y34500D02*
X118000D01*
Y32826D01*
X118746Y33135D01*
X119365Y33754D01*
X119674Y34500D01*
D02*
G37*
G36*
X117000D02*
X115326D01*
X115635Y33754D01*
X116254Y33135D01*
X117000Y32826D01*
Y34500D01*
D02*
G37*
G36*
X150395Y38000D02*
X149605D01*
X148842Y37796D01*
X148158Y37401D01*
X147599Y36842D01*
X147204Y36158D01*
X147000Y35395D01*
Y34605D01*
X147204Y33842D01*
X147599Y33158D01*
X148158Y32599D01*
X148842Y32204D01*
X149605Y32000D01*
X150395D01*
X151158Y32204D01*
X151842Y32599D01*
X152401Y33158D01*
X152796Y33842D01*
X153000Y34605D01*
Y35395D01*
X152796Y36158D01*
X152401Y36842D01*
X151842Y37401D01*
X151158Y37796D01*
X150395Y38000D01*
D02*
G37*
G36*
X228174Y32500D02*
X226500D01*
Y30826D01*
X227246Y31135D01*
X227865Y31754D01*
X228174Y32500D01*
D02*
G37*
G36*
X225500D02*
X223826D01*
X224135Y31754D01*
X224754Y31135D01*
X225500Y30826D01*
Y32500D01*
D02*
G37*
G36*
X286500Y32174D02*
Y30500D01*
X288174D01*
X287865Y31246D01*
X287246Y31865D01*
X286500Y32174D01*
D02*
G37*
G36*
X285500D02*
X284754Y31865D01*
X284135Y31246D01*
X283826Y30500D01*
X285500D01*
Y32174D01*
D02*
G37*
G36*
X288174Y29500D02*
X286500D01*
Y27826D01*
X287246Y28135D01*
X287865Y28754D01*
X288174Y29500D01*
D02*
G37*
G36*
X285500D02*
X283826D01*
X284135Y28754D01*
X284754Y28135D01*
X285500Y27826D01*
Y29500D01*
D02*
G37*
G36*
X25624Y33437D02*
X24376D01*
X23170Y33114D01*
X22090Y32490D01*
X21207Y31607D01*
X20583Y30527D01*
X20260Y29321D01*
Y28073D01*
X20583Y26867D01*
X21207Y25786D01*
X22090Y24904D01*
X23170Y24280D01*
X24376Y23957D01*
X25624D01*
X26830Y24280D01*
X27911Y24904D01*
X28793Y25786D01*
X29417Y26867D01*
X29740Y28073D01*
Y29321D01*
X29417Y30527D01*
X28793Y31607D01*
X27911Y32490D01*
X26830Y33114D01*
X25624Y33437D01*
D02*
G37*
G36*
X63000Y19674D02*
Y18000D01*
X64674D01*
X64365Y18746D01*
X63746Y19365D01*
X63000Y19674D01*
D02*
G37*
G36*
X62000D02*
X61254Y19365D01*
X60635Y18746D01*
X60326Y18000D01*
X62000D01*
Y19674D01*
D02*
G37*
G36*
X306500Y18174D02*
Y16500D01*
X308174D01*
X307865Y17246D01*
X307246Y17865D01*
X306500Y18174D01*
D02*
G37*
G36*
X305500D02*
X304754Y17865D01*
X304135Y17246D01*
X303826Y16500D01*
X305500D01*
Y18174D01*
D02*
G37*
G36*
X64674Y17000D02*
X63000D01*
Y15326D01*
X63746Y15635D01*
X64365Y16254D01*
X64674Y17000D01*
D02*
G37*
G36*
X62000D02*
X60326D01*
X60635Y16254D01*
X61254Y15635D01*
X62000Y15326D01*
Y17000D01*
D02*
G37*
G36*
X359919Y22100D02*
X359700D01*
Y15300D01*
X366500D01*
Y15519D01*
X366219Y16929D01*
X365669Y18258D01*
X364870Y19454D01*
X363854Y20470D01*
X362658Y21269D01*
X361329Y21820D01*
X359919Y22100D01*
D02*
G37*
G36*
X358700D02*
X358481D01*
X357071Y21820D01*
X355742Y21269D01*
X354546Y20470D01*
X353530Y19454D01*
X352731Y18258D01*
X352181Y16929D01*
X351900Y15519D01*
Y15300D01*
X358700D01*
Y22100D01*
D02*
G37*
G36*
X308174Y15500D02*
X306500D01*
Y13826D01*
X307246Y14135D01*
X307865Y14754D01*
X308174Y15500D01*
D02*
G37*
G36*
X305500D02*
X303826D01*
X304135Y14754D01*
X304754Y14135D01*
X305500Y13826D01*
Y15500D01*
D02*
G37*
G36*
X15219Y17300D02*
X15000D01*
Y10500D01*
X21800D01*
Y10719D01*
X21520Y12129D01*
X20969Y13458D01*
X20170Y14653D01*
X19153Y15670D01*
X17958Y16469D01*
X16629Y17019D01*
X15219Y17300D01*
D02*
G37*
G36*
X14000D02*
X13781D01*
X12371Y17019D01*
X11042Y16469D01*
X9847Y15670D01*
X8830Y14653D01*
X8031Y13458D01*
X7480Y12129D01*
X7200Y10719D01*
Y10500D01*
X14000D01*
Y17300D01*
D02*
G37*
G36*
X123000Y9674D02*
Y8000D01*
X124674D01*
X124365Y8746D01*
X123746Y9365D01*
X123000Y9674D01*
D02*
G37*
G36*
X122000D02*
X121254Y9365D01*
X120635Y8746D01*
X120326Y8000D01*
X122000D01*
Y9674D01*
D02*
G37*
G36*
X105500D02*
Y8000D01*
X107174D01*
X106865Y8746D01*
X106246Y9365D01*
X105500Y9674D01*
D02*
G37*
G36*
X104500D02*
X103754Y9365D01*
X103135Y8746D01*
X102826Y8000D01*
X104500D01*
Y9674D01*
D02*
G37*
G36*
X366500Y14300D02*
X359700D01*
Y7500D01*
X359919D01*
X361329Y7780D01*
X362658Y8331D01*
X363854Y9130D01*
X364870Y10147D01*
X365669Y11342D01*
X366219Y12671D01*
X366500Y14081D01*
Y14300D01*
D02*
G37*
G36*
X358700D02*
X351900D01*
Y14081D01*
X352181Y12671D01*
X352731Y11342D01*
X353530Y10147D01*
X354546Y9130D01*
X355742Y8331D01*
X357071Y7780D01*
X358481Y7500D01*
X358700D01*
Y14300D01*
D02*
G37*
G36*
X158420Y14653D02*
X157380D01*
X156374Y14383D01*
X155473Y13863D01*
X154737Y13127D01*
X154217Y12226D01*
X153947Y11220D01*
Y10180D01*
X154217Y9174D01*
X154737Y8273D01*
X155473Y7537D01*
X156374Y7017D01*
X157380Y6747D01*
X158420D01*
X159426Y7017D01*
X160327Y7537D01*
X161063Y8273D01*
X161583Y9174D01*
X161853Y10180D01*
Y11220D01*
X161583Y12226D01*
X161063Y13127D01*
X160327Y13863D01*
X159426Y14383D01*
X158420Y14653D01*
D02*
G37*
G36*
X266358Y9800D02*
X265642D01*
X264980Y9526D01*
X264474Y9020D01*
X264200Y8358D01*
Y7642D01*
X264474Y6980D01*
X264980Y6474D01*
X265642Y6200D01*
X266358D01*
X267020Y6474D01*
X267526Y6980D01*
X267800Y7642D01*
Y8358D01*
X267526Y9020D01*
X267020Y9526D01*
X266358Y9800D01*
D02*
G37*
G36*
X124674Y7000D02*
X123000D01*
Y5326D01*
X123746Y5635D01*
X124365Y6254D01*
X124674Y7000D01*
D02*
G37*
G36*
X122000D02*
X120326D01*
X120635Y6254D01*
X121254Y5635D01*
X122000Y5326D01*
Y7000D01*
D02*
G37*
G36*
X107174D02*
X105500D01*
Y5326D01*
X106246Y5635D01*
X106865Y6254D01*
X107174Y7000D01*
D02*
G37*
G36*
X104500D02*
X102826D01*
X103135Y6254D01*
X103754Y5635D01*
X104500Y5326D01*
Y7000D01*
D02*
G37*
%LPD*%
D101*
X178500Y65000D02*
D03*
Y75000D02*
D03*
Y85000D02*
D03*
Y95000D02*
D03*
Y105000D02*
D03*
D102*
Y115000D02*
D03*
D105*
X292205Y198858D02*
D03*
D106*
X317795D02*
D03*
X292205Y181142D02*
D03*
X317795D02*
D03*
D108*
X201300Y187200D02*
D03*
X285000Y159000D02*
D03*
X20000Y275000D02*
D03*
X15000Y260000D02*
D03*
D110*
X143000Y53000D02*
D03*
X155000Y133700D02*
D03*
X189000Y182000D02*
D03*
X299000Y312000D02*
D03*
X272000Y313000D02*
D03*
X260000Y310000D02*
D03*
X245000Y306000D02*
D03*
X231000Y302000D02*
D03*
X210400Y307581D02*
D03*
X200401Y277399D02*
D03*
X204000Y244000D02*
D03*
X197000Y307800D02*
D03*
X180400Y309200D02*
D03*
X174700Y270600D02*
D03*
X183625Y184244D02*
D03*
X176300Y224100D02*
D03*
X190000Y240000D02*
D03*
X166800Y308700D02*
D03*
X7800Y275000D02*
D03*
X152300Y344900D02*
D03*
X232200Y152400D02*
D03*
X148700Y159200D02*
D03*
X152800Y144800D02*
D03*
X165400Y90800D02*
D03*
X163200Y77600D02*
D03*
X177000Y181100D02*
D03*
X210400Y186900D02*
D03*
X186100Y162400D02*
D03*
X218500Y147900D02*
D03*
X219000Y143800D02*
D03*
X213600Y146500D02*
D03*
X209600Y152000D02*
D03*
X217500Y181800D02*
D03*
X206000Y192100D02*
D03*
X209200Y160100D02*
D03*
X203000Y160000D02*
D03*
X198100Y140400D02*
D03*
X203000Y165000D02*
D03*
X130000Y280000D02*
D03*
X265125D02*
D03*
Y285400D02*
D03*
X280000Y280000D02*
D03*
X197300Y109500D02*
D03*
X198800Y105200D02*
D03*
X199100Y101200D02*
D03*
X216975Y114400D02*
D03*
X219600Y129900D02*
D03*
X238700Y112690D02*
D03*
X252100D02*
D03*
X246600D02*
D03*
X270187Y124912D02*
D03*
X263300Y115700D02*
D03*
X281400Y101000D02*
D03*
X286400Y107675D02*
D03*
X274100Y107500D02*
D03*
X279300Y97100D02*
D03*
X281000Y105200D02*
D03*
X227500Y167500D02*
D03*
X217500D02*
D03*
X240200Y166500D02*
D03*
X228000Y163000D02*
D03*
X224900Y174875D02*
D03*
X220400Y174700D02*
D03*
X215600Y122875D02*
D03*
X211000Y125500D02*
D03*
X216100Y118600D02*
D03*
X190600Y124400D02*
D03*
X326000Y125000D02*
D03*
X266700Y113200D02*
D03*
X303100Y108700D02*
D03*
X280000Y111800D02*
D03*
X276800Y87400D02*
D03*
X197000Y91700D02*
D03*
X245000Y100000D02*
D03*
X34500Y289900D02*
D03*
X247400Y151500D02*
D03*
X63000Y170000D02*
D03*
X283500Y41500D02*
D03*
X122500Y7500D02*
D03*
X287500Y131000D02*
D03*
X306000Y132500D02*
D03*
X237500Y183771D02*
D03*
X270033Y120000D02*
D03*
X280800Y187000D02*
D03*
X102500Y136500D02*
D03*
X64500Y56000D02*
D03*
X232500Y135000D02*
D03*
X287500Y117500D02*
D03*
X303000Y116000D02*
D03*
X270000Y41000D02*
D03*
X281000Y76000D02*
D03*
X233000Y63000D02*
D03*
X120000Y127500D02*
D03*
X205000Y56000D02*
D03*
X228000Y85000D02*
D03*
X249000D02*
D03*
X238000D02*
D03*
X132000Y131000D02*
D03*
X174000Y138000D02*
D03*
X131000Y253000D02*
D03*
X84000Y164000D02*
D03*
X98000Y201000D02*
D03*
X30000Y273000D02*
D03*
X23000Y223000D02*
D03*
X274000Y180000D02*
D03*
X268000Y191000D02*
D03*
X260000D02*
D03*
X251000D02*
D03*
X245000Y181000D02*
D03*
X302000Y152000D02*
D03*
X300000Y140000D02*
D03*
X228000Y44000D02*
D03*
X262000Y84000D02*
D03*
X303000Y170000D02*
D03*
Y163000D02*
D03*
X319000Y141000D02*
D03*
X317000Y148000D02*
D03*
Y157000D02*
D03*
X226000Y33000D02*
D03*
X306000Y16000D02*
D03*
X286000Y30000D02*
D03*
X95000Y182000D02*
D03*
X130000Y225000D02*
D03*
X86000Y229000D02*
D03*
X58000Y179000D02*
D03*
X30000Y196000D02*
D03*
X317500Y210000D02*
D03*
X242500Y205000D02*
D03*
X202500Y132500D02*
D03*
Y137500D02*
D03*
X190000Y145000D02*
D03*
X132500Y140000D02*
D03*
Y120000D02*
D03*
X70000Y100000D02*
D03*
X85000Y127500D02*
D03*
X50000Y115000D02*
D03*
X35000Y160000D02*
D03*
X90000Y95000D02*
D03*
X117500Y35000D02*
D03*
X62500Y17500D02*
D03*
X105000Y7500D02*
D03*
X235000Y130000D02*
D03*
X286000Y37000D02*
D03*
X197000Y115000D02*
D03*
X316000Y37000D02*
D03*
X306000Y40000D02*
D03*
X221500Y107500D02*
D03*
D113*
X239000Y249000D02*
D03*
X187000Y258500D02*
D03*
X144900Y201100D02*
D03*
X160500Y245400D02*
D03*
X138500Y75000D02*
D03*
X57400Y290100D02*
D03*
X108200Y292200D02*
D03*
X91200Y287400D02*
D03*
X60500Y71000D02*
D03*
Y83500D02*
D03*
X60000Y77500D02*
D03*
X285000Y49000D02*
D03*
X150000Y35000D02*
D03*
X70000Y277500D02*
D03*
X105000Y190000D02*
D03*
X17500Y210000D02*
D03*
X42500Y240000D02*
D03*
X45000Y217500D02*
D03*
X25000Y180000D02*
D03*
X77500Y87500D02*
D03*
X320301Y134886D02*
D03*
X317500Y167500D02*
D03*
X128500Y195000D02*
D03*
D124*
X294110Y334150D02*
D03*
D125*
X307890D02*
D03*
D126*
X75800Y333500D02*
D03*
X62020D02*
D03*
X48241D02*
D03*
X34461D02*
D03*
X272139Y333600D02*
D03*
X258359D02*
D03*
X244580D02*
D03*
X230800D02*
D03*
X208859Y334000D02*
D03*
X195080D02*
D03*
X181300D02*
D03*
X167520D02*
D03*
X138261Y333800D02*
D03*
X124482D02*
D03*
X110702D02*
D03*
X96923D02*
D03*
D127*
X136752Y257933D02*
D03*
D128*
Y250059D02*
D03*
Y242185D02*
D03*
Y234311D02*
D03*
Y226437D02*
D03*
Y218563D02*
D03*
Y210689D02*
D03*
Y202815D02*
D03*
Y194941D02*
D03*
Y187067D02*
D03*
Y179193D02*
D03*
Y171319D02*
D03*
Y163445D02*
D03*
X152500Y253996D02*
D03*
Y246122D02*
D03*
Y238248D02*
D03*
Y230374D02*
D03*
Y222500D02*
D03*
Y214626D02*
D03*
Y206752D02*
D03*
Y198878D02*
D03*
Y191004D02*
D03*
Y183130D02*
D03*
Y175256D02*
D03*
Y167382D02*
D03*
D129*
X157900Y10700D02*
D03*
X205600Y80900D02*
D03*
X253100Y262000D02*
D03*
D130*
X25000Y78303D02*
D03*
Y28697D02*
D03*
D131*
X49000Y85000D02*
D03*
D132*
X202000Y37000D02*
D03*
D133*
X266000Y8000D02*
D03*
X221225Y158625D02*
D03*
X253100Y155200D02*
D03*
X264900D02*
D03*
X284800Y138200D02*
D03*
X283566Y118629D02*
D03*
X258000Y102000D02*
D03*
X252200Y100400D02*
D03*
X247600Y102600D02*
D03*
X242300Y155100D02*
D03*
X239000Y102500D02*
D03*
X274000Y161500D02*
D03*
D134*
X230600Y159900D02*
D03*
D135*
X241574Y146739D02*
D03*
X245904D02*
D03*
X250235D02*
D03*
X254566D02*
D03*
X258897D02*
D03*
X263227D02*
D03*
X241574Y142408D02*
D03*
X245904Y142408D02*
D03*
X250235Y142408D02*
D03*
X254566D02*
D03*
X258897D02*
D03*
X263227D02*
D03*
X241574Y138078D02*
D03*
X245904D02*
D03*
X250235D02*
D03*
X254566D02*
D03*
X258897D02*
D03*
X263227D02*
D03*
X241574Y133747D02*
D03*
X245904D02*
D03*
X250235D02*
D03*
X254566D02*
D03*
X258897D02*
D03*
X263227D02*
D03*
X241574Y129416D02*
D03*
X245904D02*
D03*
X250235D02*
D03*
X254566D02*
D03*
X258897D02*
D03*
X263227D02*
D03*
X241574Y125086D02*
D03*
X245904D02*
D03*
X250235D02*
D03*
X254566D02*
D03*
X258897D02*
D03*
X263227D02*
D03*
X241574Y120755D02*
D03*
X245904D02*
D03*
X250235Y120755D02*
D03*
X254566Y120755D02*
D03*
X258897D02*
D03*
X263227D02*
D03*
D136*
X151000Y272100D02*
D03*
X127500Y265000D02*
D03*
X120000Y175000D02*
D03*
X15000Y95000D02*
D03*
M02*
