G04*
G04 #@! TF.GenerationSoftware,Altium Limited,Altium Designer,25.2.1 (25)*
G04*
G04 Layer_Color=16711935*
%FSLAX25Y25*%
%MOIN*%
G70*
G04*
G04 #@! TF.SameCoordinates,93333BF9-B9FA-480E-9F15-3530D08D3613*
G04*
G04*
G04 #@! TF.FilePolarity,Positive*
G04*
G01*
G75*
%ADD11C,0.00787*%
%ADD14C,0.00500*%
%ADD17C,0.00300*%
%ADD141C,0.00394*%
%ADD143C,0.00000*%
%ADD144C,0.00100*%
D11*
X267313Y258276D02*
G03*
X267313Y258276I-394J0D01*
G01*
X162307Y53425D02*
Y56575D01*
X156007D02*
X162307D01*
X156007Y53425D02*
Y56575D01*
Y53425D02*
X162307D01*
X131650Y15425D02*
Y18575D01*
X125350D02*
X131650D01*
X125350Y15425D02*
Y18575D01*
Y15425D02*
X131650D01*
X212799Y259311D02*
Y285689D01*
Y259311D02*
X227366D01*
Y285689D01*
X212799D02*
X227366D01*
X177989Y213224D02*
X187176Y222411D01*
X177989Y213224D02*
X196224Y194989D01*
X205411Y204176D01*
X187176Y222411D02*
X205411Y204176D01*
X166163Y277039D02*
X174037D01*
X166163D02*
Y281961D01*
X174037D01*
Y277039D02*
Y281961D01*
X152594Y93504D02*
Y106496D01*
X126806D02*
X152594D01*
X126806Y93504D02*
Y106496D01*
Y93504D02*
X152594D01*
X173106Y120492D02*
X183894D01*
X173106Y59508D02*
Y120492D01*
Y59508D02*
X183894D01*
Y120492D01*
X293504Y44555D02*
Y51445D01*
Y44555D02*
X306496D01*
Y51445D01*
X293504D02*
X306496D01*
X328492Y44555D02*
Y51445D01*
X315500D02*
X328492D01*
X315500Y44555D02*
Y51445D01*
Y44555D02*
X328492D01*
X194449Y233327D02*
Y236673D01*
Y233327D02*
X200551D01*
Y236673D01*
X194449D02*
X200551D01*
X11143Y280707D02*
Y294093D01*
X4057Y280707D02*
X11143D01*
X4057D02*
Y294093D01*
X11143D01*
X86307Y150457D02*
X99693D01*
X86307D02*
Y157543D01*
X99693D01*
Y150457D02*
Y157543D01*
X161425Y112150D02*
X164575D01*
X161425Y105850D02*
Y112150D01*
Y105850D02*
X164575D01*
Y112150D01*
X118917Y229370D02*
X125807D01*
Y225630D02*
Y229370D01*
X118917Y225630D02*
X125807D01*
X118917D02*
Y229370D01*
X118169Y240256D02*
X126831D01*
Y234744D02*
Y240256D01*
X118169Y234744D02*
X126831D01*
X118169D02*
Y240256D01*
X79193Y226457D02*
Y233543D01*
X65807D02*
X79193D01*
X65807Y226457D02*
Y233543D01*
Y226457D02*
X79193D01*
X7762Y234727D02*
X12773Y239738D01*
X7762Y234727D02*
X17227Y225262D01*
X22238Y230273D01*
X12773Y239738D02*
X22238Y230273D01*
X63701Y245098D02*
X76299D01*
Y269902D01*
X63701D02*
X76299D01*
X63701Y245098D02*
Y269902D01*
X91201Y245098D02*
Y269902D01*
X103799D01*
Y245098D02*
Y269902D01*
X91201Y245098D02*
X103799D01*
X89350Y176575D02*
X95650D01*
Y173425D02*
Y176575D01*
X89350Y173425D02*
X95650D01*
X89350D02*
Y176575D01*
X98693Y93425D02*
X104993D01*
X98693D02*
Y96575D01*
X104993D01*
Y93425D02*
Y96575D01*
X235925Y171986D02*
Y178285D01*
X239075D01*
Y171986D02*
Y178285D01*
X235925Y171986D02*
X239075D01*
X290850Y119575D02*
X297150D01*
Y116425D02*
Y119575D01*
X290850Y116425D02*
X297150D01*
X290850D02*
Y119575D01*
X247425Y95650D02*
X250575D01*
X247425Y89350D02*
Y95650D01*
Y89350D02*
X250575D01*
Y95650D01*
X259425Y96150D02*
X262575D01*
X259425Y89850D02*
Y96150D01*
Y89850D02*
X262575D01*
Y96150D01*
X226425Y95514D02*
X229575D01*
X226425Y89215D02*
Y95514D01*
Y89215D02*
X229575D01*
Y95514D01*
X235925Y95650D02*
X239075D01*
X235925Y89350D02*
Y95650D01*
Y89350D02*
X239075D01*
Y95650D01*
X213285Y138425D02*
Y141575D01*
X206986D02*
X213285D01*
X206986Y138425D02*
Y141575D01*
Y138425D02*
X213285D01*
X259016Y184968D02*
X260984D01*
X259016Y181032D02*
Y184968D01*
Y181032D02*
X260984D01*
Y184968D01*
X264016Y173969D02*
X265984D01*
X264016Y170031D02*
Y173969D01*
Y170031D02*
X265984D01*
Y173969D01*
X246425Y168850D02*
X249575D01*
Y175150D01*
X246425D02*
X249575D01*
X246425Y168850D02*
Y175150D01*
X256016Y173969D02*
X257984D01*
X256016Y170031D02*
Y173969D01*
Y170031D02*
X257984D01*
Y173969D01*
X250016Y184853D02*
X251984D01*
X250016Y180916D02*
Y184853D01*
Y180916D02*
X251984D01*
Y184853D01*
X272016Y174084D02*
X273984D01*
X272016Y170147D02*
Y174084D01*
Y170147D02*
X273984D01*
Y174084D01*
X292969Y140016D02*
Y141984D01*
X289032D02*
X292969D01*
X289032Y140016D02*
Y141984D01*
Y140016D02*
X292969D01*
X311968Y147016D02*
Y148984D01*
X308032D02*
X311968D01*
X308032Y147016D02*
Y148984D01*
Y147016D02*
X311968D01*
X296084Y148016D02*
Y149984D01*
X292147D02*
X296084D01*
X292147Y148016D02*
Y149984D01*
Y148016D02*
X296084D01*
X311968Y156016D02*
Y157984D01*
X308032D02*
X311968D01*
X308032Y156016D02*
Y157984D01*
Y156016D02*
X311968D01*
X267016Y184968D02*
X268984D01*
X267016Y181032D02*
Y184968D01*
Y181032D02*
X268984D01*
Y184968D01*
X296969Y160016D02*
Y161984D01*
X293032D02*
X296969D01*
X293032Y160016D02*
Y161984D01*
Y160016D02*
X296969D01*
X297084Y168016D02*
Y169984D01*
X293147D02*
X297084D01*
X293147Y168016D02*
Y169984D01*
Y168016D02*
X297084D01*
X214150Y129425D02*
Y132575D01*
X207850D02*
X214150D01*
X207850Y129425D02*
Y132575D01*
Y129425D02*
X214150D01*
X292850D02*
Y132575D01*
Y129425D02*
X299150D01*
Y132575D01*
X292850D02*
X299150D01*
X203425Y68014D02*
X206575D01*
X203425Y61715D02*
Y68014D01*
Y61715D02*
X206575D01*
Y68014D01*
X225925Y55785D02*
X229075D01*
X225925Y49486D02*
Y55785D01*
Y49486D02*
X229075D01*
Y55785D01*
X307850Y137425D02*
Y140575D01*
Y137425D02*
X314150D01*
Y140575D01*
X307850D02*
X314150D01*
X290850Y106425D02*
Y109575D01*
Y106425D02*
X297150D01*
Y109575D01*
X290850D02*
X297150D01*
X300327Y213106D02*
Y219406D01*
X303673D01*
Y213106D02*
Y219406D01*
X300327Y213106D02*
X303673D01*
X310315Y126575D02*
X316614D01*
Y123425D02*
Y126575D01*
X310315Y123425D02*
X316614D01*
X310315D02*
Y126575D01*
X243201Y286650D02*
X255799D01*
Y280350D02*
Y286650D01*
X243201Y280350D02*
X255799D01*
X243201D02*
Y286650D01*
X92201Y19150D02*
X104799D01*
Y12850D02*
Y19150D01*
X92201Y12850D02*
X104799D01*
X92201D02*
Y19150D01*
X67870Y41236D02*
Y53244D01*
Y41236D02*
X74760D01*
Y53244D01*
X67870D02*
X74760D01*
X76378Y59646D02*
Y65354D01*
X67716D02*
X76378D01*
X67716Y59646D02*
Y65354D01*
Y59646D02*
X76378D01*
X292618Y202382D02*
X317382D01*
Y177618D02*
Y202382D01*
X292618Y177618D02*
X317382D01*
X292618D02*
Y202382D01*
X133479Y33564D02*
Y46163D01*
X123637Y33564D02*
X133479D01*
X123637D02*
Y46163D01*
X133479D01*
X173693Y140925D02*
Y144075D01*
Y140925D02*
X179993D01*
Y144075D01*
X173693D02*
X179993D01*
X216516Y71969D02*
X218484D01*
X216516Y68032D02*
Y71969D01*
Y68032D02*
X218484D01*
Y71969D01*
X234850Y194425D02*
Y197575D01*
Y194425D02*
X241150D01*
Y197575D01*
X234850D02*
X241150D01*
X61539Y33429D02*
X66461D01*
X61539Y25555D02*
Y33429D01*
Y25555D02*
X66461D01*
Y33429D01*
X244114Y54425D02*
Y57575D01*
X237815D02*
X244114D01*
X237815Y54425D02*
Y57575D01*
Y54425D02*
X244114D01*
X243150Y32425D02*
Y35575D01*
X236850D02*
X243150D01*
X236850Y32425D02*
Y35575D01*
Y32425D02*
X243150D01*
X76150Y105425D02*
Y108575D01*
X69850D02*
X76150D01*
X69850Y105425D02*
Y108575D01*
Y105425D02*
X76150D01*
X89264Y76736D02*
X115736D01*
X89264Y50264D02*
Y76736D01*
Y50264D02*
X115736D01*
Y76736D01*
D14*
X263671Y255323D02*
X282766D01*
X263671Y206110D02*
Y255323D01*
Y206110D02*
X282766D01*
Y255323D01*
D17*
X142731Y140018D02*
X146064Y136685D01*
X142731D02*
X146064Y140018D01*
X142731Y138352D02*
X146064D01*
X144397Y136685D02*
Y140018D01*
X26421Y292786D02*
X24755Y291120D01*
Y292786D02*
X26421Y291120D01*
X25588Y292786D02*
Y291120D01*
X24755Y291953D02*
X26421D01*
X27583Y263000D02*
X25916Y261334D01*
Y263000D02*
X27583Y261334D01*
X26750Y263000D02*
Y261334D01*
X25916Y262167D02*
X27583D01*
D141*
X182669Y31669D02*
G03*
X182669Y31669I-1969J0D01*
G01*
X162900Y10700D02*
G03*
X162900Y10700I-5000J0D01*
G01*
X210600Y80900D02*
G03*
X210600Y80900I-5000J0D01*
G01*
X258100Y262000D02*
G03*
X258100Y262000I-5000J0D01*
G01*
X274448Y113668D02*
G03*
X274448Y113668I-1969J0D01*
G01*
X38169Y130669D02*
G03*
X38169Y130669I-1969J0D01*
G01*
X40138Y216299D02*
G03*
X40138Y216299I-1969J0D01*
G01*
X98169Y128169D02*
G03*
X98169Y128169I-1969J0D01*
G01*
X327110Y23331D02*
G03*
X327110Y23331I-1969J0D01*
G01*
X177157Y28126D02*
X196843D01*
X177157Y43874D02*
X196843D01*
X177157Y28126D02*
Y43874D01*
X196843Y28126D02*
Y43874D01*
X284465Y345173D02*
X317535D01*
Y316827D02*
Y345173D01*
X284465Y316827D02*
X317535D01*
X284465D02*
Y345173D01*
X169035Y153012D02*
Y268366D01*
X150728Y153012D02*
X169035D01*
X150728D02*
Y268366D01*
X169035D01*
X167067D02*
X169035Y266398D01*
X146066Y282057D02*
X154334D01*
X146066Y276743D02*
X154334D01*
X146066D02*
Y282057D01*
X154334Y276743D02*
Y282057D01*
X212697Y235039D02*
X220571D01*
X217618D02*
X220571D01*
Y239961D01*
X212697D02*
X220571D01*
X212697Y235039D02*
Y239961D01*
X228779Y157369D02*
X276023D01*
X228779Y110125D02*
X276023D01*
X228779D02*
Y157369D01*
X276023Y110125D02*
Y157369D01*
X229016Y68032D02*
X230984D01*
Y71969D01*
X229016D02*
X230984D01*
X229016Y68032D02*
Y71969D01*
X88209Y160430D02*
X101791D01*
X88209Y167714D02*
X101791D01*
Y160430D02*
Y167714D01*
X88209Y160430D02*
Y167714D01*
X66201Y134153D02*
X78799D01*
X66201Y140847D02*
X78799D01*
Y134153D02*
Y140847D01*
X66201Y134153D02*
Y140847D01*
X32658Y127126D02*
X52342D01*
X32658Y142874D02*
X52342D01*
X32658Y127126D02*
Y142874D01*
X52342Y127126D02*
Y142874D01*
X66102Y209252D02*
X78898D01*
X66102Y215748D02*
X78898D01*
Y209252D02*
Y215748D01*
X66102Y209252D02*
Y215748D01*
X88307Y208957D02*
X101693D01*
X88307Y216043D02*
X101693D01*
Y208957D02*
Y216043D01*
X88307Y208957D02*
Y216043D01*
X34626Y200157D02*
X50374D01*
X34626Y219843D02*
X50374D01*
Y200157D02*
Y219843D01*
X34626Y200157D02*
Y219843D01*
X66102Y186752D02*
X78898D01*
X66102Y193248D02*
X78898D01*
Y186752D02*
Y193248D01*
X66102Y186752D02*
Y193248D01*
X70669Y165146D02*
Y170854D01*
X79331Y165146D02*
Y170854D01*
X70669D02*
X79331D01*
X70669Y165146D02*
X79331D01*
X65807Y176457D02*
Y183543D01*
X79193Y176457D02*
Y183543D01*
X65807D02*
X79193D01*
X65807Y176457D02*
X79193D01*
X40669Y157146D02*
Y162854D01*
X49331Y157146D02*
Y162854D01*
X40669D02*
X49331D01*
X40669Y157146D02*
X49331D01*
X95827Y111142D02*
X109409D01*
X95827Y103858D02*
X109409D01*
X95827D02*
Y111142D01*
X109409Y103858D02*
Y111142D01*
X66201Y154154D02*
Y160846D01*
X78799Y154154D02*
Y160846D01*
X66201D02*
X78799D01*
X66201Y154154D02*
X78799D01*
X92658Y124626D02*
X112343D01*
X92658Y140374D02*
X112343D01*
X92658Y124626D02*
Y140374D01*
X112343Y124626D02*
Y140374D01*
X289315Y11126D02*
Y26874D01*
X328685Y11126D02*
Y26874D01*
X289315Y11126D02*
X328685D01*
X289315Y26874D02*
X328685D01*
X278228Y265811D02*
Y272504D01*
X281772Y265811D02*
Y272504D01*
X278228Y265811D02*
X281772D01*
X278228Y272504D02*
X281772D01*
X263228Y264436D02*
Y271129D01*
X266772Y264436D02*
Y271129D01*
X263228Y264436D02*
X266772D01*
X263228Y271129D02*
X266772D01*
X40748Y45627D02*
X52559D01*
Y41690D02*
Y45627D01*
X40748Y41690D02*
X52559D01*
X40748Y61375D02*
X52559D01*
Y65312D01*
X40748D02*
X52559D01*
X9252Y32831D02*
Y74169D01*
Y32831D02*
X40748D01*
X9252Y74169D02*
X40748D01*
Y32831D02*
Y74169D01*
X253157Y36339D02*
Y53661D01*
X272843D01*
Y36339D02*
Y53661D01*
X253157Y36339D02*
X272843D01*
X253157Y38898D02*
X255716Y36339D01*
X202169Y248646D02*
X210831D01*
X202169Y254354D02*
X210831D01*
Y248646D02*
Y254354D01*
X202169Y248646D02*
Y254354D01*
X277102Y197320D02*
Y201060D01*
X270213Y197320D02*
Y201060D01*
Y197320D02*
X277102D01*
X270213Y201060D02*
X277102D01*
X278343Y69677D02*
X283658D01*
X278343Y61409D02*
X283658D01*
Y69677D01*
X278343Y61409D02*
Y69677D01*
X79398Y114752D02*
Y121248D01*
X66602Y114752D02*
Y121248D01*
Y114752D02*
X79398D01*
X66602Y121248D02*
X79398D01*
X70669Y129854D02*
X79331D01*
X70669Y124146D02*
X79331D01*
X70669D02*
Y129854D01*
X79331Y124146D02*
Y129854D01*
X91504Y26154D02*
Y32847D01*
X104496Y26154D02*
Y32847D01*
X91504D02*
X104496D01*
X91504Y26154D02*
X104496D01*
X95114Y37244D02*
X103579D01*
X95114Y42756D02*
X103579D01*
Y37244D02*
Y42756D01*
X95114Y37244D02*
Y42756D01*
D143*
X150131Y141152D02*
G03*
X152531Y141152I1200J0D01*
G01*
X29638Y290986D02*
G03*
X29638Y288586I0J-1200D01*
G01*
X30800Y261200D02*
G03*
X30800Y258800I0J-1200D01*
G01*
D144*
X142481Y121052D02*
Y141152D01*
X160181D01*
Y121052D02*
Y141152D01*
X142481Y121052D02*
X160181D01*
Y140659D02*
X164331D01*
Y139459D02*
Y140659D01*
X160181Y139459D02*
X164331D01*
X160181D02*
Y140659D01*
Y138100D02*
X164331D01*
Y136900D02*
Y138100D01*
X160181Y136900D02*
X164331D01*
X160181D02*
Y138100D01*
Y135541D02*
X164331D01*
Y134341D02*
Y135541D01*
X160181Y134341D02*
X164331D01*
X160181D02*
Y135541D01*
Y132982D02*
X164331D01*
Y131782D02*
Y132982D01*
X160181Y131782D02*
X164331D01*
X160181D02*
Y132982D01*
Y130423D02*
X164331D01*
Y129223D02*
Y130423D01*
X160181Y129223D02*
X164331D01*
X160181D02*
Y130423D01*
Y127864D02*
X164331D01*
Y126664D02*
Y127864D01*
X160181Y126664D02*
X164331D01*
X160181D02*
Y127864D01*
Y125305D02*
X164331D01*
Y124105D02*
Y125305D01*
X160181Y124105D02*
X164331D01*
X160181D02*
Y125305D01*
Y122746D02*
X164331D01*
Y121546D02*
Y122746D01*
X160181Y121546D02*
X164331D01*
X160181D02*
Y122746D01*
X138331Y121546D02*
X142481D01*
X138331D02*
Y122746D01*
X142481D01*
Y121546D02*
Y122746D01*
X138331Y124105D02*
X142481D01*
X138331D02*
Y125305D01*
X142481D01*
Y124105D02*
Y125305D01*
X138331Y126664D02*
X142481D01*
X138331D02*
Y127864D01*
X142481D01*
Y126664D02*
Y127864D01*
X138331Y129223D02*
X142481D01*
X138331D02*
Y130423D01*
X142481D01*
Y129223D02*
Y130423D01*
X138331Y131782D02*
X142481D01*
X138331D02*
Y132982D01*
X142481D01*
Y131782D02*
Y132982D01*
X138331Y134341D02*
X142481D01*
X138331D02*
Y135541D01*
X142481D01*
Y134341D02*
Y135541D01*
X138331Y136900D02*
X142481D01*
X138331D02*
Y138100D01*
X142481D01*
Y136900D02*
Y138100D01*
X138331Y139459D02*
X142481D01*
X138331D02*
Y140659D01*
X142481D01*
Y139459D02*
Y140659D01*
X26877Y293036D02*
X28477D01*
Y295586D01*
X26877D02*
X28477D01*
X26877Y293036D02*
Y295586D01*
X24318Y293036D02*
X25918D01*
Y295586D01*
X24318D02*
X25918D01*
X24318Y293036D02*
Y295586D01*
X21759Y293036D02*
X23359D01*
Y295586D01*
X21759D02*
X23359D01*
X21759Y293036D02*
Y295586D01*
X19200Y293036D02*
X20800D01*
Y295586D01*
X19200D02*
X20800D01*
X19200Y293036D02*
Y295586D01*
Y286536D02*
X20800D01*
X19200Y283986D02*
Y286536D01*
Y283986D02*
X20800D01*
Y286536D01*
X21759D02*
X23359D01*
X21759Y283986D02*
Y286536D01*
Y283986D02*
X23359D01*
Y286536D01*
X24318D02*
X25918D01*
X24318Y283986D02*
Y286536D01*
Y283986D02*
X25918D01*
Y286536D01*
X26877D02*
X28477D01*
X26877Y283986D02*
Y286536D01*
Y283986D02*
X28477D01*
Y286536D01*
X18038D02*
Y293036D01*
Y286536D02*
X29638D01*
Y293036D01*
X18038D02*
X29638D01*
X19200Y263250D02*
X30800D01*
Y256750D02*
Y263250D01*
X19200Y256750D02*
X30800D01*
X19200D02*
Y263250D01*
X29638Y254200D02*
Y256750D01*
X28038Y254200D02*
X29638D01*
X28038D02*
Y256750D01*
X29638D01*
X27079Y254200D02*
Y256750D01*
X25480Y254200D02*
X27079D01*
X25480D02*
Y256750D01*
X27079D01*
X24521Y254200D02*
Y256750D01*
X22920Y254200D02*
X24521D01*
X22920D02*
Y256750D01*
X24521D01*
X21961Y254200D02*
Y256750D01*
X20361Y254200D02*
X21961D01*
X20361D02*
Y256750D01*
X21961D01*
X20361Y263250D02*
Y265800D01*
X21961D01*
Y263250D02*
Y265800D01*
X20361Y263250D02*
X21961D01*
X22920D02*
Y265800D01*
X24521D01*
Y263250D02*
Y265800D01*
X22920Y263250D02*
X24521D01*
X25480D02*
Y265800D01*
X27079D01*
Y263250D02*
Y265800D01*
X25480Y263250D02*
X27079D01*
X28038D02*
Y265800D01*
X29638D01*
Y263250D02*
Y265800D01*
X28038Y263250D02*
X29638D01*
M02*
