G04*
G04 #@! TF.GenerationSoftware,Altium Limited,Altium Designer,25.2.1 (25)*
G04*
G04 Layer_Physical_Order=4*
G04 Layer_Color=16711680*
%FSLAX25Y25*%
%MOIN*%
G70*
G04*
G04 #@! TF.SameCoordinates,93333BF9-B9FA-480E-9F15-3530D08D3613*
G04*
G04*
G04 #@! TF.FilePolarity,Positive*
G04*
G01*
G75*
%ADD16C,0.01000*%
%ADD101C,0.06181*%
%ADD102R,0.06181X0.06181*%
%ADD105R,0.06063X0.06063*%
%ADD106C,0.06063*%
%ADD108C,0.03200*%
%ADD110C,0.02400*%
%ADD113C,0.04000*%
%ADD120C,0.00850*%
%ADD122C,0.00800*%
%ADD124C,0.08268*%
G04:AMPARAMS|DCode=125|XSize=82.68mil|YSize=82.68mil|CornerRadius=20.67mil|HoleSize=0mil|Usage=FLASHONLY|Rotation=180.000|XOffset=0mil|YOffset=0mil|HoleType=Round|Shape=RoundedRectangle|*
%AMROUNDEDRECTD125*
21,1,0.08268,0.04134,0,0,180.0*
21,1,0.04134,0.08268,0,0,180.0*
1,1,0.04134,-0.02067,0.02067*
1,1,0.04134,0.02067,0.02067*
1,1,0.04134,0.02067,-0.02067*
1,1,0.04134,-0.02067,-0.02067*
%
%ADD125ROUNDEDRECTD125*%
%ADD126C,0.07874*%
%ADD127R,0.05492X0.05492*%
%ADD128C,0.05492*%
%ADD129C,0.05906*%
%ADD130C,0.07480*%
%ADD131C,0.03000*%
%ADD132C,0.03600*%
%ADD133C,0.01600*%
%ADD134C,0.02000*%
%ADD135C,0.01968*%
%ADD136C,0.05000*%
D16*
X199600Y124400D02*
X219000Y143800D01*
X190600Y124400D02*
X199600D01*
X209600Y151950D02*
Y152000D01*
X198100Y140450D02*
X209600Y151950D01*
X198100Y140400D02*
Y140450D01*
X210600Y122800D02*
X215525D01*
X197300Y109500D02*
X210600Y122800D01*
X212200Y118600D02*
X216100D01*
X198800Y105200D02*
X212200Y118600D01*
X212300Y114400D02*
X216975D01*
X199100Y101200D02*
X212300Y114400D01*
X267994Y127417D02*
Y145485D01*
Y127417D02*
X270187Y125224D01*
Y124912D02*
Y125224D01*
X215525Y122800D02*
X215600Y122875D01*
X134600Y272100D02*
X151000D01*
X127500Y265000D02*
X134600Y272100D01*
X286000Y37000D02*
X316000D01*
X283500Y41500D02*
X304121D01*
X305621Y40000D02*
X306000D01*
X304121Y41500D02*
X305621Y40000D01*
X320301Y134886D02*
X323000Y137584D01*
Y162000D01*
X317500Y167500D02*
X323000Y162000D01*
X17500Y210000D02*
X42500Y235000D01*
Y240000D01*
D101*
X178500Y65000D02*
D03*
Y75000D02*
D03*
Y85000D02*
D03*
Y95000D02*
D03*
Y105000D02*
D03*
D102*
Y115000D02*
D03*
D105*
X292205Y198858D02*
D03*
D106*
X317795D02*
D03*
X292205Y181142D02*
D03*
X317795D02*
D03*
D108*
X201300Y187200D02*
D03*
X285000Y159000D02*
D03*
X20000Y275000D02*
D03*
X15000Y260000D02*
D03*
D110*
X143000Y53000D02*
D03*
X155000Y133700D02*
D03*
X189000Y182000D02*
D03*
X299000Y312000D02*
D03*
X272000Y313000D02*
D03*
X260000Y310000D02*
D03*
X245000Y306000D02*
D03*
X231000Y302000D02*
D03*
X210400Y307581D02*
D03*
X200401Y277399D02*
D03*
X204000Y244000D02*
D03*
X197000Y307800D02*
D03*
X180400Y309200D02*
D03*
X174700Y270600D02*
D03*
X183625Y184244D02*
D03*
X176300Y224100D02*
D03*
X190000Y240000D02*
D03*
X166800Y308700D02*
D03*
X7800Y275000D02*
D03*
X152300Y344900D02*
D03*
X232200Y152400D02*
D03*
X148700Y159200D02*
D03*
X152800Y144800D02*
D03*
X165400Y90800D02*
D03*
X163200Y77600D02*
D03*
X177000Y181100D02*
D03*
X210400Y186900D02*
D03*
X186100Y162400D02*
D03*
X218500Y147900D02*
D03*
X219000Y143800D02*
D03*
X213600Y146500D02*
D03*
X209600Y152000D02*
D03*
X217500Y181800D02*
D03*
X206000Y192100D02*
D03*
X209200Y160100D02*
D03*
X203000Y160000D02*
D03*
X198100Y140400D02*
D03*
X203000Y165000D02*
D03*
X130000Y280000D02*
D03*
X265125D02*
D03*
Y285400D02*
D03*
X280000Y280000D02*
D03*
X197300Y109500D02*
D03*
X198800Y105200D02*
D03*
X199100Y101200D02*
D03*
X216975Y114400D02*
D03*
X219600Y129900D02*
D03*
X238700Y112690D02*
D03*
X252100D02*
D03*
X246600D02*
D03*
X270187Y124912D02*
D03*
X263300Y115700D02*
D03*
X281400Y101000D02*
D03*
X286400Y107675D02*
D03*
X274100Y107500D02*
D03*
X279300Y97100D02*
D03*
X281000Y105200D02*
D03*
X227500Y167500D02*
D03*
X217500D02*
D03*
X240200Y166500D02*
D03*
X228000Y163000D02*
D03*
X224900Y174875D02*
D03*
X220400Y174700D02*
D03*
X215600Y122875D02*
D03*
X211000Y125500D02*
D03*
X216100Y118600D02*
D03*
X190600Y124400D02*
D03*
X326000Y125000D02*
D03*
X266700Y113200D02*
D03*
X303100Y108700D02*
D03*
X280000Y111800D02*
D03*
X276800Y87400D02*
D03*
X197000Y91700D02*
D03*
X245000Y100000D02*
D03*
X34500Y289900D02*
D03*
X247400Y151500D02*
D03*
X63000Y170000D02*
D03*
X283500Y41500D02*
D03*
X122500Y7500D02*
D03*
X287500Y131000D02*
D03*
X306000Y132500D02*
D03*
X237500Y183771D02*
D03*
X270033Y120000D02*
D03*
X280800Y187000D02*
D03*
X102500Y136500D02*
D03*
X64500Y56000D02*
D03*
X232500Y135000D02*
D03*
X287500Y117500D02*
D03*
X303000Y116000D02*
D03*
X270000Y41000D02*
D03*
X281000Y76000D02*
D03*
X233000Y63000D02*
D03*
X120000Y127500D02*
D03*
X205000Y56000D02*
D03*
X228000Y85000D02*
D03*
X249000D02*
D03*
X238000D02*
D03*
X132000Y131000D02*
D03*
X174000Y138000D02*
D03*
X131000Y253000D02*
D03*
X84000Y164000D02*
D03*
X98000Y201000D02*
D03*
X30000Y273000D02*
D03*
X23000Y223000D02*
D03*
X274000Y180000D02*
D03*
X268000Y191000D02*
D03*
X260000D02*
D03*
X251000D02*
D03*
X245000Y181000D02*
D03*
X302000Y152000D02*
D03*
X300000Y140000D02*
D03*
X228000Y44000D02*
D03*
X262000Y84000D02*
D03*
X303000Y170000D02*
D03*
Y163000D02*
D03*
X319000Y141000D02*
D03*
X317000Y148000D02*
D03*
Y157000D02*
D03*
X226000Y33000D02*
D03*
X306000Y16000D02*
D03*
X286000Y30000D02*
D03*
X95000Y182000D02*
D03*
X130000Y225000D02*
D03*
X86000Y229000D02*
D03*
X58000Y179000D02*
D03*
X30000Y196000D02*
D03*
X317500Y210000D02*
D03*
X242500Y205000D02*
D03*
X202500Y132500D02*
D03*
Y137500D02*
D03*
X190000Y145000D02*
D03*
X132500Y140000D02*
D03*
Y120000D02*
D03*
X70000Y100000D02*
D03*
X85000Y127500D02*
D03*
X50000Y115000D02*
D03*
X35000Y160000D02*
D03*
X90000Y95000D02*
D03*
X117500Y35000D02*
D03*
X62500Y17500D02*
D03*
X105000Y7500D02*
D03*
X235000Y130000D02*
D03*
X286000Y37000D02*
D03*
X197000Y115000D02*
D03*
X316000Y37000D02*
D03*
X306000Y40000D02*
D03*
X221500Y107500D02*
D03*
D113*
X239000Y249000D02*
D03*
X187000Y258500D02*
D03*
X144900Y201100D02*
D03*
X160500Y245400D02*
D03*
X138500Y75000D02*
D03*
X57400Y290100D02*
D03*
X108200Y292200D02*
D03*
X91200Y287400D02*
D03*
X60500Y71000D02*
D03*
Y83500D02*
D03*
X60000Y77500D02*
D03*
X285000Y49000D02*
D03*
X150000Y35000D02*
D03*
X70000Y277500D02*
D03*
X105000Y190000D02*
D03*
X17500Y210000D02*
D03*
X42500Y240000D02*
D03*
X45000Y217500D02*
D03*
X25000Y180000D02*
D03*
X77500Y87500D02*
D03*
X320301Y134886D02*
D03*
X317500Y167500D02*
D03*
X128500Y195000D02*
D03*
D120*
X188391Y183029D02*
X189000Y182419D01*
X188391Y183029D02*
Y183191D01*
X180400Y191181D02*
X188391Y183191D01*
X189000Y182000D02*
Y182419D01*
X180400Y191181D02*
Y309200D01*
X291400Y313000D02*
X352500Y251900D01*
X272000Y313000D02*
X291400D01*
X352500Y104400D02*
Y251900D01*
X260000Y310000D02*
X287500D01*
X350000Y247500D01*
Y105900D02*
Y247500D01*
X287100Y306000D02*
X346500Y246600D01*
X245000Y306000D02*
X287100D01*
X288300Y302000D02*
X344100Y246200D01*
X231000Y302000D02*
X288300D01*
X346500Y106900D02*
Y246600D01*
X210400Y186900D02*
Y307581D01*
X197000Y201100D02*
X206000Y192100D01*
X197000Y201100D02*
Y307800D01*
X166800Y201069D02*
Y308700D01*
Y201069D02*
X183625Y184244D01*
X224875Y125459D02*
Y140061D01*
X225966Y141152D02*
Y155754D01*
X224875Y125459D02*
X230732Y119602D01*
X224875Y140061D02*
X225966Y141152D01*
X224875Y156845D02*
X225966Y155754D01*
X224875Y156845D02*
Y174850D01*
X228000Y128305D02*
Y163000D01*
Y128305D02*
X242155Y114151D01*
X224875Y174850D02*
X224900Y174875D01*
X230600Y159900D02*
X232400D01*
X239165Y153136D01*
X219000Y153297D02*
Y161709D01*
X220400Y163109D01*
X219000Y153297D02*
X219381Y152916D01*
X239800Y155200D02*
X242200D01*
X227500Y167500D02*
X239800Y155200D01*
X239165Y120952D02*
Y153136D01*
X242200Y155200D02*
X242300Y155100D01*
X232200Y152400D02*
X232600D01*
X236000Y149000D01*
X252897Y155200D02*
X253100D01*
X250195Y154295D02*
X251992D01*
X252897Y155200D01*
X345200Y97100D02*
X352500Y104400D01*
X345100Y101000D02*
X350000Y105900D01*
X342800Y103200D02*
X346500Y106900D01*
X342034Y105050D02*
X344100Y107116D01*
Y246200D01*
X285313Y105050D02*
X342034D01*
X281400Y101000D02*
X345100D01*
X284500Y103200D02*
X342800D01*
X245253Y104946D02*
Y105246D01*
Y104946D02*
X247600Y102600D01*
X243051Y107449D02*
X245253Y105246D01*
X247400Y151500D02*
X250195Y154295D01*
X224116Y144779D02*
Y147301D01*
X213256Y156425D02*
X217400Y152281D01*
Y151400D02*
Y152281D01*
X218203Y148197D02*
Y150597D01*
X217400Y151400D02*
X218203Y150597D01*
X219381Y152035D02*
Y152916D01*
Y152035D02*
X224116Y147301D01*
X218203Y148197D02*
X218500Y147900D01*
X203000Y160000D02*
X206575Y156425D01*
X213256D01*
X226800Y178000D02*
X238300Y166500D01*
X203000Y165000D02*
X216000Y178000D01*
X226800D01*
X217801Y181800D02*
X219701Y179900D01*
X233580D02*
X267994Y145485D01*
X219701Y179900D02*
X233580D01*
X217500Y181800D02*
X217801D01*
X220400Y163109D02*
Y174700D01*
X209200Y160100D02*
X216303Y167203D01*
X217203D01*
X217500Y167500D01*
X219600Y109693D02*
X221500Y107793D01*
Y107500D02*
Y107793D01*
X219600Y109693D02*
Y129900D01*
X230732Y119602D02*
X231787D01*
X238700Y112690D01*
X242155Y114151D02*
X244720D01*
X243644Y116472D02*
X248317D01*
X252100Y112690D01*
X246181D02*
X246600D01*
X244720Y114151D02*
X246181Y112690D01*
X263300Y115700D02*
X267558Y119958D01*
X269991D01*
X270033Y120000D01*
X281000Y105200D02*
X281150Y105050D01*
X282650D01*
X284500Y103200D01*
X283150Y107213D02*
X285313Y105050D01*
X286400Y107675D02*
Y110810D01*
X283150Y107213D02*
Y112362D01*
X274100Y99300D02*
Y107500D01*
X279300Y97100D02*
X345200D01*
X238300Y166500D02*
X240200D01*
X222625Y125093D02*
X235934Y111784D01*
X222625Y125093D02*
Y143288D01*
X224116Y144779D01*
X207500Y125500D02*
X211000D01*
X266700Y113200D02*
X267119D01*
X268344Y114425D01*
X281087D01*
X283150Y112362D01*
X287500Y117500D02*
Y131000D01*
X285000Y115000D02*
X287500Y117500D01*
X285000Y112210D02*
X286400Y110810D01*
X285000Y112210D02*
Y115000D01*
X197000Y91700D02*
X197100Y91600D01*
X266400D01*
X274100Y99300D01*
X229000Y100000D02*
X245000D01*
X221500Y107500D02*
X229000Y100000D01*
X240087Y107449D02*
X243051D01*
X235000Y130273D02*
X236000Y131273D01*
X235000Y130000D02*
Y130273D01*
X236000Y131273D02*
Y149000D01*
X239165Y119757D02*
Y120952D01*
X239165Y120952D02*
X239165Y120952D01*
Y119757D02*
X240576Y118346D01*
X241771D02*
X243644Y116472D01*
X240576Y118346D02*
X241771D01*
X235934Y111602D02*
Y111784D01*
Y111602D02*
X240087Y107449D01*
X197000Y115000D02*
X207500Y125500D01*
D122*
X195900Y167700D02*
X215200Y187000D01*
X215575Y148475D02*
Y151525D01*
X213600Y146500D02*
X215575Y148475D01*
X212500Y154600D02*
X215575Y151525D01*
X202400Y154600D02*
X212500D01*
X195900Y161100D02*
X202400Y154600D01*
X215200Y187000D02*
X280800D01*
X195900Y161100D02*
Y167700D01*
X276700Y87500D02*
Y108500D01*
Y87500D02*
X276800Y87400D01*
X276700Y108500D02*
X280000Y111800D01*
D124*
X294110Y334150D02*
D03*
D125*
X307890D02*
D03*
D126*
X75800Y333500D02*
D03*
X62020D02*
D03*
X48241D02*
D03*
X34461D02*
D03*
X272139Y333600D02*
D03*
X258359D02*
D03*
X244580D02*
D03*
X230800D02*
D03*
X208859Y334000D02*
D03*
X195080D02*
D03*
X181300D02*
D03*
X167520D02*
D03*
X138261Y333800D02*
D03*
X124482D02*
D03*
X110702D02*
D03*
X96923D02*
D03*
D127*
X136752Y257933D02*
D03*
D128*
Y250059D02*
D03*
Y242185D02*
D03*
Y234311D02*
D03*
Y226437D02*
D03*
Y218563D02*
D03*
Y210689D02*
D03*
Y202815D02*
D03*
Y194941D02*
D03*
Y187067D02*
D03*
Y179193D02*
D03*
Y171319D02*
D03*
Y163445D02*
D03*
X152500Y253996D02*
D03*
Y246122D02*
D03*
Y238248D02*
D03*
Y230374D02*
D03*
Y222500D02*
D03*
Y214626D02*
D03*
Y206752D02*
D03*
Y198878D02*
D03*
Y191004D02*
D03*
Y183130D02*
D03*
Y175256D02*
D03*
Y167382D02*
D03*
D129*
X157900Y10700D02*
D03*
X205600Y80900D02*
D03*
X253100Y262000D02*
D03*
D130*
X25000Y78303D02*
D03*
Y28697D02*
D03*
D131*
X49000Y85000D02*
D03*
D132*
X202000Y37000D02*
D03*
D133*
X266000Y8000D02*
D03*
X221225Y158625D02*
D03*
X253100Y155200D02*
D03*
X264900D02*
D03*
X284800Y138200D02*
D03*
X283566Y118629D02*
D03*
X258000Y102000D02*
D03*
X252200Y100400D02*
D03*
X247600Y102600D02*
D03*
X242300Y155100D02*
D03*
X239000Y102500D02*
D03*
X274000Y161500D02*
D03*
D134*
X230600Y159900D02*
D03*
D135*
X241574Y146739D02*
D03*
X245904D02*
D03*
X250235D02*
D03*
X254566D02*
D03*
X258897D02*
D03*
X263227D02*
D03*
X241574Y142408D02*
D03*
X245904Y142408D02*
D03*
X250235Y142408D02*
D03*
X254566D02*
D03*
X258897D02*
D03*
X263227D02*
D03*
X241574Y138078D02*
D03*
X245904D02*
D03*
X250235D02*
D03*
X254566D02*
D03*
X258897D02*
D03*
X263227D02*
D03*
X241574Y133747D02*
D03*
X245904D02*
D03*
X250235D02*
D03*
X254566D02*
D03*
X258897D02*
D03*
X263227D02*
D03*
X241574Y129416D02*
D03*
X245904D02*
D03*
X250235D02*
D03*
X254566D02*
D03*
X258897D02*
D03*
X263227D02*
D03*
X241574Y125086D02*
D03*
X245904D02*
D03*
X250235D02*
D03*
X254566D02*
D03*
X258897D02*
D03*
X263227D02*
D03*
X241574Y120755D02*
D03*
X245904D02*
D03*
X250235Y120755D02*
D03*
X254566Y120755D02*
D03*
X258897D02*
D03*
X263227D02*
D03*
D136*
X151000Y272100D02*
D03*
X127500Y265000D02*
D03*
X120000Y175000D02*
D03*
X15000Y95000D02*
D03*
M02*
