G04*
G04 #@! TF.GenerationSoftware,Altium Limited,Altium Designer,25.2.1 (25)*
G04*
G04 Layer_Color=2752767*
%FSLAX25Y25*%
%MOIN*%
G70*
G04*
G04 #@! TF.SameCoordinates,93333BF9-B9FA-480E-9F15-3530D08D3613*
G04*
G04*
G04 #@! TF.FilePolarity,Positive*
G04*
G01*
G75*
%ADD14C,0.00500*%
%ADD146C,0.00667*%
%ADD147C,0.00400*%
D14*
X292110Y332150D02*
X293110Y334150D01*
X292110Y336150D01*
X294110Y335150D01*
X296110Y336150D01*
X295110Y334150D01*
X296110Y332150D01*
X294110Y333150D01*
X292110Y332150D01*
X292910Y332949D02*
X293510Y334150D01*
X292910Y335349D01*
X294110Y334750D01*
X295310Y335349D01*
X294710Y334150D01*
X295310Y332949D01*
X294110Y333549D01*
X292910Y332949D01*
X305890Y332150D02*
X306890Y334150D01*
X305890Y336150D01*
X307890Y335150D01*
X309890Y336150D01*
X308890Y334150D01*
X309890Y332150D01*
X307890Y333150D01*
X305890Y332150D01*
X306690Y332949D02*
X307290Y334150D01*
X306690Y335349D01*
X307890Y334750D01*
X309090Y335349D01*
X308490Y334150D01*
X309090Y332949D01*
X307890Y333549D01*
X306690Y332949D01*
X73800Y331500D02*
X74800Y333500D01*
X73800Y335500D01*
X75800Y334500D01*
X77800Y335500D01*
X76800Y333500D01*
X77800Y331500D01*
X75800Y332500D01*
X73800Y331500D01*
X74600Y332300D02*
X75200Y333500D01*
X74600Y334700D01*
X75800Y334100D01*
X77000Y334700D01*
X76400Y333500D01*
X77000Y332300D01*
X75800Y332900D01*
X74600Y332300D01*
X60021Y331500D02*
X61020Y333500D01*
X60021Y335500D01*
X62020Y334500D01*
X64021Y335500D01*
X63020Y333500D01*
X64021Y331500D01*
X62020Y332500D01*
X60021Y331500D01*
X60821Y332300D02*
X61421Y333500D01*
X60821Y334700D01*
X62020Y334100D01*
X63221Y334700D01*
X62621Y333500D01*
X63221Y332300D01*
X62020Y332900D01*
X60821Y332300D01*
X46241Y331500D02*
X47241Y333500D01*
X46241Y335500D01*
X48241Y334500D01*
X50241Y335500D01*
X49241Y333500D01*
X50241Y331500D01*
X48241Y332500D01*
X46241Y331500D01*
X47041Y332300D02*
X47641Y333500D01*
X47041Y334700D01*
X48241Y334100D01*
X49441Y334700D01*
X48841Y333500D01*
X49441Y332300D01*
X48241Y332900D01*
X47041Y332300D01*
X32461Y331500D02*
X33461Y333500D01*
X32461Y335500D01*
X34461Y334500D01*
X36461Y335500D01*
X35461Y333500D01*
X36461Y331500D01*
X34461Y332500D01*
X32461Y331500D01*
X33261Y332300D02*
X33861Y333500D01*
X33261Y334700D01*
X34461Y334100D01*
X35661Y334700D01*
X35061Y333500D01*
X35661Y332300D01*
X34461Y332900D01*
X33261Y332300D01*
X270139Y331600D02*
X271139Y333600D01*
X270139Y335600D01*
X272139Y334600D01*
X274139Y335600D01*
X273139Y333600D01*
X274139Y331600D01*
X272139Y332600D01*
X270139Y331600D01*
X270939Y332400D02*
X271539Y333600D01*
X270939Y334800D01*
X272139Y334200D01*
X273339Y334800D01*
X272739Y333600D01*
X273339Y332400D01*
X272139Y333000D01*
X270939Y332400D01*
X256359Y331600D02*
X257359Y333600D01*
X256359Y335600D01*
X258359Y334600D01*
X260359Y335600D01*
X259359Y333600D01*
X260359Y331600D01*
X258359Y332600D01*
X256359Y331600D01*
X257159Y332400D02*
X257759Y333600D01*
X257159Y334800D01*
X258359Y334200D01*
X259559Y334800D01*
X258959Y333600D01*
X259559Y332400D01*
X258359Y333000D01*
X257159Y332400D01*
X242580Y331600D02*
X243580Y333600D01*
X242580Y335600D01*
X244580Y334600D01*
X246580Y335600D01*
X245580Y333600D01*
X246580Y331600D01*
X244580Y332600D01*
X242580Y331600D01*
X243379Y332400D02*
X243980Y333600D01*
X243379Y334800D01*
X244580Y334200D01*
X245779Y334800D01*
X245180Y333600D01*
X245779Y332400D01*
X244580Y333000D01*
X243379Y332400D01*
X228800Y331600D02*
X229800Y333600D01*
X228800Y335600D01*
X230800Y334600D01*
X232800Y335600D01*
X231800Y333600D01*
X232800Y331600D01*
X230800Y332600D01*
X228800Y331600D01*
X229600Y332400D02*
X230200Y333600D01*
X229600Y334800D01*
X230800Y334200D01*
X232000Y334800D01*
X231400Y333600D01*
X232000Y332400D01*
X230800Y333000D01*
X229600Y332400D01*
X206859Y332000D02*
X207859Y334000D01*
X206859Y336000D01*
X208859Y335000D01*
X210859Y336000D01*
X209859Y334000D01*
X210859Y332000D01*
X208859Y333000D01*
X206859Y332000D01*
X207659Y332800D02*
X208259Y334000D01*
X207659Y335200D01*
X208859Y334600D01*
X210059Y335200D01*
X209459Y334000D01*
X210059Y332800D01*
X208859Y333400D01*
X207659Y332800D01*
X193079Y332000D02*
X194079Y334000D01*
X193079Y336000D01*
X195080Y335000D01*
X197080Y336000D01*
X196080Y334000D01*
X197080Y332000D01*
X195080Y333000D01*
X193079Y332000D01*
X193879Y332800D02*
X194480Y334000D01*
X193879Y335200D01*
X195080Y334600D01*
X196280Y335200D01*
X195679Y334000D01*
X196280Y332800D01*
X195080Y333400D01*
X193879Y332800D01*
X179300Y332000D02*
X180300Y334000D01*
X179300Y336000D01*
X181300Y335000D01*
X183300Y336000D01*
X182300Y334000D01*
X183300Y332000D01*
X181300Y333000D01*
X179300Y332000D01*
X180100Y332800D02*
X180700Y334000D01*
X180100Y335200D01*
X181300Y334600D01*
X182500Y335200D01*
X181900Y334000D01*
X182500Y332800D01*
X181300Y333400D01*
X180100Y332800D01*
X165521Y332000D02*
X166521Y334000D01*
X165521Y336000D01*
X167520Y335000D01*
X169520Y336000D01*
X168520Y334000D01*
X169520Y332000D01*
X167520Y333000D01*
X165521Y332000D01*
X166321Y332800D02*
X166920Y334000D01*
X166321Y335200D01*
X167520Y334600D01*
X168720Y335200D01*
X168121Y334000D01*
X168720Y332800D01*
X167520Y333400D01*
X166321Y332800D01*
X136261Y331800D02*
X137261Y333800D01*
X136261Y335800D01*
X138261Y334800D01*
X140261Y335800D01*
X139261Y333800D01*
X140261Y331800D01*
X138261Y332800D01*
X136261Y331800D01*
X137061Y332600D02*
X137661Y333800D01*
X137061Y335000D01*
X138261Y334400D01*
X139461Y335000D01*
X138861Y333800D01*
X139461Y332600D01*
X138261Y333200D01*
X137061Y332600D01*
X122482Y331800D02*
X123482Y333800D01*
X122482Y335800D01*
X124482Y334800D01*
X126482Y335800D01*
X125482Y333800D01*
X126482Y331800D01*
X124482Y332800D01*
X122482Y331800D01*
X123282Y332600D02*
X123882Y333800D01*
X123282Y335000D01*
X124482Y334400D01*
X125682Y335000D01*
X125082Y333800D01*
X125682Y332600D01*
X124482Y333200D01*
X123282Y332600D01*
X108702Y331800D02*
X109702Y333800D01*
X108702Y335800D01*
X110702Y334800D01*
X112702Y335800D01*
X111702Y333800D01*
X112702Y331800D01*
X110702Y332800D01*
X108702Y331800D01*
X109502Y332600D02*
X110102Y333800D01*
X109502Y335000D01*
X110702Y334400D01*
X111902Y335000D01*
X111302Y333800D01*
X111902Y332600D01*
X110702Y333200D01*
X109502Y332600D01*
X94923Y331800D02*
X95923Y333800D01*
X94923Y335800D01*
X96923Y334800D01*
X98923Y335800D01*
X97923Y333800D01*
X98923Y331800D01*
X96923Y332800D01*
X94923Y331800D01*
X95723Y332600D02*
X96323Y333800D01*
X95723Y335000D01*
X96923Y334400D01*
X98123Y335000D01*
X97523Y333800D01*
X98123Y332600D01*
X96923Y333200D01*
X95723Y332600D01*
X12500Y8000D02*
X13500Y10000D01*
X12500Y12000D01*
X14500Y11000D01*
X16500Y12000D01*
X15500Y10000D01*
X16500Y8000D01*
X14500Y9000D01*
X12500Y8000D01*
X357200Y275500D02*
X358200Y277500D01*
X357200Y279500D01*
X359200Y278500D01*
X361200Y279500D01*
X360200Y277500D01*
X361200Y275500D01*
X359200Y276500D01*
X357200Y275500D01*
Y12800D02*
X358200Y14800D01*
X357200Y16800D01*
X359200Y15800D01*
X361200Y16800D01*
X360200Y14800D01*
X361200Y12800D01*
X359200Y13800D01*
X357200Y12800D01*
X178500Y63000D02*
X176500Y67000D01*
X180500D01*
X178500Y63000D01*
Y73000D02*
X176500Y77000D01*
X180500D01*
X178500Y73000D01*
Y83000D02*
X176500Y87000D01*
X180500D01*
X178500Y83000D01*
Y93000D02*
X176500Y97000D01*
X180500D01*
X178500Y93000D01*
Y103000D02*
X176500Y107000D01*
X180500D01*
X178500Y103000D01*
Y113000D02*
X176500Y117000D01*
X180500D01*
X178500Y113000D01*
X155900Y8700D02*
X156900D01*
X157900Y9700D01*
X158900Y8700D01*
X159900D01*
Y9700D01*
X158900Y10700D01*
X159900Y11700D01*
Y12700D01*
X158900D01*
X157900Y11700D01*
X156900Y12700D01*
X155900D01*
Y11700D01*
X156900Y10700D01*
X155900Y9700D01*
Y8700D01*
X156700Y9500D02*
X157300D01*
X157900Y10100D01*
X158500Y9500D01*
X159100D01*
Y10100D01*
X158500Y10700D01*
X159100Y11300D01*
Y11900D01*
X158500D01*
X157900Y11300D01*
X157300Y11900D01*
X156700D01*
Y11300D01*
X157300Y10700D01*
X156700Y10100D01*
Y9500D01*
X203600Y78900D02*
X204600D01*
X205600Y79900D01*
X206600Y78900D01*
X207600D01*
Y79900D01*
X206600Y80900D01*
X207600Y81900D01*
Y82900D01*
X206600D01*
X205600Y81900D01*
X204600Y82900D01*
X203600D01*
Y81900D01*
X204600Y80900D01*
X203600Y79900D01*
Y78900D01*
X204400Y79700D02*
X205000D01*
X205600Y80300D01*
X206200Y79700D01*
X206800D01*
Y80300D01*
X206200Y80900D01*
X206800Y81500D01*
Y82100D01*
X206200D01*
X205600Y81500D01*
X205000Y82100D01*
X204400D01*
Y81500D01*
X205000Y80900D01*
X204400Y80300D01*
Y79700D01*
X251100Y260000D02*
X252100D01*
X253100Y261000D01*
X254100Y260000D01*
X255100D01*
Y261000D01*
X254100Y262000D01*
X255100Y263000D01*
Y264000D01*
X254100D01*
X253100Y263000D01*
X252100Y264000D01*
X251100D01*
Y263000D01*
X252100Y262000D01*
X251100Y261000D01*
Y260000D01*
X251900Y260800D02*
X252500D01*
X253100Y261400D01*
X253700Y260800D01*
X254300D01*
Y261400D01*
X253700Y262000D01*
X254300Y262600D01*
Y263200D01*
X253700D01*
X253100Y262600D01*
X252500Y263200D01*
X251900D01*
Y262600D01*
X252500Y262000D01*
X251900Y261400D01*
Y260800D01*
X12500Y160500D02*
X13500Y162500D01*
X12500Y164500D01*
X14500Y163500D01*
X16500Y164500D01*
X15500Y162500D01*
X16500Y160500D01*
X14500Y161500D01*
X12500Y160500D01*
X24000Y77303D02*
Y76303D01*
X26000D01*
Y77303D01*
X27000D01*
Y79303D01*
X26000D01*
Y80303D01*
X24000D01*
Y79303D01*
X23000D01*
Y77303D01*
X24000D01*
Y27697D02*
Y26697D01*
X26000D01*
Y27697D01*
X27000D01*
Y29697D01*
X26000D01*
Y30697D01*
X24000D01*
Y29697D01*
X23000D01*
Y27697D01*
X24000D01*
X292205Y196858D02*
X293205Y197858D01*
X294205D01*
X293205Y198858D01*
X294205Y199858D01*
X293205D01*
X292205Y200858D01*
X291205Y199858D01*
X290205D01*
X291205Y198858D01*
X290205Y197858D01*
X291205D01*
X292205Y196858D01*
X317795D02*
X318795Y197858D01*
X319795D01*
X318795Y198858D01*
X319795Y199858D01*
X318795D01*
X317795Y200858D01*
X316795Y199858D01*
X315795D01*
X316795Y198858D01*
X315795Y197858D01*
X316795D01*
X317795Y196858D01*
X292205Y179142D02*
X293205Y180142D01*
X294205D01*
X293205Y181142D01*
X294205Y182142D01*
X293205D01*
X292205Y183142D01*
X291205Y182142D01*
X290205D01*
X291205Y181142D01*
X290205Y180142D01*
X291205D01*
X292205Y179142D01*
X317795D02*
X318795Y180142D01*
X319795D01*
X318795Y181142D01*
X319795Y182142D01*
X318795D01*
X317795Y183142D01*
X316795Y182142D01*
X315795D01*
X316795Y181142D01*
X315795Y180142D01*
X316795D01*
X317795Y179142D01*
X49000Y85000D02*
Y88332D01*
X50666Y89998D01*
X52332Y88332D01*
Y85000D01*
Y87499D01*
X49000D01*
X141000Y53000D02*
X143000Y55000D01*
X145000Y53000D01*
X143000Y51000D01*
X141000Y53000D01*
X201000Y36000D02*
Y35000D01*
X203000D01*
Y36000D01*
X204000D01*
Y38000D01*
X203000D01*
Y39000D01*
X201000D01*
Y38000D01*
X200000D01*
Y36000D01*
X201000D01*
X201400Y36400D02*
Y35800D01*
X202600D01*
Y36400D01*
X203200D01*
Y37600D01*
X202600D01*
Y38200D01*
X201400D01*
Y37600D01*
X200800D01*
Y36400D01*
X201400D01*
X153000Y133700D02*
X155000Y135700D01*
X157000Y133700D01*
X155000Y131700D01*
X153000Y133700D01*
X187000Y182000D02*
X189000Y184000D01*
X191000Y182000D01*
X189000Y180000D01*
X187000Y182000D01*
X297000Y312000D02*
X299000Y314000D01*
X301000Y312000D01*
X299000Y310000D01*
X297000Y312000D01*
X264000Y8000D02*
X266000Y10000D01*
X268000Y8000D01*
X266000Y6000D01*
X264000Y8000D01*
X270000Y313000D02*
X272000Y315000D01*
X274000Y313000D01*
X272000Y311000D01*
X270000Y313000D01*
X258000Y310000D02*
X260000Y312000D01*
X262000Y310000D01*
X260000Y308000D01*
X258000Y310000D01*
X243000Y306000D02*
X245000Y308000D01*
X247000Y306000D01*
X245000Y304000D01*
X243000Y306000D01*
X229000Y302000D02*
X231000Y304000D01*
X233000Y302000D01*
X231000Y300000D01*
X229000Y302000D01*
X208400Y307581D02*
X210400Y309581D01*
X212400Y307581D01*
X210400Y305581D01*
X208400Y307581D01*
X198401Y277399D02*
X200401Y279399D01*
X202401Y277399D01*
X200401Y275399D01*
X198401Y277399D01*
X237000Y247000D02*
Y251000D01*
X241000D01*
Y247000D01*
X237000D01*
X202000Y244000D02*
X204000Y246000D01*
X206000Y244000D01*
X204000Y242000D01*
X202000Y244000D01*
X195000Y307800D02*
X197000Y309800D01*
X199000Y307800D01*
X197000Y305800D01*
X195000Y307800D01*
X178400Y309200D02*
X180400Y311200D01*
X182400Y309200D01*
X180400Y307200D01*
X178400Y309200D01*
X172700Y270600D02*
X174700Y272600D01*
X176700Y270600D01*
X174700Y268600D01*
X172700Y270600D01*
X181625Y184244D02*
X183625Y186244D01*
X185625Y184244D01*
X183625Y182244D01*
X181625Y184244D01*
X174300Y224100D02*
X176300Y226100D01*
X178300Y224100D01*
X176300Y222100D01*
X174300Y224100D01*
X185000Y256500D02*
Y260500D01*
X189000D01*
Y256500D01*
X185000D01*
X188000Y240000D02*
X190000Y242000D01*
X192000Y240000D01*
X190000Y238000D01*
X188000Y240000D01*
X164800Y308700D02*
X166800Y310700D01*
X168800Y308700D01*
X166800Y306700D01*
X164800Y308700D01*
X5800Y275000D02*
X7800Y277000D01*
X9800Y275000D01*
X7800Y273000D01*
X5800Y275000D01*
X150300Y344900D02*
X152300Y346900D01*
X154300Y344900D01*
X152300Y342900D01*
X150300Y344900D01*
X219225Y158625D02*
X221225Y160625D01*
X223225Y158625D01*
X221225Y156625D01*
X219225Y158625D01*
X228600Y159900D02*
X230600Y161900D01*
X232600Y159900D01*
X230600Y157900D01*
X228600Y159900D01*
X230200Y152400D02*
X232200Y154400D01*
X234200Y152400D01*
X232200Y150400D01*
X230200Y152400D01*
X251100Y155200D02*
X253100Y157200D01*
X255100Y155200D01*
X253100Y153200D01*
X251100Y155200D01*
X262900D02*
X264900Y157200D01*
X266900Y155200D01*
X264900Y153200D01*
X262900Y155200D01*
X201300Y185200D02*
X202300Y186200D01*
X203300D01*
X202300Y187200D01*
X203300Y188200D01*
X202300D01*
X201300Y189200D01*
X200300Y188200D01*
X199300D01*
X200300Y187200D01*
X199300Y186200D01*
X200300D01*
X201300Y185200D01*
Y186000D02*
X201900Y186600D01*
X202500D01*
X201900Y187200D01*
X202500Y187800D01*
X201900D01*
X201300Y188400D01*
X200700Y187800D01*
X200100D01*
X200700Y187200D01*
X200100Y186600D01*
X200700D01*
X201300Y186000D01*
X146700Y159200D02*
X148700Y161200D01*
X150700Y159200D01*
X148700Y157200D01*
X146700Y159200D01*
X150800Y144800D02*
X152800Y146800D01*
X154800Y144800D01*
X152800Y142800D01*
X150800Y144800D01*
X163400Y90800D02*
X165400Y92800D01*
X167400Y90800D01*
X165400Y88800D01*
X163400Y90800D01*
X161200Y77600D02*
X163200Y79600D01*
X165200Y77600D01*
X163200Y75600D01*
X161200Y77600D01*
X142900Y199100D02*
Y203100D01*
X146900D01*
Y199100D01*
X142900D01*
X158500Y243400D02*
Y247400D01*
X162500D01*
Y243400D01*
X158500D01*
X175000Y181100D02*
X177000Y183100D01*
X179000Y181100D01*
X177000Y179100D01*
X175000Y181100D01*
X208400Y186900D02*
X210400Y188900D01*
X212400Y186900D01*
X210400Y184900D01*
X208400Y186900D01*
X184100Y162400D02*
X186100Y164400D01*
X188100Y162400D01*
X186100Y160400D01*
X184100Y162400D01*
X282800Y138200D02*
X284800Y140200D01*
X286800Y138200D01*
X284800Y136200D01*
X282800Y138200D01*
X281566Y118629D02*
X283566Y120629D01*
X285566Y118629D01*
X283566Y116629D01*
X281566Y118629D01*
X256000Y102000D02*
X258000Y104000D01*
X260000Y102000D01*
X258000Y100000D01*
X256000Y102000D01*
X250200Y100400D02*
X252200Y102400D01*
X254200Y100400D01*
X252200Y98400D01*
X250200Y100400D01*
X136500Y73000D02*
Y77000D01*
X140500D01*
Y73000D01*
X136500D01*
X245600Y102600D02*
X247600Y104600D01*
X249600Y102600D01*
X247600Y100600D01*
X245600Y102600D01*
X240300Y155100D02*
X242300Y157100D01*
X244300Y155100D01*
X242300Y153100D01*
X240300Y155100D01*
X216500Y147900D02*
X218500Y149900D01*
X220500Y147900D01*
X218500Y145900D01*
X216500Y147900D01*
X217000Y143800D02*
X219000Y145800D01*
X221000Y143800D01*
X219000Y141800D01*
X217000Y143800D01*
X211600Y146500D02*
X213600Y148500D01*
X215600Y146500D01*
X213600Y144500D01*
X211600Y146500D01*
X207600Y152000D02*
X209600Y154000D01*
X211600Y152000D01*
X209600Y150000D01*
X207600Y152000D01*
X215500Y181800D02*
X217500Y183800D01*
X219500Y181800D01*
X217500Y179800D01*
X215500Y181800D01*
X204000Y192100D02*
X206000Y194100D01*
X208000Y192100D01*
X206000Y190100D01*
X204000Y192100D01*
X207200Y160100D02*
X209200Y162100D01*
X211200Y160100D01*
X209200Y158100D01*
X207200Y160100D01*
X201000Y160000D02*
X203000Y162000D01*
X205000Y160000D01*
X203000Y158000D01*
X201000Y160000D01*
X196100Y140400D02*
X198100Y142400D01*
X200100Y140400D01*
X198100Y138400D01*
X196100Y140400D01*
X201000Y165000D02*
X203000Y167000D01*
X205000Y165000D01*
X203000Y163000D01*
X201000Y165000D01*
X128000Y280000D02*
X130000Y282000D01*
X132000Y280000D01*
X130000Y278000D01*
X128000Y280000D01*
X263125D02*
X265125Y282000D01*
X267125Y280000D01*
X265125Y278000D01*
X263125Y280000D01*
Y285400D02*
X265125Y287400D01*
X267125Y285400D01*
X265125Y283400D01*
X263125Y285400D01*
X278000Y280000D02*
X280000Y282000D01*
X282000Y280000D01*
X280000Y278000D01*
X278000Y280000D01*
X195300Y109500D02*
X197300Y111500D01*
X199300Y109500D01*
X197300Y107500D01*
X195300Y109500D01*
X196800Y105200D02*
X198800Y107200D01*
X200800Y105200D01*
X198800Y103200D01*
X196800Y105200D01*
X197100Y101200D02*
X199100Y103200D01*
X201100Y101200D01*
X199100Y99200D01*
X197100Y101200D01*
X214975Y114400D02*
X216975Y116400D01*
X218975Y114400D01*
X216975Y112400D01*
X214975Y114400D01*
X217600Y129900D02*
X219600Y131900D01*
X221600Y129900D01*
X219600Y127900D01*
X217600Y129900D01*
X236700Y112690D02*
X238700Y114690D01*
X240700Y112690D01*
X238700Y110690D01*
X236700Y112690D01*
X250100D02*
X252100Y114690D01*
X254100Y112690D01*
X252100Y110690D01*
X250100Y112690D01*
X244600D02*
X246600Y114690D01*
X248600Y112690D01*
X246600Y110690D01*
X244600Y112690D01*
X268187Y124912D02*
X270187Y126912D01*
X272187Y124912D01*
X270187Y122912D01*
X268187Y124912D01*
X261300Y115700D02*
X263300Y117700D01*
X265300Y115700D01*
X263300Y113700D01*
X261300Y115700D01*
X279400Y101000D02*
X281400Y103000D01*
X283400Y101000D01*
X281400Y99000D01*
X279400Y101000D01*
X284400Y107675D02*
X286400Y109675D01*
X288400Y107675D01*
X286400Y105675D01*
X284400Y107675D01*
X272100Y107500D02*
X274100Y109500D01*
X276100Y107500D01*
X274100Y105500D01*
X272100Y107500D01*
X277300Y97100D02*
X279300Y99100D01*
X281300Y97100D01*
X279300Y95100D01*
X277300Y97100D01*
X279000Y105200D02*
X281000Y107200D01*
X283000Y105200D01*
X281000Y103200D01*
X279000Y105200D01*
X225500Y167500D02*
X227500Y169500D01*
X229500Y167500D01*
X227500Y165500D01*
X225500Y167500D01*
X215500D02*
X217500Y169500D01*
X219500Y167500D01*
X217500Y165500D01*
X215500Y167500D01*
X238200Y166500D02*
X240200Y168500D01*
X242200Y166500D01*
X240200Y164500D01*
X238200Y166500D01*
X226000Y163000D02*
X228000Y165000D01*
X230000Y163000D01*
X228000Y161000D01*
X226000Y163000D01*
X222900Y174875D02*
X224900Y176875D01*
X226900Y174875D01*
X224900Y172875D01*
X222900Y174875D01*
X218400Y174700D02*
X220400Y176700D01*
X222400Y174700D01*
X220400Y172700D01*
X218400Y174700D01*
X213600Y122875D02*
X215600Y124875D01*
X217600Y122875D01*
X215600Y120875D01*
X213600Y122875D01*
X209000Y125500D02*
X211000Y127500D01*
X213000Y125500D01*
X211000Y123500D01*
X209000Y125500D01*
X214100Y118600D02*
X216100Y120600D01*
X218100Y118600D01*
X216100Y116600D01*
X214100Y118600D01*
X188600Y124400D02*
X190600Y126400D01*
X192600Y124400D01*
X190600Y122400D01*
X188600Y124400D01*
X324000Y125000D02*
X326000Y127000D01*
X328000Y125000D01*
X326000Y123000D01*
X324000Y125000D01*
X264700Y113200D02*
X266700Y115200D01*
X268700Y113200D01*
X266700Y111200D01*
X264700Y113200D01*
X301100Y108700D02*
X303100Y110700D01*
X305100Y108700D01*
X303100Y106700D01*
X301100Y108700D01*
X278000Y111800D02*
X280000Y113800D01*
X282000Y111800D01*
X280000Y109800D01*
X278000Y111800D01*
X274800Y87400D02*
X276800Y89400D01*
X278800Y87400D01*
X276800Y85400D01*
X274800Y87400D01*
X195000Y91700D02*
X197000Y93700D01*
X199000Y91700D01*
X197000Y89700D01*
X195000Y91700D01*
X243000Y100000D02*
X245000Y102000D01*
X247000Y100000D01*
X245000Y98000D01*
X243000Y100000D01*
X237000Y102500D02*
X239000Y104500D01*
X241000Y102500D01*
X239000Y100500D01*
X237000Y102500D01*
X239574Y144739D02*
X240574D01*
X241574Y145739D01*
X242574Y144739D01*
X243574D01*
Y145739D01*
X242574Y146739D01*
X243574Y147739D01*
Y148739D01*
X242574D01*
X241574Y147739D01*
X240574Y148739D01*
X239574D01*
Y147739D01*
X240574Y146739D01*
X239574Y145739D01*
Y144739D01*
X243904D02*
X244904D01*
X245904Y145739D01*
X246904Y144739D01*
X247904D01*
Y145739D01*
X246904Y146739D01*
X247904Y147739D01*
Y148739D01*
X246904D01*
X245904Y147739D01*
X244904Y148739D01*
X243904D01*
Y147739D01*
X244904Y146739D01*
X243904Y145739D01*
Y144739D01*
X248235D02*
X249235D01*
X250235Y145739D01*
X251235Y144739D01*
X252235D01*
Y145739D01*
X251235Y146739D01*
X252235Y147739D01*
Y148739D01*
X251235D01*
X250235Y147739D01*
X249235Y148739D01*
X248235D01*
Y147739D01*
X249235Y146739D01*
X248235Y145739D01*
Y144739D01*
X252566D02*
X253566D01*
X254566Y145739D01*
X255566Y144739D01*
X256566D01*
Y145739D01*
X255566Y146739D01*
X256566Y147739D01*
Y148739D01*
X255566D01*
X254566Y147739D01*
X253566Y148739D01*
X252566D01*
Y147739D01*
X253566Y146739D01*
X252566Y145739D01*
Y144739D01*
X256897D02*
X257897D01*
X258897Y145739D01*
X259897Y144739D01*
X260897D01*
Y145739D01*
X259897Y146739D01*
X260897Y147739D01*
Y148739D01*
X259897D01*
X258897Y147739D01*
X257897Y148739D01*
X256897D01*
Y147739D01*
X257897Y146739D01*
X256897Y145739D01*
Y144739D01*
X261227D02*
X262227D01*
X263227Y145739D01*
X264227Y144739D01*
X265227D01*
Y145739D01*
X264227Y146739D01*
X265227Y147739D01*
Y148739D01*
X264227D01*
X263227Y147739D01*
X262227Y148739D01*
X261227D01*
Y147739D01*
X262227Y146739D01*
X261227Y145739D01*
Y144739D01*
X239574Y140408D02*
X240574D01*
X241574Y141408D01*
X242574Y140408D01*
X243574D01*
Y141408D01*
X242574Y142408D01*
X243574Y143408D01*
Y144408D01*
X242574D01*
X241574Y143408D01*
X240574Y144408D01*
X239574D01*
Y143408D01*
X240574Y142408D01*
X239574Y141408D01*
Y140408D01*
X243904Y140408D02*
X244904D01*
X245904Y141408D01*
X246904Y140408D01*
X247904D01*
Y141408D01*
X246904Y142408D01*
X247904Y143408D01*
Y144408D01*
X246904D01*
X245904Y143408D01*
X244904Y144408D01*
X243904D01*
Y143408D01*
X244904Y142408D01*
X243904Y141408D01*
Y140408D01*
X248235Y140408D02*
X249235D01*
X250235Y141408D01*
X251235Y140408D01*
X252235D01*
Y141408D01*
X251235Y142408D01*
X252235Y143408D01*
Y144408D01*
X251235D01*
X250235Y143408D01*
X249235Y144408D01*
X248235D01*
Y143408D01*
X249235Y142408D01*
X248235Y141408D01*
Y140408D01*
X252566D02*
X253566D01*
X254566Y141408D01*
X255566Y140408D01*
X256566D01*
Y141408D01*
X255566Y142408D01*
X256566Y143408D01*
Y144408D01*
X255566D01*
X254566Y143408D01*
X253566Y144408D01*
X252566D01*
Y143408D01*
X253566Y142408D01*
X252566Y141408D01*
Y140408D01*
X256897D02*
X257897D01*
X258897Y141408D01*
X259897Y140408D01*
X260897D01*
Y141408D01*
X259897Y142408D01*
X260897Y143408D01*
Y144408D01*
X259897D01*
X258897Y143408D01*
X257897Y144408D01*
X256897D01*
Y143408D01*
X257897Y142408D01*
X256897Y141408D01*
Y140408D01*
X261227D02*
X262227D01*
X263227Y141408D01*
X264227Y140408D01*
X265227D01*
Y141408D01*
X264227Y142408D01*
X265227Y143408D01*
Y144408D01*
X264227D01*
X263227Y143408D01*
X262227Y144408D01*
X261227D01*
Y143408D01*
X262227Y142408D01*
X261227Y141408D01*
Y140408D01*
X239574Y136078D02*
X240574D01*
X241574Y137078D01*
X242574Y136078D01*
X243574D01*
Y137078D01*
X242574Y138078D01*
X243574Y139078D01*
Y140078D01*
X242574D01*
X241574Y139078D01*
X240574Y140078D01*
X239574D01*
Y139078D01*
X240574Y138078D01*
X239574Y137078D01*
Y136078D01*
X243904D02*
X244904D01*
X245904Y137078D01*
X246904Y136078D01*
X247904D01*
Y137078D01*
X246904Y138078D01*
X247904Y139078D01*
Y140078D01*
X246904D01*
X245904Y139078D01*
X244904Y140078D01*
X243904D01*
Y139078D01*
X244904Y138078D01*
X243904Y137078D01*
Y136078D01*
X248235D02*
X249235D01*
X250235Y137078D01*
X251235Y136078D01*
X252235D01*
Y137078D01*
X251235Y138078D01*
X252235Y139078D01*
Y140078D01*
X251235D01*
X250235Y139078D01*
X249235Y140078D01*
X248235D01*
Y139078D01*
X249235Y138078D01*
X248235Y137078D01*
Y136078D01*
X252566D02*
X253566D01*
X254566Y137078D01*
X255566Y136078D01*
X256566D01*
Y137078D01*
X255566Y138078D01*
X256566Y139078D01*
Y140078D01*
X255566D01*
X254566Y139078D01*
X253566Y140078D01*
X252566D01*
Y139078D01*
X253566Y138078D01*
X252566Y137078D01*
Y136078D01*
X256897D02*
X257897D01*
X258897Y137078D01*
X259897Y136078D01*
X260897D01*
Y137078D01*
X259897Y138078D01*
X260897Y139078D01*
Y140078D01*
X259897D01*
X258897Y139078D01*
X257897Y140078D01*
X256897D01*
Y139078D01*
X257897Y138078D01*
X256897Y137078D01*
Y136078D01*
X261227D02*
X262227D01*
X263227Y137078D01*
X264227Y136078D01*
X265227D01*
Y137078D01*
X264227Y138078D01*
X265227Y139078D01*
Y140078D01*
X264227D01*
X263227Y139078D01*
X262227Y140078D01*
X261227D01*
Y139078D01*
X262227Y138078D01*
X261227Y137078D01*
Y136078D01*
X239574Y131747D02*
X240574D01*
X241574Y132747D01*
X242574Y131747D01*
X243574D01*
Y132747D01*
X242574Y133747D01*
X243574Y134747D01*
Y135747D01*
X242574D01*
X241574Y134747D01*
X240574Y135747D01*
X239574D01*
Y134747D01*
X240574Y133747D01*
X239574Y132747D01*
Y131747D01*
X243904D02*
X244904D01*
X245904Y132747D01*
X246904Y131747D01*
X247904D01*
Y132747D01*
X246904Y133747D01*
X247904Y134747D01*
Y135747D01*
X246904D01*
X245904Y134747D01*
X244904Y135747D01*
X243904D01*
Y134747D01*
X244904Y133747D01*
X243904Y132747D01*
Y131747D01*
X248235D02*
X249235D01*
X250235Y132747D01*
X251235Y131747D01*
X252235D01*
Y132747D01*
X251235Y133747D01*
X252235Y134747D01*
Y135747D01*
X251235D01*
X250235Y134747D01*
X249235Y135747D01*
X248235D01*
Y134747D01*
X249235Y133747D01*
X248235Y132747D01*
Y131747D01*
X252566D02*
X253566D01*
X254566Y132747D01*
X255566Y131747D01*
X256566D01*
Y132747D01*
X255566Y133747D01*
X256566Y134747D01*
Y135747D01*
X255566D01*
X254566Y134747D01*
X253566Y135747D01*
X252566D01*
Y134747D01*
X253566Y133747D01*
X252566Y132747D01*
Y131747D01*
X256897D02*
X257897D01*
X258897Y132747D01*
X259897Y131747D01*
X260897D01*
Y132747D01*
X259897Y133747D01*
X260897Y134747D01*
Y135747D01*
X259897D01*
X258897Y134747D01*
X257897Y135747D01*
X256897D01*
Y134747D01*
X257897Y133747D01*
X256897Y132747D01*
Y131747D01*
X261227D02*
X262227D01*
X263227Y132747D01*
X264227Y131747D01*
X265227D01*
Y132747D01*
X264227Y133747D01*
X265227Y134747D01*
Y135747D01*
X264227D01*
X263227Y134747D01*
X262227Y135747D01*
X261227D01*
Y134747D01*
X262227Y133747D01*
X261227Y132747D01*
Y131747D01*
X239574Y127416D02*
X240574D01*
X241574Y128416D01*
X242574Y127416D01*
X243574D01*
Y128416D01*
X242574Y129416D01*
X243574Y130416D01*
Y131416D01*
X242574D01*
X241574Y130416D01*
X240574Y131416D01*
X239574D01*
Y130416D01*
X240574Y129416D01*
X239574Y128416D01*
Y127416D01*
X243904D02*
X244904D01*
X245904Y128416D01*
X246904Y127416D01*
X247904D01*
Y128416D01*
X246904Y129416D01*
X247904Y130416D01*
Y131416D01*
X246904D01*
X245904Y130416D01*
X244904Y131416D01*
X243904D01*
Y130416D01*
X244904Y129416D01*
X243904Y128416D01*
Y127416D01*
X248235D02*
X249235D01*
X250235Y128416D01*
X251235Y127416D01*
X252235D01*
Y128416D01*
X251235Y129416D01*
X252235Y130416D01*
Y131416D01*
X251235D01*
X250235Y130416D01*
X249235Y131416D01*
X248235D01*
Y130416D01*
X249235Y129416D01*
X248235Y128416D01*
Y127416D01*
X252566D02*
X253566D01*
X254566Y128416D01*
X255566Y127416D01*
X256566D01*
Y128416D01*
X255566Y129416D01*
X256566Y130416D01*
Y131416D01*
X255566D01*
X254566Y130416D01*
X253566Y131416D01*
X252566D01*
Y130416D01*
X253566Y129416D01*
X252566Y128416D01*
Y127416D01*
X256897D02*
X257897D01*
X258897Y128416D01*
X259897Y127416D01*
X260897D01*
Y128416D01*
X259897Y129416D01*
X260897Y130416D01*
Y131416D01*
X259897D01*
X258897Y130416D01*
X257897Y131416D01*
X256897D01*
Y130416D01*
X257897Y129416D01*
X256897Y128416D01*
Y127416D01*
X261227D02*
X262227D01*
X263227Y128416D01*
X264227Y127416D01*
X265227D01*
Y128416D01*
X264227Y129416D01*
X265227Y130416D01*
Y131416D01*
X264227D01*
X263227Y130416D01*
X262227Y131416D01*
X261227D01*
Y130416D01*
X262227Y129416D01*
X261227Y128416D01*
Y127416D01*
X239574Y123086D02*
X240574D01*
X241574Y124086D01*
X242574Y123086D01*
X243574D01*
Y124086D01*
X242574Y125086D01*
X243574Y126086D01*
Y127086D01*
X242574D01*
X241574Y126086D01*
X240574Y127086D01*
X239574D01*
Y126086D01*
X240574Y125086D01*
X239574Y124086D01*
Y123086D01*
X243904D02*
X244904D01*
X245904Y124086D01*
X246904Y123086D01*
X247904D01*
Y124086D01*
X246904Y125086D01*
X247904Y126086D01*
Y127086D01*
X246904D01*
X245904Y126086D01*
X244904Y127086D01*
X243904D01*
Y126086D01*
X244904Y125086D01*
X243904Y124086D01*
Y123086D01*
X248235D02*
X249235D01*
X250235Y124086D01*
X251235Y123086D01*
X252235D01*
Y124086D01*
X251235Y125086D01*
X252235Y126086D01*
Y127086D01*
X251235D01*
X250235Y126086D01*
X249235Y127086D01*
X248235D01*
Y126086D01*
X249235Y125086D01*
X248235Y124086D01*
Y123086D01*
X252566D02*
X253566D01*
X254566Y124086D01*
X255566Y123086D01*
X256566D01*
Y124086D01*
X255566Y125086D01*
X256566Y126086D01*
Y127086D01*
X255566D01*
X254566Y126086D01*
X253566Y127086D01*
X252566D01*
Y126086D01*
X253566Y125086D01*
X252566Y124086D01*
Y123086D01*
X256897D02*
X257897D01*
X258897Y124086D01*
X259897Y123086D01*
X260897D01*
Y124086D01*
X259897Y125086D01*
X260897Y126086D01*
Y127086D01*
X259897D01*
X258897Y126086D01*
X257897Y127086D01*
X256897D01*
Y126086D01*
X257897Y125086D01*
X256897Y124086D01*
Y123086D01*
X261227D02*
X262227D01*
X263227Y124086D01*
X264227Y123086D01*
X265227D01*
Y124086D01*
X264227Y125086D01*
X265227Y126086D01*
Y127086D01*
X264227D01*
X263227Y126086D01*
X262227Y127086D01*
X261227D01*
Y126086D01*
X262227Y125086D01*
X261227Y124086D01*
Y123086D01*
X239574Y118755D02*
X240574D01*
X241574Y119755D01*
X242574Y118755D01*
X243574D01*
Y119755D01*
X242574Y120755D01*
X243574Y121755D01*
Y122755D01*
X242574D01*
X241574Y121755D01*
X240574Y122755D01*
X239574D01*
Y121755D01*
X240574Y120755D01*
X239574Y119755D01*
Y118755D01*
X243904D02*
X244904D01*
X245904Y119755D01*
X246904Y118755D01*
X247904D01*
Y119755D01*
X246904Y120755D01*
X247904Y121755D01*
Y122755D01*
X246904D01*
X245904Y121755D01*
X244904Y122755D01*
X243904D01*
Y121755D01*
X244904Y120755D01*
X243904Y119755D01*
Y118755D01*
X248235Y118755D02*
X249235D01*
X250235Y119755D01*
X251235Y118755D01*
X252235D01*
Y119755D01*
X251235Y120755D01*
X252235Y121755D01*
Y122755D01*
X251235D01*
X250235Y121755D01*
X249235Y122755D01*
X248235D01*
Y121755D01*
X249235Y120755D01*
X248235Y119755D01*
Y118755D01*
X252566Y118755D02*
X253566D01*
X254566Y119755D01*
X255566Y118755D01*
X256566D01*
Y119755D01*
X255566Y120755D01*
X256566Y121755D01*
Y122755D01*
X255566D01*
X254566Y121755D01*
X253566Y122755D01*
X252566D01*
Y121755D01*
X253566Y120755D01*
X252566Y119755D01*
Y118755D01*
X256897D02*
X257897D01*
X258897Y119755D01*
X259897Y118755D01*
X260897D01*
Y119755D01*
X259897Y120755D01*
X260897Y121755D01*
Y122755D01*
X259897D01*
X258897Y121755D01*
X257897Y122755D01*
X256897D01*
Y121755D01*
X257897Y120755D01*
X256897Y119755D01*
Y118755D01*
X261227D02*
X262227D01*
X263227Y119755D01*
X264227Y118755D01*
X265227D01*
Y119755D01*
X264227Y120755D01*
X265227Y121755D01*
Y122755D01*
X264227D01*
X263227Y121755D01*
X262227Y122755D01*
X261227D01*
Y121755D01*
X262227Y120755D01*
X261227Y119755D01*
Y118755D01*
X55400Y288100D02*
Y292100D01*
X59400D01*
Y288100D01*
X55400D01*
X106200Y290200D02*
Y294200D01*
X110200D01*
Y290200D01*
X106200D01*
X89200Y285400D02*
Y289400D01*
X93200D01*
Y285400D01*
X89200D01*
X32500Y289900D02*
X34500Y291900D01*
X36500Y289900D01*
X34500Y287900D01*
X32500Y289900D01*
X245400Y151500D02*
X247400Y153500D01*
X249400Y151500D01*
X247400Y149500D01*
X245400Y151500D01*
X61000Y170000D02*
X63000Y172000D01*
X65000Y170000D01*
X63000Y168000D01*
X61000Y170000D01*
X58500Y69000D02*
Y73000D01*
X62500D01*
Y69000D01*
X58500D01*
Y81500D02*
Y85500D01*
X62500D01*
Y81500D01*
X58500D01*
X281500Y41500D02*
X283500Y43500D01*
X285500Y41500D01*
X283500Y39500D01*
X281500Y41500D01*
X120500Y7500D02*
X122500Y9500D01*
X124500Y7500D01*
X122500Y5500D01*
X120500Y7500D01*
X285500Y131000D02*
X287500Y133000D01*
X289500Y131000D01*
X287500Y129000D01*
X285500Y131000D01*
X304000Y132500D02*
X306000Y134500D01*
X308000Y132500D01*
X306000Y130500D01*
X304000Y132500D01*
X235500Y183771D02*
X237500Y185771D01*
X239500Y183771D01*
X237500Y181771D01*
X235500Y183771D01*
X268033Y120000D02*
X270033Y122000D01*
X272033Y120000D01*
X270033Y118000D01*
X268033Y120000D01*
X278800Y187000D02*
X280800Y189000D01*
X282800Y187000D01*
X280800Y185000D01*
X278800Y187000D01*
X100500Y136500D02*
X102500Y138500D01*
X104500Y136500D01*
X102500Y134500D01*
X100500Y136500D01*
X62500Y56000D02*
X64500Y58000D01*
X66500Y56000D01*
X64500Y54000D01*
X62500Y56000D01*
X230500Y135000D02*
X232500Y137000D01*
X234500Y135000D01*
X232500Y133000D01*
X230500Y135000D01*
X272000Y161500D02*
X274000Y163500D01*
X276000Y161500D01*
X274000Y159500D01*
X272000Y161500D01*
X285500Y117500D02*
X287500Y119500D01*
X289500Y117500D01*
X287500Y115500D01*
X285500Y117500D01*
X301000Y116000D02*
X303000Y118000D01*
X305000Y116000D01*
X303000Y114000D01*
X301000Y116000D01*
X268000Y41000D02*
X270000Y43000D01*
X272000Y41000D01*
X270000Y39000D01*
X268000Y41000D01*
X279000Y76000D02*
X281000Y78000D01*
X283000Y76000D01*
X281000Y74000D01*
X279000Y76000D01*
X231000Y63000D02*
X233000Y65000D01*
X235000Y63000D01*
X233000Y61000D01*
X231000Y63000D01*
X118000Y127500D02*
X120000Y129500D01*
X122000Y127500D01*
X120000Y125500D01*
X118000Y127500D01*
X203000Y56000D02*
X205000Y58000D01*
X207000Y56000D01*
X205000Y54000D01*
X203000Y56000D01*
X226000Y85000D02*
X228000Y87000D01*
X230000Y85000D01*
X228000Y83000D01*
X226000Y85000D01*
X247000D02*
X249000Y87000D01*
X251000Y85000D01*
X249000Y83000D01*
X247000Y85000D01*
X236000D02*
X238000Y87000D01*
X240000Y85000D01*
X238000Y83000D01*
X236000Y85000D01*
X130000Y131000D02*
X132000Y133000D01*
X134000Y131000D01*
X132000Y129000D01*
X130000Y131000D01*
X172000Y138000D02*
X174000Y140000D01*
X176000Y138000D01*
X174000Y136000D01*
X172000Y138000D01*
X129000Y253000D02*
X131000Y255000D01*
X133000Y253000D01*
X131000Y251000D01*
X129000Y253000D01*
X82000Y164000D02*
X84000Y166000D01*
X86000Y164000D01*
X84000Y162000D01*
X82000Y164000D01*
X96000Y201000D02*
X98000Y203000D01*
X100000Y201000D01*
X98000Y199000D01*
X96000Y201000D01*
X28000Y273000D02*
X30000Y275000D01*
X32000Y273000D01*
X30000Y271000D01*
X28000Y273000D01*
X21000Y223000D02*
X23000Y225000D01*
X25000Y223000D01*
X23000Y221000D01*
X21000Y223000D01*
X272000Y180000D02*
X274000Y182000D01*
X276000Y180000D01*
X274000Y178000D01*
X272000Y180000D01*
X266000Y191000D02*
X268000Y193000D01*
X270000Y191000D01*
X268000Y189000D01*
X266000Y191000D01*
X258000D02*
X260000Y193000D01*
X262000Y191000D01*
X260000Y189000D01*
X258000Y191000D01*
X249000D02*
X251000Y193000D01*
X253000Y191000D01*
X251000Y189000D01*
X249000Y191000D01*
X243000Y181000D02*
X245000Y183000D01*
X247000Y181000D01*
X245000Y179000D01*
X243000Y181000D01*
X300000Y152000D02*
X302000Y154000D01*
X304000Y152000D01*
X302000Y150000D01*
X300000Y152000D01*
X298000Y140000D02*
X300000Y142000D01*
X302000Y140000D01*
X300000Y138000D01*
X298000Y140000D01*
X226000Y44000D02*
X228000Y46000D01*
X230000Y44000D01*
X228000Y42000D01*
X226000Y44000D01*
X260000Y84000D02*
X262000Y86000D01*
X264000Y84000D01*
X262000Y82000D01*
X260000Y84000D01*
X301000Y170000D02*
X303000Y172000D01*
X305000Y170000D01*
X303000Y168000D01*
X301000Y170000D01*
Y163000D02*
X303000Y165000D01*
X305000Y163000D01*
X303000Y161000D01*
X301000Y163000D01*
X317000Y141000D02*
X319000Y143000D01*
X321000Y141000D01*
X319000Y139000D01*
X317000Y141000D01*
X315000Y148000D02*
X317000Y150000D01*
X319000Y148000D01*
X317000Y146000D01*
X315000Y148000D01*
Y157000D02*
X317000Y159000D01*
X319000Y157000D01*
X317000Y155000D01*
X315000Y157000D01*
X224000Y33000D02*
X226000Y35000D01*
X228000Y33000D01*
X226000Y31000D01*
X224000Y33000D01*
X304000Y16000D02*
X306000Y18000D01*
X308000Y16000D01*
X306000Y14000D01*
X304000Y16000D01*
X284000Y30000D02*
X286000Y32000D01*
X288000Y30000D01*
X286000Y28000D01*
X284000Y30000D01*
X93000Y182000D02*
X95000Y184000D01*
X97000Y182000D01*
X95000Y180000D01*
X93000Y182000D01*
X128000Y225000D02*
X130000Y227000D01*
X132000Y225000D01*
X130000Y223000D01*
X128000Y225000D01*
X84000Y229000D02*
X86000Y231000D01*
X88000Y229000D01*
X86000Y227000D01*
X84000Y229000D01*
X56000Y179000D02*
X58000Y181000D01*
X60000Y179000D01*
X58000Y177000D01*
X56000Y179000D01*
X28000Y196000D02*
X30000Y198000D01*
X32000Y196000D01*
X30000Y194000D01*
X28000Y196000D01*
X315500Y210000D02*
X317500Y212000D01*
X319500Y210000D01*
X317500Y208000D01*
X315500Y210000D01*
X240500Y205000D02*
X242500Y207000D01*
X244500Y205000D01*
X242500Y203000D01*
X240500Y205000D01*
X200500Y132500D02*
X202500Y134500D01*
X204500Y132500D01*
X202500Y130500D01*
X200500Y132500D01*
Y137500D02*
X202500Y139500D01*
X204500Y137500D01*
X202500Y135500D01*
X200500Y137500D01*
X188000Y145000D02*
X190000Y147000D01*
X192000Y145000D01*
X190000Y143000D01*
X188000Y145000D01*
X130500Y140000D02*
X132500Y142000D01*
X134500Y140000D01*
X132500Y138000D01*
X130500Y140000D01*
Y120000D02*
X132500Y122000D01*
X134500Y120000D01*
X132500Y118000D01*
X130500Y120000D01*
X68000Y100000D02*
X70000Y102000D01*
X72000Y100000D01*
X70000Y98000D01*
X68000Y100000D01*
X83000Y127500D02*
X85000Y129500D01*
X87000Y127500D01*
X85000Y125500D01*
X83000Y127500D01*
X48000Y115000D02*
X50000Y117000D01*
X52000Y115000D01*
X50000Y113000D01*
X48000Y115000D01*
X33000Y160000D02*
X35000Y162000D01*
X37000Y160000D01*
X35000Y158000D01*
X33000Y160000D01*
X88000Y95000D02*
X90000Y97000D01*
X92000Y95000D01*
X90000Y93000D01*
X88000Y95000D01*
X58000Y75500D02*
Y79500D01*
X62000D01*
Y75500D01*
X58000D01*
X115500Y35000D02*
X117500Y37000D01*
X119500Y35000D01*
X117500Y33000D01*
X115500Y35000D01*
X60500Y17500D02*
X62500Y19500D01*
X64500Y17500D01*
X62500Y15500D01*
X60500Y17500D01*
X103000Y7500D02*
X105000Y9500D01*
X107000Y7500D01*
X105000Y5500D01*
X103000Y7500D01*
X233000Y130000D02*
X235000Y132000D01*
X237000Y130000D01*
X235000Y128000D01*
X233000Y130000D01*
X285000Y157000D02*
X283000Y161000D01*
X287000D01*
X285000Y157000D01*
Y157800D02*
X283800Y160200D01*
X286200D01*
X285000Y157800D01*
X283000Y47000D02*
Y51000D01*
X287000D01*
Y47000D01*
X283000D01*
X284000Y37000D02*
X286000Y39000D01*
X288000Y37000D01*
X286000Y35000D01*
X284000Y37000D01*
X195000Y115000D02*
X197000Y117000D01*
X199000Y115000D01*
X197000Y113000D01*
X195000Y115000D01*
X148000Y33000D02*
Y37000D01*
X152000D01*
Y33000D01*
X148000D01*
X314000Y37000D02*
X316000Y39000D01*
X318000Y37000D01*
X316000Y35000D01*
X314000Y37000D01*
X304000Y40000D02*
X306000Y42000D01*
X308000Y40000D01*
X306000Y38000D01*
X304000Y40000D01*
X68000Y275500D02*
Y279500D01*
X72000D01*
Y275500D01*
X68000D01*
X103000Y188000D02*
Y192000D01*
X107000D01*
Y188000D01*
X103000D01*
X103800Y188800D02*
Y191200D01*
X106200D01*
Y188800D01*
X103800D01*
X20000Y273000D02*
X18000Y277000D01*
X22000D01*
X20000Y273000D01*
Y273800D02*
X18800Y276200D01*
X21200D01*
X20000Y273800D01*
X15000Y258000D02*
X13000Y262000D01*
X17000D01*
X15000Y258000D01*
Y258800D02*
X13800Y261200D01*
X16200D01*
X15000Y258800D01*
X15500Y208000D02*
Y212000D01*
X19500D01*
Y208000D01*
X15500D01*
X40500Y238000D02*
Y242000D01*
X44500D01*
Y238000D01*
X40500D01*
X43000Y215500D02*
Y219500D01*
X47000D01*
Y215500D01*
X43000D01*
X23000Y178000D02*
Y182000D01*
X27000D01*
Y178000D01*
X23000D01*
X75500Y85500D02*
Y89500D01*
X79500D01*
Y85500D01*
X75500D01*
X318301Y132886D02*
Y136886D01*
X322301D01*
Y132886D01*
X318301D01*
X315500Y165500D02*
Y169500D01*
X319500D01*
Y165500D01*
X315500D01*
X126500Y193000D02*
Y197000D01*
X130500D01*
Y193000D01*
X126500D01*
X219500Y107500D02*
X221500Y109500D01*
X223500Y107500D01*
X221500Y105500D01*
X219500Y107500D01*
D146*
X138752Y257933D02*
G03*
X138752Y257933I-2000J0D01*
G01*
Y250059D02*
G03*
X138752Y250059I-2000J0D01*
G01*
Y242185D02*
G03*
X138752Y242185I-2000J0D01*
G01*
Y234311D02*
G03*
X138752Y234311I-2000J0D01*
G01*
Y226437D02*
G03*
X138752Y226437I-2000J0D01*
G01*
Y218563D02*
G03*
X138752Y218563I-2000J0D01*
G01*
Y210689D02*
G03*
X138752Y210689I-2000J0D01*
G01*
Y202815D02*
G03*
X138752Y202815I-2000J0D01*
G01*
Y194941D02*
G03*
X138752Y194941I-2000J0D01*
G01*
Y187067D02*
G03*
X138752Y187067I-2000J0D01*
G01*
Y179193D02*
G03*
X138752Y179193I-2000J0D01*
G01*
Y171319D02*
G03*
X138752Y171319I-2000J0D01*
G01*
Y163445D02*
G03*
X138752Y163445I-2000J0D01*
G01*
X154500Y253996D02*
G03*
X154500Y253996I-2000J0D01*
G01*
Y246122D02*
G03*
X154500Y246122I-2000J0D01*
G01*
Y238248D02*
G03*
X154500Y238248I-2000J0D01*
G01*
Y230374D02*
G03*
X154500Y230374I-2000J0D01*
G01*
Y222500D02*
G03*
X154500Y222500I-2000J0D01*
G01*
Y214626D02*
G03*
X154500Y214626I-2000J0D01*
G01*
Y206752D02*
G03*
X154500Y206752I-2000J0D01*
G01*
Y198878D02*
G03*
X154500Y198878I-2000J0D01*
G01*
Y191004D02*
G03*
X154500Y191004I-2000J0D01*
G01*
Y183130D02*
G03*
X154500Y183130I-2000J0D01*
G01*
Y175256D02*
G03*
X154500Y175256I-2000J0D01*
G01*
Y167382D02*
G03*
X154500Y167382I-2000J0D01*
G01*
X153000Y272100D02*
G03*
X153000Y272100I-2000J0D01*
G01*
X129500Y265000D02*
G03*
X129500Y265000I-2000J0D01*
G01*
X122000Y175000D02*
G03*
X122000Y175000I-2000J0D01*
G01*
X17000Y95000D02*
G03*
X17000Y95000I-2000J0D01*
G01*
D147*
X152200Y272100D02*
G03*
X152200Y272100I-1200J0D01*
G01*
X128700Y265000D02*
G03*
X128700Y265000I-1200J0D01*
G01*
X121200Y175000D02*
G03*
X121200Y175000I-1200J0D01*
G01*
X16200Y95000D02*
G03*
X16200Y95000I-1200J0D01*
G01*
M02*
