G04*
G04 #@! TF.GenerationSoftware,Altium Limited,Altium Designer,25.2.1 (25)*
G04*
G04 Layer_Color=255*
%FSLAX25Y25*%
%MOIN*%
G70*
G04*
G04 #@! TF.SameCoordinates,93333BF9-B9FA-480E-9F15-3530D08D3613*
G04*
G04*
G04 #@! TF.FilePolarity,Positive*
G04*
G01*
G75*
%ADD101C,0.06181*%
%ADD102R,0.06181X0.06181*%
%ADD105R,0.06063X0.06063*%
%ADD106C,0.06063*%
%ADD124C,0.08268*%
G04:AMPARAMS|DCode=125|XSize=82.68mil|YSize=82.68mil|CornerRadius=20.67mil|HoleSize=0mil|Usage=FLASHONLY|Rotation=180.000|XOffset=0mil|YOffset=0mil|HoleType=Round|Shape=RoundedRectangle|*
%AMROUNDEDRECTD125*
21,1,0.08268,0.04134,0,0,180.0*
21,1,0.04134,0.08268,0,0,180.0*
1,1,0.04134,-0.02067,0.02067*
1,1,0.04134,0.02067,0.02067*
1,1,0.04134,0.02067,-0.02067*
1,1,0.04134,-0.02067,-0.02067*
%
%ADD125ROUNDEDRECTD125*%
%ADD126C,0.07874*%
%ADD127R,0.05492X0.05492*%
%ADD128C,0.05492*%
%ADD129C,0.05906*%
%ADD130C,0.07480*%
D101*
X178500Y65000D02*
D03*
Y75000D02*
D03*
Y85000D02*
D03*
Y95000D02*
D03*
Y105000D02*
D03*
D102*
Y115000D02*
D03*
D105*
X292205Y198858D02*
D03*
D106*
X317795D02*
D03*
X292205Y181142D02*
D03*
X317795D02*
D03*
D124*
X294110Y334150D02*
D03*
D125*
X307890D02*
D03*
D126*
X75800Y333500D02*
D03*
X62020D02*
D03*
X48241D02*
D03*
X34461D02*
D03*
X272139Y333600D02*
D03*
X258359D02*
D03*
X244580D02*
D03*
X230800D02*
D03*
X208859Y334000D02*
D03*
X195080D02*
D03*
X181300D02*
D03*
X167520D02*
D03*
X138261Y333800D02*
D03*
X124482D02*
D03*
X110702D02*
D03*
X96923D02*
D03*
D127*
X136752Y257933D02*
D03*
D128*
Y250059D02*
D03*
Y242185D02*
D03*
Y234311D02*
D03*
Y226437D02*
D03*
Y218563D02*
D03*
Y210689D02*
D03*
Y202815D02*
D03*
Y194941D02*
D03*
Y187067D02*
D03*
Y179193D02*
D03*
Y171319D02*
D03*
Y163445D02*
D03*
X152500Y253996D02*
D03*
Y246122D02*
D03*
Y238248D02*
D03*
Y230374D02*
D03*
Y222500D02*
D03*
Y214626D02*
D03*
Y206752D02*
D03*
Y198878D02*
D03*
Y191004D02*
D03*
Y183130D02*
D03*
Y175256D02*
D03*
Y167382D02*
D03*
D129*
X157900Y10700D02*
D03*
X205600Y80900D02*
D03*
X253100Y262000D02*
D03*
D130*
X25000Y78303D02*
D03*
Y28697D02*
D03*
M02*
