M48
;Layer_Color=9474304
;FILE_FORMAT=2:4
INCH,TZ
;TYPE=PLATED
T01F00S00C0.0079
T02F00S00C0.0120
T03F00S00C0.0160
T04F00S00C0.0180
T05F00S00C0.0200
T06F00S00C0.0220
T07F00S00C0.0250
T08F00S00C0.0280
T09F00S00C0.0300
T10F00S00C0.0366
T11F00S00C0.0390
T12F00S00C0.0394
T13F00S00C0.0402
T14F00S00C0.0551
T15F00S00C0.1260
;TYPE=NON_PLATED
T16F00S00C0.0748
%
T01
X24157Y12075
X24590
Y12509
Y12942
X24157
Y12509
Y13375
X24590
X24590Y13808
Y14241
X24157Y14241
Y14674
X24590
X25024
X25457
X25890
X26323
Y14241
X25890
Y13808
X25457
X25457Y14241
X25024
X25024Y13808
X25024Y13375
X25457
X25890
X26323
Y13808
Y12942
Y12509
X25890
Y12942
X25457
Y12509
X25024
X25024Y12942
X25024Y12075
X25457Y12075
X25890
X26323
X24157Y13808
T02
X32600Y12500
X31900Y14100
X31700Y14800
Y15700
X30200Y15200
X30000Y14000
X30600Y13250
X30300Y11600
X30310Y10870
X28640Y10768
X28100Y10520
X28140Y10100
X27930Y9710
X27680Y8740
X28100Y7600
X26200Y8400
X24900Y8500
X23800
X22800
X23300Y6300
X22800Y4400
X22600Y3300
X20500Y5600
X19700Y9170
X19910Y10120
X19880Y10520
X19730Y10950
X19700Y11500
X19060Y12440
X20250Y13250
Y13750
X19810Y14040
X19000Y14500
X17400Y13800
X21360Y14650
X21850Y14790
X21900Y14380
X21960Y12990
X21560Y12287
X21610Y11860
X21697Y11440
X22150Y10750
X23870Y11269
X24660
X25210
X25220Y10040
X24760Y10260
X24500Y10000
X23900Y10250
X25800Y10200
X26330Y11570
X26670Y11320
X27003Y12000
X27019Y12491
X28357Y11863
X28750Y11750
X28000Y11180
X27410Y10750
X28750Y13100
X28480Y13820
X26490Y15520
X25310
X24740Y15150
X24230Y15510
X23220Y15240
X23250Y13500
X23500Y13000
X21100Y12550
X20960Y15200
X27000Y4100
X28350Y4150
X28600Y3700
Y3000
X30600Y4000
X31600Y3700
X30600Y1600
X26600Y800
X12250Y750
X10500
X11750Y3500
X14300Y5300
X16320Y7760
X16540Y9080
X15500Y13370
X15280Y14480
X13250Y14000
X13200Y13100
X13250Y12000
X12000Y12750
X10250Y13650
X8500Y12750
X9000Y9500
X7000Y10000
X5000Y11500
X6450Y5600
X6250Y1750
X780Y27500
X3000Y27300
X3450Y28990
X2300Y22300
X3000Y19600
X3500Y16000
X6300Y17000
X5800Y17900
X9500Y18200
X9800Y20100
X8600Y22900
X13000Y22500
X13100Y25300
X13000Y28000
X16680Y30870
X14870Y15920
X8400Y16400
X18610Y16240
X20300Y16000
Y16500
X20920Y16010
X22122Y15862
X23060Y15990
X22800Y16300
X22750Y16750
X22490Y17487
X22040Y17470
X21750Y18180
X21040Y18690
X20600Y19210
X18900Y18200
X18362Y18424
X17700Y18110
X17630Y22410
X19000Y24000
X20400Y24400
X20040Y27740
X17470Y27060
X18040Y30920
X19700Y30780
X21040Y30758
X23100Y30200
X24500Y30600
X26000Y31000
X27200Y31300
X29900Y31200
X28000Y28000
X26512
Y28540
X26800Y19100
X26000
X25100
X24500Y18100
X23750Y18377
X24020Y16650
X21750Y16750
X27400Y16150
Y18000
X28080Y18700
X30300Y17000
Y16300
X31750Y21000
X24250Y20500
X15230Y34490
T03
X1500Y26000
X2000Y27500
X28500Y15900
T04
X4900Y8500
T05
X20200Y3700
T06
X20130Y18720
T07
X28500Y4900
X32030Y13489
X13850Y7500
X15000Y3500
X7750Y8750
X6050Y8350
X6000Y7750
X6050Y7100
X2500Y18000
X1750Y21000
X4500Y21750
X4250Y24000
X5740Y29010
X7000Y27750
X9120Y28740
X10820Y29220
X16050Y24540
X14490Y20110
X12850Y19500
X18700Y25850
X23900Y24900
X31750Y16750
T08
X1500Y9500
X12000Y17500
X12750Y26500
X15100Y27210
T09
X10500Y19000
T10
X13675Y16344
Y17132
Y17919
Y18707
Y19494
Y20282
Y21069
Y21856
Y22644
Y23431
Y24218
Y25006
Y25793
X15250Y25400
Y24612
Y23825
Y23037
Y22250
Y21463
Y20675
Y19888
Y19100
Y18313
Y17526
Y16738
T11
X29220Y18114
Y19886
X31780
Y18114
T12
X20560Y8090
X15790Y1070
X25310Y26200
T13
X17850Y6500
Y7500
Y8500
Y9500
Y10500
Y11500
T14
X16752Y33400
X18130
X19508
X20886
X23080Y33360
X24458
X25836
X27214
X29411Y33415
X30789
X13826Y33380
X12448
X11070
X9692
X7580Y33350
X6202
X4824
X3446
T15
X35920Y1480
X1450Y1000
Y16250
X35920Y27750
T16
X2500Y2870
Y7830
M30
