G04*
G04 #@! TF.GenerationSoftware,Altium Limited,Altium Designer,25.2.1 (25)*
G04*
G04 Layer_Color=0*
%FSLAX25Y25*%
%MOIN*%
G70*
G04*
G04 #@! TF.SameCoordinates,93333BF9-B9FA-480E-9F15-3530D08D3613*
G04*
G04*
G04 #@! TF.FilePolarity,Positive*
G04*
G01*
G75*
%ADD141C,0.00394*%
%ADD145C,0.00197*%
D141*
X159157Y53031D02*
Y56968D01*
X157188Y55000D02*
X161126D01*
X128500Y15032D02*
Y18969D01*
X126532Y17000D02*
X130468D01*
X220083Y270532D02*
Y274468D01*
X218114Y272500D02*
X222051D01*
X190308Y207308D02*
X193092Y210092D01*
X190308D02*
X193092Y207308D01*
X168131Y279500D02*
X172069D01*
X170100Y277532D02*
Y281469D01*
X139700Y98032D02*
Y101969D01*
X137732Y100000D02*
X141668D01*
X176532Y90000D02*
X180468D01*
X178500Y88032D02*
Y91969D01*
X300000Y46031D02*
Y49968D01*
X298031Y48000D02*
X301969D01*
X321996Y46031D02*
Y49968D01*
X320028Y48000D02*
X323965D01*
X197500Y233032D02*
Y236968D01*
X195531Y235000D02*
X199469D01*
X7600Y285432D02*
Y289369D01*
X5632Y287400D02*
X9568D01*
X91031Y154000D02*
X94968D01*
X93000Y152032D02*
Y155968D01*
X161031Y109000D02*
X164969D01*
X163000Y107032D02*
Y110968D01*
X120394Y227500D02*
X124331D01*
X122362Y225532D02*
Y229468D01*
X120531Y237500D02*
X124469D01*
X122500Y235531D02*
Y239469D01*
X72500Y228031D02*
Y231968D01*
X70531Y230000D02*
X74468D01*
X13608Y231108D02*
X16392Y233892D01*
X13608D02*
X16392Y231108D01*
X68032Y257500D02*
X71969D01*
X70000Y255532D02*
Y259469D01*
X97500Y255532D02*
Y259469D01*
X95531Y257500D02*
X99468D01*
X90531Y175000D02*
X94468D01*
X92500Y173031D02*
Y176969D01*
X99875Y95000D02*
X103812D01*
X101843Y93032D02*
Y96969D01*
X237500Y173167D02*
Y177104D01*
X235531Y175136D02*
X239469D01*
X292032Y118000D02*
X295969D01*
X294000Y116032D02*
Y119968D01*
X247031Y92500D02*
X250969D01*
X249000Y90531D02*
Y94468D01*
X259032Y93000D02*
X262968D01*
X261000Y91031D02*
Y94968D01*
X226031Y92364D02*
X229969D01*
X228000Y90396D02*
Y94333D01*
X235531Y92500D02*
X239469D01*
X237500Y90531D02*
Y94468D01*
X210136Y138031D02*
Y141969D01*
X208167Y140000D02*
X212104D01*
X258032Y183000D02*
X261968D01*
X260000Y181032D02*
Y184968D01*
X263032Y172000D02*
X266968D01*
X265000Y170031D02*
Y173969D01*
X246031Y172000D02*
X249969D01*
X248000Y170031D02*
Y173969D01*
X255031Y172000D02*
X258968D01*
X257000Y170031D02*
Y173969D01*
X249031Y182884D02*
X252969D01*
X251000Y180916D02*
Y184853D01*
X271031Y172116D02*
X274969D01*
X273000Y170147D02*
Y174084D01*
X291000Y139032D02*
Y142968D01*
X289032Y141000D02*
X292969D01*
X310000Y146031D02*
Y149969D01*
X308032Y148000D02*
X311968D01*
X294116Y147031D02*
Y150969D01*
X292147Y149000D02*
X296084D01*
X310000Y155032D02*
Y158968D01*
X308032Y157000D02*
X311968D01*
X266032Y183000D02*
X269969D01*
X268000Y181032D02*
Y184968D01*
X295000Y159031D02*
Y162969D01*
X293032Y161000D02*
X296969D01*
X295116Y167032D02*
Y170968D01*
X293147Y169000D02*
X297084D01*
X211000Y129032D02*
Y132968D01*
X209032Y131000D02*
X212968D01*
X296000Y129032D02*
Y132968D01*
X294032Y131000D02*
X297969D01*
X203031Y64864D02*
X206968D01*
X205000Y62896D02*
Y66833D01*
X225532Y52636D02*
X229468D01*
X227500Y50667D02*
Y54604D01*
X311000Y137031D02*
Y140969D01*
X309032Y139000D02*
X312968D01*
X294000Y106032D02*
Y109968D01*
X292032Y108000D02*
X295969D01*
X302000Y214287D02*
Y218224D01*
X300031Y216256D02*
X303969D01*
X311496Y125000D02*
X315433D01*
X313465Y123031D02*
Y126969D01*
X247532Y283500D02*
X251468D01*
X249500Y281532D02*
Y285469D01*
X96531Y16000D02*
X100469D01*
X98500Y14031D02*
Y17968D01*
X71315Y45272D02*
Y49209D01*
X69346Y47240D02*
X73283D01*
X72047Y60532D02*
Y64468D01*
X70079Y62500D02*
X74016D01*
X303031Y190000D02*
X306968D01*
X305000Y188031D02*
Y191969D01*
X128558Y37895D02*
Y41832D01*
X126590Y39864D02*
X130527D01*
X176843Y140532D02*
Y144468D01*
X174874Y142500D02*
X178812D01*
X215531Y70000D02*
X219468D01*
X217500Y68032D02*
Y71969D01*
X238000Y194032D02*
Y197968D01*
X236032Y196000D02*
X239968D01*
X62032Y29492D02*
X65969D01*
X64000Y27523D02*
Y31460D01*
X240965Y54031D02*
Y57968D01*
X238996Y56000D02*
X242933D01*
X240000Y32032D02*
Y35969D01*
X238032Y34000D02*
X241968D01*
X73000Y105032D02*
Y108968D01*
X71031Y107000D02*
X74968D01*
X100531Y63500D02*
X104469D01*
X102500Y61532D02*
Y65469D01*
D145*
X299031Y331000D02*
X302969D01*
X301000Y329031D02*
Y332968D01*
X23031Y53500D02*
X26969D01*
X25000Y51531D02*
Y55468D01*
M02*
